<?xml version="1.0" encoding="UTF-8" standalone="no"?>
<!-- Created with Inkscape (http://www.inkscape.org/) -->

<svg
   width="180mm"
   height="120mm"
   viewBox="0 0 180 120"
   version="1.1"
   id="svg5"
   inkscape:version="1.2.2 (b0a8486541, 2022-12-01)"
   sodipodi:docname="cartes-panoramax.svg"
   xmlns:inkscape="http://www.inkscape.org/namespaces/inkscape"
   xmlns:sodipodi="http://sodipodi.sourceforge.net/DTD/sodipodi-0.dtd"
   xmlns="http://www.w3.org/2000/svg"
   xmlns:svg="http://www.w3.org/2000/svg">
  <sodipodi:namedview
     id="namedview7"
     pagecolor="#ffffff"
     bordercolor="#000000"
     borderopacity="0.25"
     inkscape:showpageshadow="2"
     inkscape:pageopacity="0.0"
     inkscape:pagecheckerboard="0"
     inkscape:deskcolor="#d1d1d1"
     inkscape:document-units="mm"
     showgrid="false"
     inkscape:zoom="7.579329"
     inkscape:cx="322.06017"
     inkscape:cy="37.008553"
     inkscape:window-width="1920"
     inkscape:window-height="1055"
     inkscape:window-x="0"
     inkscape:window-y="0"
     inkscape:window-maximized="1"
     inkscape:current-layer="layer1" />
  <defs
     id="defs2">
    <linearGradient
       y2="62.288601"
       x2="248.6918"
       y1="231.7114"
       x1="346.50821"
       gradientUnits="userSpaceOnUse"
       id="SVGID_1_"
       gradientTransform="matrix(6.6326761,0,0,6.6326761,-1221.4079,-713.64667)">
		<stop
   id="stop4"
   style="stop-color:#8F2A85"
   offset="0" />

		<stop
   id="stop6"
   style="stop-color:#2570B6"
   offset="1" />

	</linearGradient>
    <rect
       x="1150.3843"
       y="2292.8162"
       width="2551.0081"
       height="701.39136"
       id="rect141823-1" />
    <rect
       x="1150.3843"
       y="2292.8162"
       width="2107.8879"
       height="701.88715"
       id="rect141823" />
    <rect
       x="411.88269"
       y="1261.6108"
       width="815.34668"
       height="181.92911"
       id="rect66775" />
    <rect
       x="253.02008"
       y="1213.0352"
       width="2209.7197"
       height="583.65765"
       id="rect60279" />
    <linearGradient
       id="linear-gradient"
       x1="433.61841"
       y1="307.74225"
       x2="404.71008"
       y2="341.82751"
       gradientUnits="userSpaceOnUse"
       gradientTransform="matrix(0.1441612,0,0,0.29123159,227.26617,327.64232)">
      <stop
         offset="0"
         stop-color="#ff7471"
         id="stop1083" />
      <stop
         offset="1"
         stop-color="#ff5245"
         id="stop1085" />
    </linearGradient>
  </defs>
  <g
     inkscape:label="Calque 1"
     inkscape:groupmode="layer"
     id="layer1">
    <text
       xml:space="preserve"
       style="font-weight:800;font-size:17.6389px;font-family:Marianne;-inkscape-font-specification:'Marianne Ultra-Bold';text-align:center;text-anchor:middle;fill:#dfedfb;stroke-width:6.00001;stroke-linecap:round;stroke-linejoin:round"
       x="81.713425"
       y="101.61665"
       id="text1015"><tspan
         sodipodi:role="line"
         id="tspan1013"
         style="stroke-width:6"
         x="81.713425"
         y="101.61665"></tspan></text>
    <rect
       fill="#1c3664"
       width="211.526"
       height="137.49208"
       id="rect11773"
       x="-14.28782"
       y="-9.0210352"
       style="stroke-width:0.186554" />
    <polygon
       fill="none"
       stroke="#FFFFFF"
       stroke-width="15"
       stroke-miterlimit="10"
       points="1118,657.01 1053.86,721.01 80,721.01 15.86,657.01 15.86,80 80,16 390,16 390,90 743.86,90 743.86,16 1053.859,16 1118,80 "
       id="polygon11775"
       style="stroke:#ffffff;stroke-opacity:1;stroke-linejoin:miter;stroke-linecap:round"
       transform="matrix(0.15275014,0,0,0.15275014,3.570914,3.8953597)" />
    <g
       id="g433"
       transform="matrix(0.21598161,0,0,0.21598161,21.817823,37.971999)">
      <rect
         style="fill:#57bff5;fill-opacity:1;fill-rule:evenodd;stroke-width:0.138033"
         id="rect2"
         width="203.96568"
         height="203.96568"
         x="3.5503716"
         y="3.1170206"
         ry="56.103344" />
      <circle
         style="fill:#2988e6;fill-opacity:1;fill-rule:evenodd;stroke-width:0.138033"
         id="path2-6"
         cx="103.83656"
         cy="104.80544"
         r="68.791901" />
      <circle
         style="fill:#185abd;fill-opacity:1;fill-rule:evenodd;stroke-width:0.0683626"
         id="path2-3-2"
         cx="103.75215"
         cy="105.48904"
         r="34.070286" />
    </g>
    <g
       id="heart_red"
       data-name="heart red"
       transform="matrix(1.5335127,0,0,1.5335127,-352.61037,-587.74927)">
      <g
         id="g1397">
        <g
           id="Group_25"
           data-name="Group 25"
           transform="matrix(0.2049007,0,0,0.2049007,227.26617,327.64232)">
          <path
             id="Path_69"
             data-name="Path 69"
             d="m 302.81,446.03 c -0.059,-0.106 -0.128,-0.2 -0.187,-0.307 0.059,0.1 0.128,0.2 0.187,0.307 z"
             fill="none" />
          <path
             id="Path_70"
             data-name="Path 70"
             d="m 341.628,456.395 -0.025,-0.006 c 0.006,-0.142 0.025,-0.279 0.025,-0.431 a 20.662,20.662 0 0 0 -37.039,-12.611 0.171,0.171 0 0 0 -0.024,-0.007 2.169,2.169 0 0 1 -3.54,-0.046 l -0.035,0.008 a 20.657,20.657 0 0 0 -37,12.656 c 0,0.147 0.018,0.282 0.018,0.424 l -0.029,0.013 c 0,0 0,0.5 0.1,1.413 a 20.552,20.552 0 0 0 0.6,3.364 c 1.608,6.945 6.938,20.286 24.659,32.122 10.242,6.879 12.73,8.743 13.383,8.867 0.031,0.006 0.048,0.033 0.083,0.033 0.035,0 0.058,-0.033 0.094,-0.043 0.7,-0.162 3.265,-2.071 13.359,-8.857 16.931,-11.313 22.555,-24 24.428,-31.163 a 20.743,20.743 0 0 0 0.854,-4.546 c 0.084,-0.761 0.089,-1.19 0.089,-1.19 z M 302.81,446.03 v 0 c -0.059,-0.1 -0.128,-0.2 -0.187,-0.307 0.059,0.102 0.128,0.201 0.187,0.307 z"
             fill="#ff5245" />
        </g>
        <path
           id="Path_71"
           data-name="Path 71"
           d="m 287.78093,424.85479 c -1.1079,-4.14473 0.28911,-5.9204 1.0245,-6.53408 a 4.2510748,4.2510748 0 0 0 -1.31669,-1.04028 c -1.33186,-0.29014 -3.19297,0.0605 -4.39676,3.46713 -0.2049,0.69666 -0.29875,2.4461 -0.10081,4.5951 a 13.386982,13.386982 0 0 0 3.56117,3.37594 c 2.09859,1.40952 2.60839,1.79145 2.74219,1.81686 0.006,10e-4 0.01,0.007 0.017,0.007 0.007,0 0.0119,-0.007 0.0193,-0.009 a 0.60363747,0.60363747 0 0 0 0.15572,-0.0764 c -0.4223,-1.18289 -1.00647,-2.99073 -1.70559,-5.60219 z"
           fill="url(#linear-gradient)"
           style="fill:url(#linear-gradient);stroke-width:0.204901" />
      </g>
    </g>
    <g
       id="g840"
       transform="matrix(0.12773504,0,0,0.12773504,118.34283,48.691177)">
      <text
         y="-2248.8188"
         style="font-style:normal;font-weight:normal;font-size:40px;line-height:125%;font-family:Sans;letter-spacing:0px;word-spacing:0px;white-space:pre;shape-inside:url(#rect60279);display:inline;fill:#000000;fill-opacity:1;stroke:none;stroke-width:1px;stroke-linecap:butt;stroke-linejoin:miter;stroke-opacity:1"
         id="text60277"
         xml:space="preserve"
         transform="matrix(0.26458304,0,0,0.26458304,-65.824371,-126.05906)" />
      <text
         y="-4324.1934"
         x="304.06815"
         style="font-style:normal;font-weight:normal;font-size:89.8058px;line-height:200%;font-family:Sans;letter-spacing:0px;word-spacing:0px;white-space:pre;shape-inside:url(#rect66775);display:inline;fill:#000000;fill-opacity:1;stroke:none;stroke-width:2.24515px;stroke-linecap:butt;stroke-linejoin:miter;stroke-opacity:1"
         id="text66773"
         xml:space="preserve"
         transform="matrix(0.26458304,0,0,0.26458304,-65.824371,-126.05906)" />
      <text
         y="-2248.5173"
         x="-121.66869"
         style="font-style:normal;font-weight:normal;font-size:40px;line-height:0;font-family:Sans;letter-spacing:0px;word-spacing:0px;white-space:pre;shape-inside:url(#rect141823);display:inline;fill:#000000;fill-opacity:1;stroke:none;stroke-width:1px;stroke-linecap:butt;stroke-linejoin:miter;stroke-opacity:1"
         id="text141821"
         xml:space="preserve"
         transform="matrix(0.26458304,0,0,0.26458304,-65.824371,-126.05906)" />
      <text
         y="-3181.1731"
         x="-158.83984"
         style="font-style:normal;font-weight:normal;font-size:40px;line-height:0;font-family:Sans;letter-spacing:0px;word-spacing:0px;white-space:pre;shape-inside:url(#rect141823-1);display:inline;fill:#000000;fill-opacity:1;stroke:none;stroke-width:1px;stroke-linecap:butt;stroke-linejoin:miter;stroke-opacity:1"
         id="text141821-0"
         xml:space="preserve"
         transform="matrix(0.26458304,0,0,0.26458304,-65.824371,-126.05906)" />
      <g
         id="g1"
         transform="matrix(0.26458333,0,0,0.26458333,-49.706201,20.124202)">
        <circle
           style="fill:url(#SVGID_1_);stroke-width:6.63268"
           id="circle9"
           r="648.67572"
           cy="261.35672"
           cx="752.47656"
           class="st0" />
        <path
           style="fill:#ffffff;stroke-width:6.63268"
           id="path11"
           d="m 465.28163,199.67283 c -0.66327,0 -1.32653,0 -1.9898,0 l -36.47972,-10.61228 c -2.65307,-0.66327 -4.64287,-3.31634 -4.64287,-6.63268 v -49.0818 c 0,-1.9898 1.32653,-3.97961 2.65307,-5.30614 1.9898,-1.32654 3.9796,-1.32654 5.96941,-0.66327 l 36.47972,13.26535 c 2.65307,0.66327 4.64287,3.31634 4.64287,5.96941 v 46.42873 c 0,1.98981 -0.66327,3.97961 -2.65307,5.30614 -1.32654,0.66327 -2.65307,1.32654 -3.97961,1.32654 z m -29.84704,-22.5511 23.21437,6.63268 v -33.16338 l -23.21437,-8.62248 z"
           class="st1" />
        <path
           style="fill:#ffffff;stroke-width:6.63268"
           id="path13"
           d="m 465.28163,292.53029 c -0.66327,0 -0.66327,0 -1.32653,0 l -36.47972,-7.95921 c -3.31634,-0.66326 -5.30614,-3.31633 -5.30614,-6.63267 V 228.8566 c 0,-1.9898 0.66327,-3.9796 2.65307,-5.30614 1.32653,-1.32653 3.9796,-1.9898 5.96941,-1.32653 l 36.47972,9.28574 c 2.65307,0.66327 5.30614,3.31634 5.30614,6.63268 v 47.75527 c 0,1.9898 -0.66327,3.9796 -2.65307,5.30614 -1.98981,0.66327 -3.31634,1.32653 -4.64288,1.32653 z m -29.84704,-19.89802 23.21437,5.30614 v -34.48992 l -23.21437,-5.96941 z"
           class="st1" />
        <path
           style="fill:#ffffff;stroke-width:6.63268"
           id="path15"
           d="m 525.63898,306.45891 c -0.66326,0 -1.32653,0 -1.32653,0 l -36.47972,-8.62247 c -3.31634,-0.66327 -5.30614,-3.31634 -5.30614,-6.63268 v -48.41854 c 0,-1.9898 0.66327,-3.9796 2.65307,-5.30614 1.9898,-1.32653 3.97961,-1.9898 5.96941,-1.32653 l 36.47972,9.28574 c 2.65307,0.66327 5.30614,3.31634 5.30614,6.63268 v 47.75527 c 0,1.9898 -0.66327,3.9796 -2.65307,5.30614 -1.9898,0.66327 -3.31634,1.32653 -4.64288,1.32653 z m -29.84704,-20.56129 23.21437,5.30614 v -34.48992 l -23.21437,-5.96941 z"
           class="st1" />
        <path
           style="fill:#ffffff;stroke-width:6.63268"
           id="path17"
           d="m 609.87397,285.23435 c -0.66327,0 -1.32653,0 -1.9898,0 l -43.1124,-14.59189 c -2.65307,-0.66326 -3.9796,-3.31633 -3.9796,-5.30614 v -30.51031 c 0,-1.9898 0.66327,-3.9796 2.65307,-4.64287 1.32653,-1.32654 3.31634,-1.32654 5.30614,-0.66327 l 43.11239,15.91842 c 1.98981,0.66327 3.97961,3.31634 3.97961,5.30614 v 29.18378 c 0,1.9898 -0.66327,3.31634 -2.65307,4.64287 -0.66327,0 -1.9898,0.66327 -3.31634,0.66327 z m -37.14298,-24.5409 31.83684,10.61228 v -17.24496 l -31.83684,-11.93881 z"
           class="st1" />
        <path
           style="fill:#ffffff;stroke-width:6.63268"
           id="path19"
           d="m 638.39448,350.23458 c -0.66327,0 -0.66327,0 -1.32654,0 l -41.78586,-9.94902 c -2.65307,-0.66327 -4.64287,-2.65307 -4.64287,-5.30614 v -31.17358 c 0,-1.9898 0.66327,-3.31633 1.9898,-4.64287 1.32654,-1.32653 3.31634,-1.32653 5.30614,-0.66327 l 41.78586,11.27555 c 2.65307,0.66327 3.97961,2.65307 3.97961,5.30614 v 29.84705 c 0,1.9898 -0.66327,3.31633 -1.9898,4.64287 -0.66327,0 -1.98981,0.66327 -3.31634,0.66327 z m -35.81645,-20.5613 30.51031,7.29594 V 319.061 l -30.51031,-7.95921 z"
           class="st1" />
        <path
           style="fill:#ffffff;stroke-width:6.63268"
           id="path21"
           d="m 525.63898,218.24432 c -0.66326,0 -1.32653,0 -1.9898,0 l -37.14298,-9.94901 c -2.65307,-0.66327 -4.64288,-3.31634 -4.64288,-6.63268 v -49.0818 c 0,-1.9898 1.32654,-3.97961 2.65307,-5.30614 1.98981,-1.32654 3.97961,-1.32654 5.96941,-0.66327 l 37.14299,13.26535 c 2.65307,0.66327 4.64287,3.31634 4.64287,5.96941 v 45.76547 c 0,1.9898 -0.66327,3.9796 -2.65307,5.30614 -1.32653,0.66326 -2.65307,1.32653 -3.97961,1.32653 z m -30.51031,-21.88783 23.87764,6.63268 v -32.50012 l -23.87764,-8.62247 z"
           class="st1" />
        <path
           style="fill:#ffffff;stroke-width:6.63268"
           id="path23"
           d="m 690.79262,356.86725 c -8.62248,0 -15.25516,-7.95921 -15.25516,-17.24496 0,-9.28574 6.63268,-17.24495 15.25516,-17.24495 8.62248,0 15.25515,7.95921 15.25515,17.24495 0,9.28575 -6.63267,17.24496 -15.25515,17.24496 z m 0,-25.20417 c -3.31634,0 -5.96941,3.31634 -5.96941,7.95921 0,4.64288 2.65307,7.95922 5.96941,7.95922 3.31634,0 5.96941,-3.31634 5.96941,-7.95922 0,-4.64287 -2.65307,-7.95921 -5.96941,-7.95921 z"
           class="st1" />
        <path
           style="fill:#ffffff;stroke-width:6.63268"
           id="path25"
           d="m 1041.6612,199.67283 c -1.3265,0 -2.6531,-0.66327 -3.9796,-1.32654 -1.9898,-1.32653 -2.6531,-3.31633 -2.6531,-5.30614 v -46.42873 c 0,-2.65307 1.9898,-5.30614 4.6429,-5.96941 l 36.4797,-13.26535 c 1.9898,-0.66327 3.9796,-0.66327 5.9694,0.66327 1.9898,1.32653 2.6531,3.31634 2.6531,5.30614 v 49.0818 c 0,2.65307 -1.9898,5.30614 -4.6429,6.63268 l -36.4797,10.61228 c -0.6633,0 -1.3265,0 -1.9898,0 z m 6.6327,-48.41854 v 33.16338 l 23.2143,-6.63267 v -34.48992 z"
           class="st1" />
        <path
           style="fill:#ffffff;stroke-width:6.63268"
           id="path27"
           d="m 1041.6612,292.53029 c -1.3265,0 -2.6531,-0.66326 -3.9796,-1.32653 -1.3266,-1.32654 -2.6531,-3.31634 -2.6531,-5.30614 v -47.75527 c 0,-3.31634 1.9898,-5.96941 5.3062,-6.63268 l 36.4797,-9.28574 c 1.9898,-0.66327 3.9796,0 5.9694,1.32653 1.3265,1.32654 2.653,3.31634 2.653,5.30614 v 49.08181 c 0,3.31634 -1.9898,5.96941 -5.3061,6.63267 l -36.4797,7.95921 c -1.3265,0 -1.3265,0 -1.9898,0 z m 6.6327,-49.0818 v 34.48992 l 23.2143,-5.30614 v -35.15319 z"
           class="st1" />
        <path
           style="fill:#ffffff;stroke-width:6.63268"
           id="path29"
           d="m 981.9671,306.45891 c -1.32653,0 -2.65307,-0.66326 -3.97961,-1.32653 -1.32653,-1.32654 -2.65307,-3.31634 -2.65307,-5.30614 v -47.75527 c 0,-3.31634 1.98981,-5.96941 5.30615,-6.63268 l 36.47973,-9.28574 c 1.9898,-0.66327 3.9796,0 5.9694,1.32653 1.3265,1.32654 2.6531,3.31634 2.6531,5.30614 v 48.41854 c 0,3.31634 -1.9898,5.96941 -5.3062,6.63268 l -36.4797,8.62247 c -0.66326,0 -1.32653,0 -1.9898,0 z m 6.63268,-49.0818 v 34.48992 l 23.21432,-5.30614 v -34.48992 z"
           class="st1" />
        <path
           style="fill:#ffffff;stroke-width:6.63268"
           id="path31"
           d="m 897.06885,285.23435 c -1.32654,0 -2.65307,-0.66327 -3.31634,-1.32653 -1.32654,-1.32654 -2.65307,-2.65307 -2.65307,-4.64288 v -29.18377 c 0,-2.65307 1.32653,-4.64288 3.9796,-5.30614 l 43.77567,-15.91843 c 1.9898,-0.66326 3.9796,-0.66326 5.30614,0.66327 1.32653,1.32654 2.65307,2.65307 2.65307,4.64287 v 30.51031 c 0,2.65308 -1.32654,4.64288 -3.97961,5.30615 l -43.77566,14.59188 c -0.66327,0.66327 -1.32654,0.66327 -1.9898,0.66327 z m 5.9694,-31.17358 v 17.24496 l 32.50012,-10.61228 v -17.90823 z"
           class="st1" />
        <path
           style="fill:#ffffff;stroke-width:6.63268"
           id="path33"
           d="m 865.89527,349.57131 c -1.32654,-1.32654 -1.9898,-2.65307 -1.9898,-4.64287 v -29.84705 c 0,-2.65307 1.9898,-4.64287 3.9796,-5.30614 l 41.78586,-11.27555 c 1.9898,-0.66326 3.31634,0 5.30614,0.66327 1.32654,1.32654 1.9898,2.65307 1.9898,4.64287 v 31.17358 c 0,2.65307 -1.9898,5.30614 -4.64287,5.30614 l -41.78586,9.94902 c -0.66327,0.66326 -3.9796,0 -4.64287,-0.66327 z m 9.28575,-29.84704 v 17.90822 l 30.51031,-7.29594 v -19.23476 z"
           class="st1" />
        <path
           style="fill:#ffffff;stroke-width:6.63268"
           id="path35"
           d="m 981.9671,218.24432 c -1.32653,0 -2.65307,-0.66327 -3.97961,-1.32653 -1.32653,-1.32654 -2.65307,-3.31634 -2.65307,-5.30614 v -45.76547 c 0,-2.65307 1.98981,-5.30614 4.64288,-5.96941 l 36.4797,-13.26535 c 1.9898,-0.66327 3.9796,-0.66327 5.9694,0.66327 1.9898,1.32653 2.6531,3.31634 2.6531,5.30614 v 49.0818 c 0,3.31634 -1.9898,5.30614 -4.6429,6.63268 l -36.4797,9.94901 c -0.66326,0 -1.32653,0 -1.9898,0 z m 6.63268,-47.75527 v 32.50012 l 23.21432,-6.63268 v -34.48991 z"
           class="st1" />
        <path
           style="fill:#ffffff;stroke-width:6.63268"
           id="path37"
           d="m 816.81347,356.86725 c -8.62248,0 -15.25516,-7.95921 -15.25516,-17.24496 0,-9.28574 6.63268,-17.24495 15.25516,-17.24495 8.62247,0 15.25515,7.95921 15.25515,17.24495 0,9.28575 -6.63268,17.24496 -15.25515,17.24496 z m 0,-25.20417 c -3.31634,0 -5.96941,3.31634 -5.96941,7.95921 0,4.64288 2.65307,7.95922 5.96941,7.95922 3.31633,0 5.9694,-3.31634 5.9694,-7.95922 0,-4.64287 -2.65307,-7.95921 -5.9694,-7.95921 z"
           class="st1" />
        <path
           style="fill:#ffffff;stroke-width:6.63268"
           id="path39"
           d="m 1275.7947,-13.236074 c 0,-1.326535 0,-1.989803 0,-3.316338 -1.3266,-3.316338 -5.3062,-5.306141 -8.6225,-3.979606 l -37.143,13.9286203 V 7.3252221 13.957898 l 32.5001,-15.2551549 V 529.31683 h -32.5001 v 13.26535 h 39.1328 c 3.9796,0 6.6327,-2.65307 7.2959,-6.63267 V -11.909539 c 0,0 0,-0.663267 -0.6632,-1.326535 z"
           class="st1" />
        <path
           style="fill:#ffffff;stroke-width:6.63268"
           id="path41"
           d="m 1108.6512,53.090687 v -13.92862 l -33.1634,12.602085 c -0.6632,0 -0.6632,0.663268 -1.3265,0.663268 0,0 -113.41876,69.6431 -115.40857,70.96963 -1.9898,1.32654 -3.9796,3.31634 -3.9796,5.96941 v 37.80626 l -109.43916,65.00022 c -1.9898,0.66327 -3.31634,3.31634 -3.31634,5.30614 l -0.66326,31.83685 -59.69409,35.15318 c -3.31634,1.9898 -1.9898,6.63268 -1.9898,9.94902 0,3.31633 0,72.29616 0,72.29616 l -25.20417,-9.28574 c -1.32654,-0.66327 -3.31634,-0.66327 -4.64287,0 l -22.5511,9.28574 c 0,0 0,-71.6329 0,-72.29616 0,-3.97961 0.66327,-7.29595 -2.65307,-9.28575 l -59.69409,-35.15318 -0.66326,-31.83685 c 0,-1.9898 -1.32654,-3.97961 -3.31634,-5.30614 L 552.16969,168.49925 v -39.13279 c 0,-2.65307 -1.32654,-4.64287 -3.97961,-5.96941 l -8.62248,-3.9796 -130.66371,-78.928847 c -0.66327,0 -0.66327,-0.663268 -1.32654,-0.663268 l -9.28575,-3.979606 v 14.591888 l 3.97961,1.989803 31.17358,19.898028 -25.20417,-11.27555 c -0.66327,0 -0.66327,0 -0.66327,0 l -9.28575,-5.30614 v 15.918422 458.98119 13.26535 h 5.96941 c 1.9898,0 3.31634,-0.66327 5.30614,-1.9898 1.98981,-1.32654 342.90936,-150.56175 342.90936,-150.56175 0,0 346.88899,151.88828 348.87879,152.55155 1.9898,0.66327 7.2959,0 7.2959,0 V 530.64337 71.66218 57.73356 l -60.3573,26.530705 31.8368,-19.898028 z M 502.42462,485.54117 451.35301,508.09227 V 343.6019 l 51.07161,9.28575 z m 35.81645,-290.51121 v 273.92952 l -22.5511,9.94901 V 347.58151 c 0,-3.31634 -1.9898,-5.96941 -5.30614,-6.63268 l -64.33696,-11.27555 c -1.9898,-0.66327 -3.9796,0 -5.30614,1.32654 -1.9898,1.32653 -2.65307,3.31633 -2.65307,5.30614 v 177.09245 l -26.5307,11.93882 V 76.968321 l 119.38817,53.061409 7.29594,3.97961 z m 13.92862,-11.27555 47.092,27.85724 -47.092,-20.5613 z m 35.81645,183.72512 27.85724,3.97961 0.66327,63.01042 -27.85724,11.93882 z m 61.68389,-76.93904 c 0,0.66327 0,1.9898 0,2.65307 v 126.68412 l -22.5511,9.94901 -0.66327,-63.01042 c 0,-3.31634 -1.9898,-5.30614 -4.64287,-5.96941 L 582.68,354.87745 c -1.9898,0 -3.31634,0 -4.64287,1.32653 -1.32654,1.32654 -1.98981,2.65308 -1.98981,4.64288 l 0.66327,90.86766 -24.5409,10.61228 V 204.97897 l 97.50034,43.11239 z m 13.26535,-5.96941 11.93882,7.29595 -11.93882,-3.97961 z m 33.16338,115.40857 -11.27555,5.30614 v -31.17358 l 11.27555,1.32654 z m 17.90823,-7.95921 -8.62248,3.31633 V 370.1326 c 0,-2.65307 -1.98981,-4.64287 -4.64288,-4.64287 l -20.56129,-1.32653 c -1.32654,0 -2.65307,0.66326 -3.31634,1.32653 -0.66327,0.66327 -1.32654,1.9898 -1.32654,3.31634 v 40.45932 l -12.60208,5.30614 V 302.47931 l 51.07161,17.24496 z m 108.11262,11.93881 -11.27555,-5.30614 v -24.5409 l 11.27555,-0.66327 z m 21.88783,9.94902 -13.26535,-5.96941 v -39.13279 c 0,-1.32654 -0.66327,-2.65307 -1.32654,-3.31634 -0.66327,-0.66327 -1.9898,-1.32653 -3.31634,-1.32653 l -20.56129,1.32653 c -2.65307,0 -4.64288,1.9898 -4.64288,4.64287 v 24.54091 l -7.95921,-3.31634 v -72.95944 l 51.07161,-16.58169 z m 0,-125.35758 -22.5511,7.29594 22.5511,-13.26535 z m 72.29617,157.19442 -27.85724,-12.60208 0.66327,-63.67369 27.85723,-3.97961 z m 38.46952,17.24496 -27.19397,-11.93882 0.66326,-91.53093 c 0,-1.9898 -0.66326,-3.31634 -1.9898,-4.64287 -1.32653,-1.32654 -2.65307,-1.32654 -4.64287,-1.32654 l -39.13279,5.96941 c -2.65307,0.66327 -4.64287,3.31634 -4.64287,5.96941 l -0.66327,63.01042 -19.89803,-8.62247 v -126.68412 -45.1022 l 97.50034,-43.11239 z m 0,-271.93972 -57.04102,25.20417 57.04102,-33.82665 z M 1001.8651,484.8779 V 350.89784 l 51.0716,-8.62247 V 506.76573 Z M 1094.7226,77.631589 V 526.00049 l -28.5205,-12.60208 V 334.97942 c 0,-1.9898 -1.3265,-3.9796 -2.6531,-5.30614 -1.3265,-1.32653 -3.3163,-1.9898 -5.3061,-1.32653 l -64.33698,11.27554 c -3.31634,0.66327 -5.30614,3.31634 -5.30614,6.63268 v 132.65352 l -19.89803,-8.62248 -0.66327,-335.61341 z"
           class="st1" />
        <path
           style="fill:#ffffff;stroke-width:6.63268"
           id="path43"
           d="M 243.08698,-0.63398925 274.92383,13.957898 V 9.9782925 -3.9503273 l -28.52051,-9.9490137 -7.29594,-3.316338 c -2.65307,-0.663268 -4.64288,-0.663268 -6.63268,0.663267 -1.9898,0.663268 -3.31634,3.316338 -3.31634,5.306141 V 536.61277 c 0,3.97961 2.65307,6.63268 6.63268,6.63268 h 39.13279 V 529.9801 h -31.83685 z"
           class="st1" />
        <path
           style="fill:#ffffff;stroke-width:6.63268"
           id="path51"
           d="m 1169.6718,118.09091 c -20.5613,0 -37.143,-16.58169 -37.143,-37.142983 V -51.042328 H 974.67116 c -20.5613,0 -37.14299,-16.58169 -37.14299,-37.142986 0,-20.561296 16.58169,-37.142986 37.14299,-37.142986 h 195.00064 c 20.5613,0 37.143,16.58169 37.143,37.142986 V 80.947927 c 0,20.561293 -16.5817,37.142983 -37.143,37.142983 z"
           class="st1" />
        <path
           style="fill:#ffffff;stroke-width:6.63268"
           id="path55"
           d="M 530.28186,647.37847 H 335.28118 c -20.5613,0 -37.14299,-16.58169 -37.14299,-37.14299 V 441.10224 c 0,-20.5613 16.58169,-37.14299 37.14299,-37.14299 20.5613,0 37.14299,16.58169 37.14299,37.14299 v 131.99025 h 157.85769 c 20.56129,0 37.14298,16.58169 37.14298,37.14299 0,20.5613 -16.58169,37.14299 -37.14298,37.14299 z"
           class="st1" />
        <path
           style="fill:#ffffff;stroke-width:6.63268"
           id="path59"
           d="m 335.28118,118.09091 c -20.5613,0 -37.14299,-16.58169 -37.14299,-37.142983 V -88.185314 c 0,-20.561296 16.58169,-37.142986 37.14299,-37.142986 h 195.00068 c 20.56129,0 37.14298,16.58169 37.14298,37.142986 0,20.561296 -16.58169,37.142986 -37.14298,37.142986 H 372.42417 V 80.947927 c 0,20.561293 -16.58169,37.142983 -37.14299,37.142983 z"
           class="st1" />
        <path
           style="fill:#ffffff;stroke-width:6.63268"
           id="path63"
           d="M 1169.6718,647.37847 H 974.67116 c -20.5613,0 -37.14299,-16.58169 -37.14299,-37.14299 0,-20.5613 16.58169,-37.14299 37.14299,-37.14299 H 1132.5288 V 441.10224 c 0,-20.5613 16.5817,-37.14299 37.143,-37.14299 20.5613,0 37.143,16.58169 37.143,37.14299 v 169.13324 c 0,20.5613 -16.5817,37.14299 -37.143,37.14299 z"
           class="st1" />
      </g>
    </g>
    <path
       fill="#00844a"
       stroke="#000"
       stroke-width="5.021"
       d="m 107.18822,5.4907895 -1.89953,-3.244e-4 -1.56432,5.8275169 -1.99759,-5.8260201 -1.15567,-5.863e-4 -1.893935,5.8220664 -1.77111,-5.8230767 -1.00219,-8.73e-5 2.72625,7.961641 1.12062,0.0013 1.862835,-5.7254218 2.06346,5.7238118 1.1206,5.99e-4 z"
       id="path148"
       style="fill:#185abd;fill-opacity:1;stroke:#ffffff;stroke-width:0;stroke-dasharray:none;stroke-opacity:1" />
    <path
       fill="#cee7ce"
       stroke="#000"
       stroke-width="5.021"
       d="m 95.894542,5.4891814 -1.899533,-2.87e-4 -1.564313,5.8275156 -1.997585,-5.8260064 -1.155683,-6.111e-4 -1.893953,5.8220905 -1.771119,-5.8230634 -1.002189,-8.73e-5 2.726275,7.9616257 1.120612,0.0013 1.862845,-5.7254447 2.063484,5.7238367 1.120578,6.1e-4 z"
       id="path150"
       style="fill:#2988e6;fill-opacity:1;stroke:#ffffff;stroke-width:0;stroke-dasharray:none;stroke-opacity:1" />
    <path
       fill="#fff"
       stroke="#000"
       stroke-width="5.021"
       d="M 84.646291,5.502065 82.74676,5.5017782 81.182417,11.329306 79.184835,5.5032747 78.029167,5.5026762 76.135218,11.324767 74.364104,5.5017032 l -1.002186,-8.73e-5 2.726262,7.9616021 1.120623,0.0013 1.862841,-5.7254458 2.063467,5.7238238 1.120603,5.98e-4 z"
       id="path152"
       style="fill:#57bff5;fill-opacity:1;stroke:#ffffff;stroke-width:0;stroke-dasharray:none;stroke-opacity:1" />
  </g>
</svg>
