<svg
   width="580"
   height="580"
   viewBox="0 0 580 580"
   version="1.1"
   xmlns="http://www.w3.org/2000/svg">
    <path
       d="M511.566 153.488L449.38 152.522L430.632 117.16L449.027 84.3384L512.311 85.8884L513.144 64.2846L434.259 49.4686L399.086 102.551L100.592 88.1311C64.0059 85.6015 59.0059 140.701 100.706 141.155L402.163 137.768L432.131 187.347L511.157 174.955L511.566 153.488ZM110.54 115.126C110.4 122.911 104.167 130.469 96.3578 130.257C88.546 130.185 78.6006 126.274 76.9816 113.141C77.149 103.817 84.8815 96.6828 94.5164 97.2308C102.304 97.3722 110.682 107.201 110.54 115.126Z"
	   />
    <path
       d="m 285.27633,204.15887 c -20.22292,-0.29911 -20.22292,30.19828 0,29.91113 h 44.86669 v 37.85553 L 246.3111,341.7381 217.15672,263.98113 h 8.29736 c 20.2229,0.29911 20.2229,-30.19828 0,-29.91113 h -59.82226 c -20.22292,-0.29911 -20.22292,30.19828 0,29.91113 h 19.51102 l 26.64184,71.03893 c -13.99242,-6.95732 -29.52527,-11.21667 -46.15286,-11.21667 -57.64174,0 -104.688957,47.04722 -104.688957,104.68896 0,57.64174 47.047217,104.68894 104.688957,104.68894 57.64172,0 104.68894,-47.0472 104.68894,-104.68894 0,-20.03746 -5.99119,-38.61826 -15.83195,-54.56389 l 84.35835,-70.27919 13.84585,34.70289 c -31.18234,18.16503 -52.46112,51.59073 -52.46112,90.14019 0,57.64174 47.04722,104.68894 104.68896,104.68894 57.64172,0 104.68894,-47.0472 104.68894,-104.68894 0,-57.64174 -47.04722,-104.68896 -104.68894,-104.68896 -8.46785,0 -16.58274,1.29815 -24.47928,3.21246 l -20.38742,-51.00147 v -56.89993 c 0,-8.25848 -6.6971,-14.95558 -14.95556,-14.95558 z M 165.63182,353.71452 c 17.71635,0 33.72778,6.33818 46.50282,16.53188 l -56.08336,46.73614 c -15.28159,12.78102 3.82264,35.72884 19.16108,23.01662 l 56.08336,-46.73614 c 5.62927,10.52273 9.11391,22.40045 9.11391,35.22933 0,41.47476 -33.30305,74.77781 -74.77781,74.77781 -41.47478,0 -74.777827,-33.30305 -74.777827,-74.77781 0,-41.47478 33.300057,-74.77783 74.777827,-74.77783 z m 239.28903,0 c 41.47476,0 74.77781,33.30305 74.77781,74.77783 0,41.47476 -33.30305,74.77781 -74.77781,74.77781 -41.47478,0 -74.77783,-33.30305 -74.77783,-74.77781 0,-26.23206 13.36429,-49.11706 33.65002,-62.45146 l 27.22511,67.99997 c 7.35814,18.63762 35.3071,7.48077 27.80838,-11.10002 l -27.16529,-67.8833 c 4.31319,-0.76574 8.7161,-1.34302 13.25961,-1.34302 z"
       />
</svg>
