<svg
   width="210"
   height="210"
   viewBox="0 0 210 210"
   version="1.1"
   id="svg151"
   xmlns="http://www.w3.org/2000/svg"
   xmlns:svg="http://www.w3.org/2000/svg">
  <path
     d="m 12.753906,151.18945 v 50 H 196.06836 v -50 z"
     id="path148" />
  <path
     d="m 103.08789,6.2324219 c -16.165766,0 -32.242001,5.8941911 -44.990234,14.8046871 -12.748232,8.910497 -23.126677,21.259781 -23.02539,36.525391 0.132883,20.027393 -0.345704,95.20508 -0.345704,95.20508 l 20,0.1289 c 0,0 0.482842,-74.798034 0.345704,-95.466793 -0.03372,-5.082467 4.99257,-13.365614 14.484375,-20 9.491804,-6.634385 22.490689,-11.197265 33.531249,-11.197265 10.9311,0 24.19774,4.747845 34.05273,11.490234 9.855,6.74239 15.19775,15.450319 15.29102,19.214844 0.43935,17.732496 -0.20117,99.00586 -0.20117,99.00586 l 19.99805,0.16406 c 0,0 0.68361,-80.034808 0.19726,-99.664061 C 172.05702,41.559759 161.33144,30.039036 148.43359,21.214844 135.53574,12.390652 119.36311,6.2324219 103.08789,6.2324219 Z"
     id="path2" />
</svg>
