<?xml version="1.0" encoding="UTF-8" standalone="no"?>
<svg
   version="1.1"
   id="cafe"
   width="15"
   height="15"
   viewBox="0 0 15 15"
   xml:space="preserve"
   xmlns="http://www.w3.org/2000/svg"
   xmlns:svg="http://www.w3.org/2000/svg"><defs
     id="defs1" /><path
     d="m 4.7558594,11.279297 a 0.72610915,0.72610915 0 0 1 0.2773437,0.05664 0.72610915,0.72610915 0 0 1 0.234375,0.15625 0.72610915,0.72610915 0 0 1 0.033203,0.03516 0.72610915,0.72610915 0 0 1 0.029297,0.03711 0.72610915,0.72610915 0 0 1 0.027344,0.03711 0.72610915,0.72610915 0 0 1 0.025391,0.04101 0.72610915,0.72610915 0 0 1 0.023437,0.04102 0.72610915,0.72610915 0 0 1 0.019531,0.04492 0.72610915,0.72610915 0 0 1 0.015625,0.04297 0.72610915,0.72610915 0 0 1 0.013672,0.04687 0.72610915,0.72610915 0 0 1 0.011719,0.04492 0.72610915,0.72610915 0 0 1 0.00781,0.04687 0.72610915,0.72610915 0 0 1 0.00391,0.04883 0.72610915,0.72610915 0 0 1 0.00195,0.04687 0.72610915,0.72610915 0 0 1 -0.00195,0.04687 0.72610915,0.72610915 0 0 1 -0.00391,0.04883 0.72610915,0.72610915 0 0 1 -0.00781,0.04687 0.72610915,0.72610915 0 0 1 -0.011719,0.04492 0.72610915,0.72610915 0 0 1 -0.013672,0.04687 0.72610915,0.72610915 0 0 1 -0.015625,0.04297 0.72610915,0.72610915 0 0 1 -0.019531,0.04492 0.72610915,0.72610915 0 0 1 -0.023437,0.04102 0.72610915,0.72610915 0 0 1 -0.025391,0.04101 0.72610915,0.72610915 0 0 1 -0.027344,0.03711 0.72610915,0.72610915 0 0 1 -0.029297,0.03711 0.72610915,0.72610915 0 0 1 -0.033203,0.03516 0.72610915,0.72610915 0 0 1 -0.234375,0.15625 0.72610915,0.72610915 0 0 1 -0.2773437,0.05664 0.72610915,0.72610915 0 0 1 -0.2773438,-0.05469 0.72610915,0.72610915 0 0 1 -0.2363281,-0.158203 0.72610915,0.72610915 0 0 1 -0.1582031,-0.236328 0.72610915,0.72610915 0 0 1 -0.054687,-0.277344 0.72610915,0.72610915 0 0 1 0.054687,-0.277343 0.72610915,0.72610915 0 0 1 0.1582031,-0.236328 0.72610915,0.72610915 0 0 1 0.2363281,-0.158204 0.72610915,0.72610915 0 0 1 0.2773438,-0.05469 z"
     style="display:inline;stroke-width:0.244584;stroke-linecap:round;stroke-linejoin:round"
     id="path28" /><path
     d="m 7.2402344,13.019531 a 0.72610915,0.72610915 0 0 1 0.2773437,0.05469 0.72610915,0.72610915 0 0 1 0.2363281,0.158203 0.72610915,0.72610915 0 0 1 0.033203,0.03516 0.72610915,0.72610915 0 0 1 0.029297,0.03516 0.72610915,0.72610915 0 0 1 0.027344,0.03906 0.72610915,0.72610915 0 0 1 0.025391,0.04102 0.72610915,0.72610915 0 0 1 0.023437,0.04101 0.72610915,0.72610915 0 0 1 0.019531,0.04297 0.72610915,0.72610915 0 0 1 0.015625,0.04492 0.72610915,0.72610915 0 0 1 0.013672,0.04687 0.72610915,0.72610915 0 0 1 0.011719,0.04492 0.72610915,0.72610915 0 0 1 0.00781,0.04687 0.72610915,0.72610915 0 0 1 0.00391,0.04687 0.72610915,0.72610915 0 0 1 0.00195,0.04883 0.72610915,0.72610915 0 0 1 -0.00195,0.04687 0.72610915,0.72610915 0 0 1 -0.00391,0.04687 0.72610915,0.72610915 0 0 1 -0.00781,0.04687 0.72610915,0.72610915 0 0 1 -0.011719,0.04687 0.72610915,0.72610915 0 0 1 -0.013672,0.04492 0.72610915,0.72610915 0 0 1 -0.015625,0.04492 0.72610915,0.72610915 0 0 1 -0.019531,0.04297 0.72610915,0.72610915 0 0 1 -0.023437,0.04297 0.72610915,0.72610915 0 0 1 -0.025391,0.03906 0.72610915,0.72610915 0 0 1 -0.027344,0.03906 0.72610915,0.72610915 0 0 1 -0.029297,0.03711 0.72610915,0.72610915 0 0 1 -0.033203,0.03516 0.72610915,0.72610915 0 0 1 -0.2363281,0.15625 0.72610915,0.72610915 0 0 1 -0.2773437,0.05664 0.72610915,0.72610915 0 0 1 -0.2773438,-0.05664 0.72610915,0.72610915 0 0 1 -0.2363281,-0.15625 0.72610915,0.72610915 0 0 1 -0.1582031,-0.236328 0.72610915,0.72610915 0 0 1 -0.054687,-0.277344 0.72610915,0.72610915 0 0 1 0.054687,-0.279297 0.72610915,0.72610915 0 0 1 0.1582031,-0.234375 0.72610915,0.72610915 0 0 1 0.2363281,-0.158203 0.72610915,0.72610915 0 0 1 0.2773438,-0.05469 z"
     style="display:inline;stroke-width:0.244584;stroke-linecap:round;stroke-linejoin:round"
     id="path30" /><path
     d="M 6.9726562,10.994141 A 0.72610915,0.72610915 0 0 1 7.25,11.048828 a 0.72610915,0.72610915 0 0 1 0.2363281,0.158203 0.72610915,0.72610915 0 0 1 0.033203,0.03516 0.72610915,0.72610915 0 0 1 0.029297,0.03516 0.72610915,0.72610915 0 0 1 0.027344,0.03906 0.72610915,0.72610915 0 0 1 0.025391,0.04102 0.72610915,0.72610915 0 0 1 0.023437,0.04102 0.72610915,0.72610915 0 0 1 0.019531,0.04297 0.72610915,0.72610915 0 0 1 0.015625,0.04492 0.72610915,0.72610915 0 0 1 0.013672,0.04687 0.72610915,0.72610915 0 0 1 0.011719,0.04492 0.72610915,0.72610915 0 0 1 0.00781,0.04687 0.72610915,0.72610915 0 0 1 0.00391,0.04687 0.72610915,0.72610915 0 0 1 0.00195,0.04883 0.72610915,0.72610915 0 0 1 -0.00195,0.04687 0.72610915,0.72610915 0 0 1 -0.00391,0.04687 0.72610915,0.72610915 0 0 1 -0.00781,0.04687 0.72610915,0.72610915 0 0 1 -0.011719,0.04687 0.72610915,0.72610915 0 0 1 -0.013672,0.04492 0.72610915,0.72610915 0 0 1 -0.015625,0.04492 0.72610915,0.72610915 0 0 1 -0.019531,0.04297 0.72610915,0.72610915 0 0 1 -0.023437,0.04297 0.72610915,0.72610915 0 0 1 -0.025391,0.03906 0.72610915,0.72610915 0 0 1 -0.027344,0.03906 0.72610915,0.72610915 0 0 1 -0.029297,0.03711 0.72610915,0.72610915 0 0 1 -0.033203,0.03516 0.72610915,0.72610915 0 0 1 -0.2363281,0.15625 0.72610915,0.72610915 0 0 1 -0.2773438,0.05664 0.72610915,0.72610915 0 0 1 -0.2773437,-0.05664 0.72610915,0.72610915 0 0 1 -0.2363281,-0.15625 0.72610915,0.72610915 0 0 1 -0.1582032,-0.236328 0.72610915,0.72610915 0 0 1 -0.054687,-0.277344 0.72610915,0.72610915 0 0 1 0.054687,-0.279297 0.72610915,0.72610915 0 0 1 0.1582032,-0.234375 0.72610915,0.72610915 0 0 1 0.2363281,-0.158203 0.72610915,0.72610915 0 0 1 0.2773437,-0.05469 z"
     style="display:inline;stroke-width:0.244584;stroke-linecap:round;stroke-linejoin:round"
     id="path31" /><path
     d="m 8.6933594,11.566406 a 0.72610915,0.72610915 0 0 1 0.2773437,0.05469 0.72610915,0.72610915 0 0 1 0.2363282,0.158203 0.72610915,0.72610915 0 0 1 0.033203,0.03516 0.72610915,0.72610915 0 0 1 0.029297,0.03516 0.72610915,0.72610915 0 0 1 0.027344,0.03906 0.72610915,0.72610915 0 0 1 0.025391,0.04102 0.72610915,0.72610915 0 0 1 0.023437,0.04101 0.72610915,0.72610915 0 0 1 0.019531,0.04297 0.72610915,0.72610915 0 0 1 0.015625,0.04492 0.72610915,0.72610915 0 0 1 0.013672,0.04687 0.72610915,0.72610915 0 0 1 0.011719,0.04492 0.72610915,0.72610915 0 0 1 0.00781,0.04687 0.72610915,0.72610915 0 0 1 0.00391,0.04687 0.72610915,0.72610915 0 0 1 0.00195,0.04883 0.72610915,0.72610915 0 0 1 -0.00195,0.04687 0.72610915,0.72610915 0 0 1 -0.00391,0.04687 0.72610915,0.72610915 0 0 1 -0.00781,0.04687 0.72610915,0.72610915 0 0 1 -0.011719,0.04687 0.72610915,0.72610915 0 0 1 -0.013672,0.04492 0.72610915,0.72610915 0 0 1 -0.015625,0.04492 0.72610915,0.72610915 0 0 1 -0.019531,0.04297 0.72610915,0.72610915 0 0 1 -0.023437,0.04297 0.72610915,0.72610915 0 0 1 -0.025391,0.03906 0.72610915,0.72610915 0 0 1 -0.027344,0.03906 0.72610915,0.72610915 0 0 1 -0.029297,0.03711 0.72610915,0.72610915 0 0 1 -0.033203,0.03516 0.72610915,0.72610915 0 0 1 -0.2363282,0.15625 0.72610915,0.72610915 0 0 1 -0.2773437,0.05664 0.72610915,0.72610915 0 0 1 -0.2773438,-0.05664 0.72610915,0.72610915 0 0 1 -0.2363281,-0.15625 0.72610915,0.72610915 0 0 1 -0.1582031,-0.236328 0.72610915,0.72610915 0 0 1 -0.054687,-0.277344 0.72610915,0.72610915 0 0 1 0.054687,-0.279297 0.72610915,0.72610915 0 0 1 0.1582031,-0.234375 0.72610915,0.72610915 0 0 1 0.2363281,-0.158203 0.72610915,0.72610915 0 0 1 0.2773438,-0.05469 z"
     style="display:inline;stroke-width:0.244584;stroke-linecap:round;stroke-linejoin:round"
     id="path32" /><path
     d="M 9.4863281,13.160156 A 0.72610915,0.72610915 0 0 1 9.7636719,13.214844 0.72610915,0.72610915 0 0 1 10,13.373047 a 0.72610915,0.72610915 0 0 1 0.0332,0.03516 0.72610915,0.72610915 0 0 1 0.0293,0.03711 0.72610915,0.72610915 0 0 1 0.02734,0.03711 0.72610915,0.72610915 0 0 1 0.02539,0.04102 0.72610915,0.72610915 0 0 1 0.02344,0.04101 0.72610915,0.72610915 0 0 1 0.01953,0.04492 0.72610915,0.72610915 0 0 1 0.01563,0.04297 0.72610915,0.72610915 0 0 1 0.01367,0.04687 0.72610915,0.72610915 0 0 1 0.01172,0.04492 0.72610915,0.72610915 0 0 1 0.0078,0.04687 0.72610915,0.72610915 0 0 1 0.0039,0.04883 0.72610915,0.72610915 0 0 1 0.002,0.04687 0.72610915,0.72610915 0 0 1 -0.002,0.04687 0.72610915,0.72610915 0 0 1 -0.0039,0.04883 0.72610915,0.72610915 0 0 1 -0.0078,0.04687 0.72610915,0.72610915 0 0 1 -0.01172,0.04492 0.72610915,0.72610915 0 0 1 -0.01367,0.04687 0.72610915,0.72610915 0 0 1 -0.01563,0.04297 0.72610915,0.72610915 0 0 1 -0.01953,0.04297 0.72610915,0.72610915 0 0 1 -0.02344,0.04297 0.72610915,0.72610915 0 0 1 -0.02539,0.04102 0.72610915,0.72610915 0 0 1 -0.02734,0.03711 0.72610915,0.72610915 0 0 1 -0.0293,0.03711 A 0.72610915,0.72610915 0 0 1 10,14.400377 0.72610915,0.72610915 0 0 1 9.7636719,14.55858 0.72610915,0.72610915 0 0 1 9.4863281,14.61327 0.72610915,0.72610915 0 0 1 9.2089844,14.55858 0.72610915,0.72610915 0 0 1 8.9726563,14.400377 0.72610915,0.72610915 0 0 1 8.8144531,14.164049 0.72610915,0.72610915 0 0 1 8.7597661,13.886705 0.72610915,0.72610915 0 0 1 8.8144531,13.609361 0.72610915,0.72610915 0 0 1 8.9726563,13.373033 0.72610915,0.72610915 0 0 1 9.2089844,13.21483 0.72610915,0.72610915 0 0 1 9.4863281,13.16014 Z"
     style="display:inline;stroke-width:0.244584;stroke-linecap:round;stroke-linejoin:round"
     id="path33" /><path
     d="m 5.1953125,13.142578 a 0.72610915,0.72610915 0 0 1 0.2773437,0.05664 0.72610915,0.72610915 0 0 1 0.234375,0.15625 0.72610915,0.72610915 0 0 1 0.033203,0.03516 0.72610915,0.72610915 0 0 1 0.029297,0.03711 0.72610915,0.72610915 0 0 1 0.027344,0.03711 0.72610915,0.72610915 0 0 1 0.025391,0.04101 0.72610915,0.72610915 0 0 1 0.023437,0.04102 0.72610915,0.72610915 0 0 1 0.019531,0.04492 0.72610915,0.72610915 0 0 1 0.015625,0.04297 0.72610915,0.72610915 0 0 1 0.013672,0.04687 0.72610915,0.72610915 0 0 1 0.011719,0.04492 0.72610915,0.72610915 0 0 1 0.00781,0.04687 0.72610915,0.72610915 0 0 1 0.00391,0.04883 0.72610915,0.72610915 0 0 1 0.00195,0.04687 0.72610915,0.72610915 0 0 1 -0.00195,0.04687 0.72610915,0.72610915 0 0 1 -0.00391,0.04883 0.72610915,0.72610915 0 0 1 -0.00781,0.04687 0.72610915,0.72610915 0 0 1 -0.011719,0.04492 0.72610915,0.72610915 0 0 1 -0.013672,0.04687 0.72610915,0.72610915 0 0 1 -0.015625,0.04297 0.72610915,0.72610915 0 0 1 -0.019531,0.04492 0.72610915,0.72610915 0 0 1 -0.023437,0.04102 0.72610915,0.72610915 0 0 1 -0.025391,0.04102 0.72610915,0.72610915 0 0 1 -0.027344,0.03711 0.72610915,0.72610915 0 0 1 -0.029297,0.03711 0.72610915,0.72610915 0 0 1 -0.033203,0.03516 0.72610915,0.72610915 0 0 1 -0.234375,0.15625 0.72610915,0.72610915 0 0 1 -0.2773437,0.05664 0.72610915,0.72610915 0 0 1 -0.2773438,-0.05469 0.72610915,0.72610915 0 0 1 -0.2363281,-0.158203 0.72610915,0.72610915 0 0 1 -0.1582031,-0.236329 0.72610915,0.72610915 0 0 1 -0.054687,-0.277343 0.72610915,0.72610915 0 0 1 0.054687,-0.277344 0.72610915,0.72610915 0 0 1 0.1582031,-0.236328 0.72610915,0.72610915 0 0 1 0.2363281,-0.158203 0.72610915,0.72610915 0 0 1 0.2773438,-0.05469 z"
     style="display:inline;stroke-width:0.244584;stroke-linecap:round;stroke-linejoin:round"
     id="path29" /><path
     d="m 10.146484,10.414063 a 0.72610915,0.72610915 0 0 1 0.277344,0.05469 0.72610915,0.72610915 0 0 1 0.236328,0.158203 0.72610915,0.72610915 0 0 1 0.0332,0.03516 0.72610915,0.72610915 0 0 1 0.0293,0.03711 0.72610915,0.72610915 0 0 1 0.02734,0.03711 0.72610915,0.72610915 0 0 1 0.02539,0.04102 0.72610915,0.72610915 0 0 1 0.02344,0.04101 0.72610915,0.72610915 0 0 1 0.01953,0.04492 0.72610915,0.72610915 0 0 1 0.01563,0.04297 0.72610915,0.72610915 0 0 1 0.01367,0.04687 0.72610915,0.72610915 0 0 1 0.01172,0.04492 0.72610915,0.72610915 0 0 1 0.0078,0.04687 0.72610915,0.72610915 0 0 1 0.0039,0.04883 0.72610915,0.72610915 0 0 1 0.002,0.04687 0.72610915,0.72610915 0 0 1 -0.05469,0.277344 0.72610915,0.72610915 0 0 1 -0.158203,0.234375 0.72610915,0.72610915 0 0 1 -0.236328,0.158203 0.72610915,0.72610915 0 0 1 -0.277344,0.05469 0.72610915,0.72610915 0 0 1 -0.2773434,-0.05469 0.72610915,0.72610915 0 0 1 -0.2363281,-0.158203 0.72610915,0.72610915 0 0 1 -0.15625,-0.234375 0.72610915,0.72610915 0 0 1 -0.056641,-0.277344 0.72610915,0.72610915 0 0 1 0.054687,-0.277344 0.72610915,0.72610915 0 0 1 0.1582031,-0.236328 0.72610915,0.72610915 0 0 1 0.2363281,-0.158203 0.72610915,0.72610915 0 0 1 0.2773433,-0.05469 z"
     style="display:inline;stroke-width:0.244584;stroke-linecap:round;stroke-linejoin:round"
     id="path34" /><path
     d="m 4.4980469,0.1875 c -0.026231,3.3204e-4 -0.051624,0.004995 -0.076172,0.015625 l -1.205078,0.52148437 c -0.025104,0.0110242 -0.046675,0.0261981 -0.064453,0.0449219 -0.017778,0.0187238 -0.031659,0.0407979 -0.041016,0.0644531 -0.00936,0.0236553 -0.013832,0.0484001 -0.013672,0.0742188 1.602e-4,0.0258187 0.00485,0.0529111 0.015625,0.078125 L 4.21875,3.546875 C 4.21074,3.555125 4.201305,3.562009 4.193359,3.570312 4.120882,3.64606 4.049868,3.7246008 3.9824215,3.804687 3.9149755,3.884773 3.8510954,3.966405 3.7890621,4.0507807 c -0.062033,0.084376 -0.121504,0.1714872 -0.1777344,0.2597657 -0.05623,0.088278 -0.1092209,0.1777244 -0.1601562,0.2695312 -0.050935,0.091807 -0.09919,0.1861341 -0.1445313,0.28125 -0.045341,0.095116 -0.08777,0.1910213 -0.1269531,0.2890625 -0.039183,0.098041 -0.074595,0.1982295 -0.1074219,0.2988281 -0.032827,0.1005987 -0.063067,0.2016084 -0.089844,0.3046875 -0.026776,0.1030793 -0.051627,0.2072853 -0.072266,0.3125 -0.020639,0.1052148 -0.037066,0.2114389 -0.050781,0.3183594 -0.00964,0.075138 -0.015345,0.1502224 -0.019531,0.2265625 -0.00419,0.07634 -0.00685,0.1539366 -0.00977,0.2304688 H 2.6484375 c -0.025499,-0.00113 -0.051177,-0.00203 -0.076172,-0.00195 -0.074986,2.219e-4 -0.1471847,0.00606 -0.2167968,0.015625 -0.046408,0.00638 -0.090797,0.015332 -0.1347657,0.025391 -0.043968,0.010059 -0.087516,0.021223 -0.1289062,0.035156 -0.04139,0.013933 -0.082322,0.029583 -0.1210938,0.046875 -0.038772,0.017292 -0.075384,0.036228 -0.1113281,0.056641 -0.035944,0.020411 -0.070703,0.041343 -0.1035156,0.064453 -0.032813,0.02311 -0.06368,0.048402 -0.09375,0.074219 -0.03007,0.025817 -0.05887,0.053542 -0.085937,0.082031 -0.027067,0.02849 -0.052403,0.057745 -0.076172,0.087891 -0.023769,0.030145 -0.045847,0.061784 -0.066406,0.09375 -0.020559,0.031966 -0.0396,0.064258 -0.056641,0.097656 -0.017041,0.033398 -0.031633,0.067048 -0.044922,0.1015625 -0.013288,0.034514 -0.025272,0.069893 -0.035156,0.1054688 -0.00988,0.035576 -0.017206,0.071286 -0.023437,0.1074219 -0.00623,0.036136 -0.011372,0.072697 -0.013672,0.109375 -0.0023,0.036677 -0.00359,0.074486 -0.00195,0.1113281 0.00163,0.036842 0.00618,0.072717 0.011719,0.109375 0.00553,0.036658 0.012069,0.073131 0.021484,0.109375 0.00942,0.036244 0.021706,0.072259 0.035156,0.1074219 0.013449,0.035163 0.029235,0.069573 0.046875,0.1035156 0.01764,0.033943 0.037136,0.067418 0.058594,0.099609 0.021458,0.032192 0.04498,0.063812 0.070312,0.09375 0.025333,0.029938 0.052477,0.058193 0.082031,0.085937 0.029554,0.027744 0.060595,0.053418 0.09375,0.078125 0.033155,0.024707 0.068424,0.048448 0.1054687,0.070312 0.037045,0.021864 0.076471,0.043466 0.1171875,0.0625 0.040717,0.019034 0.082724,0.035501 0.1269532,0.050781 0.044229,0.01528 0.090729,0.029256 0.1386718,0.041016 0.047943,0.01176 0.097328,0.021305 0.1484375,0.029297 0.044693,0.00699 0.09099,0.012229 0.1386719,0.015625 0.047682,0.0034 0.096749,0.00495 0.1464844,0.00586 l 0.9257812,5.6601568 h 0.8242188 l -0.6074219,-3.28711 c -0.026683,-0.134619 -0.049943,-0.267412 -0.066406,-0.394531 -0.016463,-0.127119 -0.026131,-0.248565 -0.029297,-0.363281 -0.00158,-0.05736 -0.00213,-0.112941 0,-0.166016 0.00213,-0.05307 0.00692,-0.103642 0.013672,-0.152343 0.00675,-0.0487 0.015636,-0.09482 0.027344,-0.138672 0.011707,-0.04386 0.02624,-0.08546 0.042969,-0.123047 0.016729,-0.03759 0.03617,-0.07253 0.058594,-0.103516 0.022423,-0.03098 0.047829,-0.058002 0.076172,-0.082031 0.028342,-0.02403 0.058988,-0.044143 0.09375,-0.060547 0.034762,-0.016403 0.07364,-0.029097 0.1152343,-0.037109 0.041594,-0.00801 0.086043,-0.012572 0.1347657,-0.011719 0.048722,8.537e-4 0.1017186,0.00712 0.1582031,0.017578 0.031531,0.00584 0.068295,0.018179 0.1054687,0.03125 0.037174,0.013071 0.074759,0.026874 0.1113282,0.039063 0.02894,0.00965 0.056314,0.015643 0.083984,0.023437 0.02767,0.00779 0.055636,0.017387 0.087891,0.03125 0.1386642,0.05109 0.2707863,0.09772 0.3964843,0.140625 0.1256981,0.0429 0.2449731,0.08208 0.3613282,0.117188 0.116355,0.0351 0.2278036,0.06585 0.3378906,0.09375 0.110087,0.0279 0.2188132,0.05296 0.3261719,0.07422 0.1073586,0.02126 0.2144265,0.03944 0.3222656,0.05469 0.1078391,0.01525 0.21645,0.02755 0.328125,0.03711 0.1284099,0.01099 0.2739156,0.01124 0.4121094,0.01563 0.074002,0.0023 0.1427816,0.0072 0.2207031,0.0078 0.029664,2.36e-4 0.053674,0.0039 0.083984,0.0039 0.047928,0 0.086468,-0.0053 0.1328125,-0.0059 L 7.0644531,9.1191406 h 0.4804688 0.5136719 l 0.5800781,1.3457034 c 0.068475,-0.01024 0.1387873,-0.01658 0.2070312,-0.0293 0.021907,-0.0041 0.044465,-0.0054 0.066406,-0.0098 0.042914,-0.0085 0.089606,-0.02367 0.1328125,-0.0332 0.086489,-0.01909 0.1718506,-0.03865 0.2597656,-0.06055 0.087915,-0.0219 0.178384,-0.04613 0.2714844,-0.07422 0.1163553,-0.03509 0.23563,-0.07429 0.3613281,-0.117188 0.1256983,-0.0429 0.2578213,-0.08953 0.3964843,-0.140625 0.07301,-0.031381 0.142238,-0.057335 0.207032,-0.078125 0.06479,-0.02079 0.125156,-0.036418 0.18164,-0.046875 0.05648,-0.010457 0.109481,-0.016724 0.158203,-0.017578 0.04872,-8.538e-4 0.09317,0.00371 0.134766,0.011719 0.04159,0.00801 0.08047,0.020706 0.115234,0.037109 0.03476,0.016403 0.06541,0.036517 0.09375,0.060547 0.02835,0.024029 0.05375,0.05105 0.07617,0.082031 0.02242,0.03098 0.04186,0.06592 0.05859,0.103516 0.01673,0.0376 0.0298,0.07919 0.04102,0.123047 0.01122,0.04385 0.02059,0.08997 0.02734,0.138672 0.0068,0.0487 0.01106,0.09927 0.01367,0.152343 0.0026,0.05307 0.0035,0.108657 0.002,0.166016 -0.0031,0.114716 -0.01283,0.236162 -0.0293,0.363281 -0.01647,0.127119 -0.03973,0.259912 -0.06641,0.394531 l -0.328125,1.773438 -0.279297,1.513672 h 0.824219 l 0.923828,-5.6601565 c 0.0501,-8.75e-4 0.09846,-0.00247 0.146485,-0.00586 0.04802,-0.00339 0.09571,-0.00859 0.140625,-0.015625 0.05102,-0.00799 0.10093,-0.017537 0.148437,-0.029297 0.04751,-0.01176 0.09261,-0.025736 0.136719,-0.041016 0.04411,-0.01528 0.08618,-0.031747 0.126953,-0.050781 0.04077,-0.019034 0.08023,-0.040635 0.117188,-0.0625 0.03695,-0.021864 0.07229,-0.045606 0.105468,-0.070312 0.03318,-0.024707 0.0642,-0.05038 0.09375,-0.078125 0.02956,-0.027745 0.0567,-0.056 0.08203,-0.085937 0.02533,-0.029938 0.04885,-0.061558 0.07031,-0.09375 0.02146,-0.032192 0.04095,-0.065667 0.05859,-0.099609 0.01764,-0.033942 0.03343,-0.068352 0.04687,-0.1035156 0.01345,-0.035163 0.02574,-0.071178 0.03516,-0.1074219 0.0094,-0.036244 0.01595,-0.072716 0.02148,-0.109375 0.0055,-0.036658 0.01008,-0.072533 0.01172,-0.109375 0.0016,-0.036842 3.32e-4,-0.07465 -0.002,-0.1113281 -0.0023,-0.036678 -0.0074,-0.073239 -0.01367,-0.109375 -0.0062,-0.036136 -0.01358,-0.071846 -0.02344,-0.1074219 -0.0099,-0.035577 -0.02185,-0.070955 -0.03516,-0.1054688 -0.01331,-0.034514 -0.02793,-0.068163 -0.04492,-0.1015625 -0.01699,-0.033399 -0.03606,-0.065691 -0.05664,-0.097656 -0.02059,-0.031965 -0.04269,-0.063604 -0.06641,-0.09375 -0.02372,-0.030146 -0.04956,-0.059401 -0.07617,-0.087891 -0.02661,-0.02849 -0.05397,-0.056214 -0.08399,-0.082031 -0.03001,-0.025817 -0.06237,-0.051108 -0.0957,-0.074219 -0.03333,-0.02311 -0.06763,-0.04404 -0.103515,-0.064453 -0.03589,-0.020413 -0.07302,-0.039348 -0.111328,-0.056641 -0.03831,-0.017292 -0.0778,-0.032942 -0.119141,-0.046875 -0.04134,-0.013933 -0.08492,-0.025097 -0.128906,-0.035156 -0.04399,-0.010059 -0.08838,-0.019013 -0.134766,-0.025391 -0.04638,-0.00638 -0.09368,-0.011285 -0.142578,-0.013672 -0.0489,-0.00239 -0.09939,-0.00225 -0.150391,0 h -0.18164 c -0.0029,-0.076533 -0.0056,-0.1541292 -0.0098,-0.2304688 -0.0042,-0.07634 -0.0099,-0.1514233 -0.01953,-0.2265625 -0.01372,-0.1069218 -0.03014,-0.2131452 -0.05078,-0.3183594 -0.02064,-0.1052141 -0.04549,-0.2094195 -0.07227,-0.3125 -0.02678,-0.1030803 -0.05702,-0.2040894 -0.08984,-0.3046875 -0.03283,-0.100598 -0.06824,-0.2007856 -0.107422,-0.2988281 -0.03918,-0.098042 -0.08161,-0.1939471 -0.126953,-0.2890625 -0.04534,-0.095115 -0.0936,-0.1894421 -0.144531,-0.28125 C 11.587736,4.4882702 11.534746,4.3988248 11.478516,4.3105469 11.422285,4.222269 11.362815,4.135158 11.300781,4.0507812 11.238747,3.9664045 11.174868,3.8847731 11.107422,3.8046875 11.039976,3.7246019 10.968962,3.6460615 10.896484,3.5703125 10.824007,3.4945635 10.7494,3.4206361 10.671875,3.3496094 10.59435,3.2785826 10.513908,3.2104559 10.431641,3.1445313 10.349373,3.0786065 10.264688,3.0156912 10.177734,2.9550781 10.090781,2.894465 10.001559,2.8361538 9.9101563,2.78125 9.818754,2.7263462 9.7265644,2.6751982 9.6328125,2.6269531 9.5390606,2.578708 9.4437457,2.5333654 9.3476563,2.4921875 9.2515667,2.4510096 9.1547314,2.4130183 9.0566406,2.3789063 8.9585499,2.3447942 8.8592032,2.3145613 8.7597656,2.2871094 8.6603281,2.2596575 8.5596421,2.235311 8.4589844,2.2148438 8.3583266,2.1943765 8.2576964,2.1777885 8.15625,2.1640625 8.0548036,2.1503365 7.9535038,2.1396349 7.8515625,2.1328125 c -0.1019413,-0.00682 -0.2045246,-0.00977 -0.3066406,-0.00977 -0.1021161,0 -0.2046994,0.00294 -0.3066407,0.00977 -0.1019412,0.00682 -0.2032411,0.017524 -0.3046875,0.03125 -0.1014463,0.013726 -0.2020766,0.030314 -0.3027343,0.050781 -0.1006578,0.020467 -0.2013437,0.044814 -0.3007813,0.072266 -0.099437,0.027452 -0.1987842,0.057685 -0.296875,0.091797 -0.098091,0.034112 -0.1949261,0.072103 -0.2910156,0.1132812 -0.031321,0.013422 -0.060695,0.032724 -0.091797,0.046875 L 4.6855469,0.30664063 c -0.010582,-0.0240848 -0.026337,-0.0465321 -0.044922,-0.0644531 -0.018585,-0.0179211 -0.04,-0.031316 -0.064453,-0.0410156 C 4.5513626,0.19116637 4.524278,0.18716796 4.4980469,0.1875 Z m -0.099609,0.46289062 0.8945312,2.07226568 0.054687,0.125 0.042969,0.099609 1.6835937,3.8945313 H 6.0800781 L 4.6347656,3.5 4.609375,3.4394531 4.53125,3.2597656 3.5605469,1.0117187 Z M 2.6308594,7.2421875 h 0.00391 3.1816406 0.21875 0.21875 0.9921875 0.21875 0.080078 0.1386718 4.7695317 0.0059 c 0.07967,-0.00352 0.155088,-7.762e-4 0.22461,0.00781 0.03476,0.00429 0.0674,0.010286 0.09961,0.017578 0.03221,0.00729 0.06398,0.015885 0.09375,0.025391 0.05954,0.019011 0.114734,0.042745 0.164063,0.070312 0.04933,0.027568 0.09278,0.05897 0.132812,0.09375 0.04002,0.034781 0.07486,0.073353 0.105469,0.1132813 0.03061,0.039929 0.05698,0.081214 0.07813,0.125 0.0095,0.01973 0.01506,0.039859 0.01953,0.060547 0.0045,0.020688 0.0079,0.041936 0.01367,0.0625 H 7.9316406 7.7148437 l -0.21875,0.00195 H 6.5019531 6.2851562 6.0664062 1.6992187 c 0.00582,-0.020875 0.00924,-0.041475 0.013672,-0.0625 0.00443,-0.021025 0.00986,-0.042477 0.019531,-0.0625 0.021145,-0.043783 0.047519,-0.085072 0.078125,-0.125 0.030605,-0.039928 0.065442,-0.078501 0.1054687,-0.1132813 0.040027,-0.03478 0.085437,-0.066182 0.1347657,-0.09375 0.049328,-0.027568 0.1025757,-0.051301 0.1621093,-0.070312 0.029767,-0.00951 0.061542,-0.018099 0.09375,-0.025391 0.032208,-0.00729 0.064849,-0.013282 0.099609,-0.017578 0.069521,-0.00859 0.1449452,-0.011332 0.2246094,-0.00781 z M 13.392578,8.2167969 c -0.0022,0.00622 4.56e-4,0.013372 -0.002,0.019531 -0.01629,0.042471 -0.03782,0.083834 -0.06445,0.1230469 -0.02663,0.039213 -0.05837,0.076275 -0.0957,0.1113281 -0.03734,0.035053 -0.08069,0.067647 -0.13086,0.097656 -0.02508,0.015004 -0.05141,0.029511 -0.08008,0.042969 -0.02867,0.013458 -0.05967,0.025866 -0.0918,0.037109 -0.03213,0.011243 -0.06584,0.020484 -0.101562,0.029297 -0.03573,0.00881 -0.07347,0.017196 -0.113281,0.023437 -0.03981,0.00624 -0.08107,0.01035 -0.125,0.013672 -0.04394,0.00332 -0.09055,0.00586 -0.138672,0.00586 H 8.3222656 8.1035156 7.8867187 7.5449219 6.8925781 6.6738281 6.4550781 2.640625 c -0.048122,0 -0.094759,-0.00254 -0.1386719,-0.00586 -0.043912,-0.00332 -0.0851,-0.00743 -0.125,-0.013672 -0.0399,-0.00624 -0.07712,-0.014625 -0.1132812,-0.023437 -0.036162,-0.00881 -0.071265,-0.018054 -0.1035156,-0.029297 -0.03225,-0.011243 -0.063184,-0.023652 -0.091797,-0.037109 C 2.0397463,8.5978699 2.0134543,8.5833639 1.9882813,8.5683589 1.9379343,8.5383499 1.8947603,8.5057549 1.857422,8.4707029 1.820083,8.4356509 1.787924,8.3985879 1.761719,8.3593748 1.735514,8.3201618 1.715263,8.2787988 1.699219,8.2363279 1.697349,8.2313779 1.6989951,8.2256849 1.697269,8.2207029 L 6.2402344,8.21875 h 0.2167968 0.21875 0.9941407 0.2167968 0.2187501 z"
     style="display:inline"
     id="path27" /></svg>
