<svg width="48" height="48" viewBox="0 0 48 48" fill="none" xmlns="http://www.w3.org/2000/svg">
<path opacity="0.7" d="M17.3363 8C17.7763 8 18.2138 8.06579 18.6343 8.19517L44 16H6H4L14.8881 8.74127C15.6131 8.25792 16.465 8 17.3363 8V8Z" fill="white"/>
<path fill-rule="evenodd" clip-rule="evenodd" d="M44 16H4V38C4 39.1046 4.89543 40 6 40H42C43.1046 40 44 39.1046 44 38V16ZM12 28C14.2091 28 16 26.2091 16 24C16 21.7909 14.2091 20 12 20C9.79086 20 8 21.7909 8 24C8 26.2091 9.79086 28 12 28ZM38 24C39.1046 24 40 23.1046 40 22C40 20.8954 39.1046 20 38 20C36.8954 20 36 20.8954 36 22C36 23.1046 36.8954 24 38 24ZM12 34C12 35.1046 11.1046 36 10 36C8.89543 36 8 35.1046 8 34C8 32.8954 8.89543 32 10 32C11.1046 32 12 32.8954 12 34ZM22 32C23.1046 32 24 31.1046 24 30C24 28.8954 23.1046 28 22 28C20.8954 28 20 28.8954 20 30C20 31.1046 20.8954 32 22 32ZM40 32C40 34.2091 38.2091 36 36 36C33.7909 36 32 34.2091 32 32C32 29.7909 33.7909 28 36 28C38.2091 28 40 29.7909 40 32Z" fill="white"/>
<path opacity="0.5" fill-rule="evenodd" clip-rule="evenodd" d="M16 24C16 26.2091 14.2091 28 12 28C9.79086 28 8 26.2091 8 24C8 21.7909 9.79086 20 12 20C14.2091 20 16 21.7909 16 24ZM40 22C40 23.1046 39.1046 24 38 24C36.8954 24 36 23.1046 36 22C36 20.8954 36.8954 20 38 20C39.1046 20 40 20.8954 40 22ZM10 36C11.1046 36 12 35.1046 12 34C12 32.8954 11.1046 32 10 32C8.89543 32 8 32.8954 8 34C8 35.1046 8.89543 36 10 36ZM24 30C24 31.1046 23.1046 32 22 32C20.8954 32 20 31.1046 20 30C20 28.8954 20.8954 28 22 28C23.1046 28 24 28.8954 24 30ZM36 36C38.2091 36 40 34.2091 40 32C40 29.7909 38.2091 28 36 28C33.7909 28 32 29.7909 32 32C32 34.2091 33.7909 36 36 36Z" fill="white"/>
</svg>