<svg xmlns="http://www.w3.org/2000/svg" xmlns:xlink="http://www.w3.org/1999/xlink" version="1.1" x="0px" y="0px" viewBox="0 0 99.992 100" enable-background="new 0 0 99.992 100" xml:space="preserve"><link xmlns="" type="text/css" rel="stylesheet" id="dark-mode-custom-link"/><link xmlns="" type="text/css" rel="stylesheet" id="dark-mode-general-link"/><style xmlns="" lang="en" type="text/css" id="dark-mode-custom-style"/><style xmlns="" lang="en" type="text/css" id="dark-mode-native-style"/><style xmlns="" lang="en" type="text/css" id="dark-mode-native-sheet"/><polygon points="31.942,73.613 31.942,81.946 37.497,81.946 62.495,81.946 68.05,81.946 68.05,73.613 "/><path d="M45.83,61.114c0-0.768-0.621-1.389-1.389-1.389c-0.614,0-1.118,0.404-1.301,0.955l-0.016-0.005l-2.461,7.383h-7.332  c-0.768,0-1.389,0.621-1.389,1.389s0.621,1.389,1.389,1.389h9.334l3.094-9.282l-0.017-0.005C45.789,61.41,45.83,61.269,45.83,61.114  z"/><circle cx="27.776" cy="44.449" r="6.25"/><path d="M36.108,59.726H24.144l-3.503-9.583l-0.019,0.008c-0.531-1.69-2.091-2.924-3.956-2.924c-0.671,0-1.295,0.173-1.856,0.454  l-0.007-0.015C5.257,52.438,0,63.134,0,77.779c0,2.302,1.865,4.167,4.167,4.167h12.499v13.888c0,2.301,1.865,4.166,4.167,4.166  c2.301,0,4.166-1.865,4.166-4.166V77.779c0-2.301-1.865-4.166-4.166-4.166H8.509c0.506-5.989,2.274-12.449,6.962-16.455l4.265,6.587  l0.01-0.005c0.457,0.91,1.388,1.541,2.475,1.541h13.888c1.534,0,2.777-1.244,2.777-2.778C38.886,60.969,37.642,59.726,36.108,59.726  z"/><path d="M66.662,68.058H59.33l-2.461-7.383l-0.016,0.005c-0.184-0.55-0.688-0.955-1.301-0.955c-0.768,0-1.389,0.621-1.389,1.389  c0,0.155,0.041,0.296,0.087,0.434l-0.017,0.005l3.094,9.282h9.334c0.768,0,1.389-0.622,1.389-1.389S67.429,68.058,66.662,68.058z"/><circle cx="72.216" cy="44.449" r="6.25"/><path d="M85.19,47.666l-0.007,0.015c-0.561-0.281-1.185-0.454-1.856-0.454c-1.865,0-3.425,1.234-3.956,2.924l-0.019-0.008  l-3.503,9.583H63.884c-1.534,0-2.777,1.244-2.777,2.777c0,1.534,1.244,2.778,2.777,2.778h13.888c1.087,0,2.018-0.631,2.475-1.541  l0.01,0.005l4.265-6.587c4.688,4.006,6.456,10.466,6.962,16.455H79.16c-2.301,0-4.166,1.865-4.166,4.166v18.055  c0,2.301,1.865,4.166,4.166,4.166c2.302,0,4.167-1.865,4.167-4.166V81.946h12.5c2.301,0,4.166-1.865,4.166-4.167  C99.992,63.134,94.735,52.438,85.19,47.666z"/><polygon points="49.996,0 0,24.35 0,36.773 49.996,12.499 99.992,36.773 99.992,24.35 "/></svg>