<svg width="48" height="48" viewBox="0 0 48 48" fill="none" xmlns="http://www.w3.org/2000/svg">
<path fill-rule="evenodd" clip-rule="evenodd" d="M4 8C4 5.79086 5.79086 4 8 4H24C26.2091 4 28 5.79086 28 8V24C32.4183 24 36 27.5817 36 32V38C36 39.1046 36.8954 40 38 40C39.1046 40 40 39.1046 40 38V23.6586C39.3744 23.8797 38.7013 24 38 24C34.6863 24 32 21.3137 32 18C32 14.9038 34.3452 12.3554 37.3561 12.0341L32 4H36L44 16V38C44 41.3137 41.3137 44 38 44C34.6863 44 32 41.3137 32 38V32C32 29.7909 30.2091 28 28 28V44H4V8ZM8 8H24V20H8V8ZM40 18C40 16.8954 39.1046 16 38 16C36.8954 16 36 16.8954 36 18C36 19.1046 36.8954 20 38 20C39.1046 20 40 19.1046 40 18Z" fill="white"/>
</svg>