<?xml version="1.0" encoding="UTF-8" standalone="no"?>
<svg
   viewBox="0 0 15 15"
   version="1.1"
   id="svg1"
   sodipodi:docname="ferry.svg"
   inkscape:version="1.3.1 (9b9bdc1480, 2023-11-25, custom)"
   xmlns:inkscape="http://www.inkscape.org/namespaces/inkscape"
   xmlns:sodipodi="http://sodipodi.sourceforge.net/DTD/sodipodi-0.dtd"
   xmlns="http://www.w3.org/2000/svg"
   xmlns:svg="http://www.w3.org/2000/svg">
  <defs
     id="defs1" />
  <sodipodi:namedview
     id="namedview1"
     pagecolor="#ffffff"
     bordercolor="#666666"
     borderopacity="1.0"
     inkscape:showpageshadow="2"
     inkscape:pageopacity="0.0"
     inkscape:pagecheckerboard="0"
     inkscape:deskcolor="#d1d1d1"
     showgrid="false"
     inkscape:zoom="22.09516"
     inkscape:cx="1.7198337"
     inkscape:cy="7.1056286"
     inkscape:window-width="1920"
     inkscape:window-height="1175"
     inkscape:window-x="0"
     inkscape:window-y="0"
     inkscape:window-maximized="1"
     inkscape:current-layer="svg1" />
  <path
     d="M 2.058085,12.295933 1.4403232,9.1958929 2.5635265,8.5781311 V 3.5798764 c 0,-0.6177618 0.5054414,-1.1232033 1.1232032,-1.1232033 h 7.8624233 c 0.617762,0 1.123204,0.5054415 1.123204,1.1232033 v 4.9982547 l 1.123203,0.6177618 -0.628994,3.1225051 c -0.876098,-0.584066 -1.617413,-0.8761 -2.235175,-0.8761 -0.9659543,0 -2.0779261,0.370658 -3.3134497,1.123204 -1.1905955,-0.752546 -2.3025667,-1.123204 -3.3134497,-1.123204 -0.6289938,0 -1.3815401,0.280802 -2.2464066,0.853635 z M 11.549153,7.9716012 V 4.1414781 c 0,-0.314497 -0.247104,-0.5616017 -0.561601,-0.5616017 H 4.2483314 c -0.3144969,0 -0.5616017,0.2471047 -0.5616017,0.5616017 V 7.9716012 L 7.6179413,5.8262829 Z M 5.3715347,0.21026662 h 4.4928129 c 0.3144974,0 0.5616034,0.24710472 0.5616034,0.56160165 V 1.8950715 H 4.809933 V 0.77186827 c 0,-0.31449693 0.2471048,-0.56160165 0.5616017,-0.56160165 z M 10.987552,12.565502 c 0.438049,0 0.819939,0.123552 1.257988,0.359425 0.07862,0.03369 0.157248,0.07862 0.258336,0.134785 0.123553,0.07862 0.179713,0.112319 0.235873,0.146016 0.60653,0.336961 0.202177,1.404004 -0.561602,0.965955 -0.04493,-0.02246 -0.123552,-0.06739 -0.235872,-0.134785 -0.08985,-0.05616 -0.157249,-0.08985 -0.224641,-0.123552 -0.292033,-0.157249 -0.505441,-0.22464 -0.730082,-0.22464 -1.0108836,0 -2.0217667,0.33696 -3.0551138,1.033347 L 7.6179413,14.924229 7.3034444,14.722053 c -1.033347,-0.696387 -2.04423,-1.033347 -3.055113,-1.033347 -0.1460164,0 -0.2920328,0.03369 -0.4829773,0.123552 -0.1572486,0.06739 -0.303265,0.157248 -0.6739221,0.370657 -0.7750102,0.426817 -1.1681314,-0.640226 -0.5503696,-0.988419 0.359425,-0.202177 0.5616017,-0.314497 0.7525462,-0.404353 0.3257289,-0.146017 0.6289939,-0.224641 0.9547228,-0.224641 1.1344353,0 2.2576387,0.348193 3.3696099,1.022115 1.1119713,-0.673922 2.2351745,-1.022115 3.3696107,-1.022115 z"
     id="path1"
     style="stroke-width:1.1232" />
</svg>
