<svg width="48" height="48" viewBox="0 0 48 48" fill="none" xmlns="http://www.w3.org/2000/svg">
<path fill-rule="evenodd" clip-rule="evenodd" d="M9.70119 12.2896C6.31732 13.3048 3.99998 16.4194 3.99998 19.9523V33.3119C3.99998 34.6517 5.29145 35.6126 6.57467 35.2276L42.5747 24.4276C43.4206 24.1738 44 23.3952 44 22.5119V7.37613C44 4.69668 41.417 2.77489 38.8506 3.54482L9.70119 12.2896ZM32 19.4237L40 17.0237V10.064C40 8.72432 38.7085 7.76342 37.4253 8.14839L32 9.77598V19.4237ZM20 13.3766L28 10.9766V24.6243L20 27.0243V13.3766ZM9.42528 16.5486L16 14.5762V24.2239L7.99998 26.6239V18.4642C7.99998 17.581 8.57931 16.8024 9.42528 16.5486Z" fill="white"/>
<path d="M43.9156 30.6255C44.233 31.6835 43.6327 32.7985 42.5747 33.1159L6.57466 43.9157C5.51668 44.233 4.40171 43.6327 4.08432 42.5747C3.76693 41.5167 4.3673 40.4017 5.42529 40.0843L12.4608 37.9737C12.3096 37.9911 12.1558 38 12 38C10.7505 38 9.6348 37.4271 8.90128 36.5296L15.9796 34.4061C15.8399 35.7918 14.993 36.9687 13.8053 37.5704L36.4615 30.7737C36.3101 30.7911 36.1561 30.8 36 30.8C34.7505 30.8 33.6348 30.2271 32.9013 29.3296L39.9796 27.2061C39.8399 28.592 38.9927 29.7691 37.8047 30.3707L41.4253 29.2845C42.4833 28.9671 43.5982 29.5675 43.9156 30.6255Z" fill="white"/>
</svg>