<svg width="48" height="48" viewBox="0 0 48 48" fill="none" xmlns="http://www.w3.org/2000/svg">
<path d="M4 10C4 8.89543 4.89543 8 6 8H14C15.1046 8 16 8.89543 16 10V12H8V14H16V16H8V18H16V20H8V22H16V24H8V26H16V28H8V30H16V32H8V34H16V38C16 39.1046 15.1046 40 14 40H6C4.89543 40 4 39.1046 4 38V10Z" fill="white"/>
<path fill-rule="evenodd" clip-rule="evenodd" d="M40.9567 8.24459C41.9264 8.77351 42.2837 9.98839 41.7548 10.9581L34.2782 24.6652L36.2403 28.2625C36.7968 28.0921 37.3877 28.0003 38 28.0003C41.3137 28.0003 44 30.6866 44 34.0003C44 37.314 41.3137 40.0003 38 40.0003C34.6863 40.0003 32 37.314 32 34.0003C32 32.7722 32.369 31.6302 33.0022 30.6792L32 28.8419L30.9978 30.6792C31.631 31.6302 32 32.7722 32 34.0003C32 37.314 29.3137 40.0003 26 40.0003C22.6863 40.0003 20 37.314 20 34.0003C20 30.6866 22.6863 28.0003 26 28.0003C26.6123 28.0003 27.2032 28.092 27.7597 28.2625L29.7218 24.6652L22.2452 10.9581C21.7163 9.98839 22.0736 8.77352 23.0433 8.24459C24.013 7.71567 25.2279 8.07298 25.7568 9.04268L32 20.4886L38.2432 9.04268C38.7721 8.07298 39.987 7.71566 40.9567 8.24459ZM26 36C27.1046 36 28 35.1046 28 34C28 32.8954 27.1046 32 26 32C24.8954 32 24 32.8954 24 34C24 35.1046 24.8954 36 26 36ZM38 36C36.8954 36 36 35.1046 36 34C36 32.8954 36.8954 32 38 32C39.1046 32 40 32.8954 40 34C40 35.1046 39.1046 36 38 36Z" fill="white"/>
</svg>