<?xml version="1.0" encoding="UTF-8" standalone="no"?>
<svg
   width="48"
   height="48"
   viewBox="0 0 48 48"
   fill="none"
   version="1.1"
   id="svg3"
   sodipodi:docname="subway.svg"
   inkscape:version="1.3 (1:1.3+202307231459+0e150ed6c4)"
   xmlns:inkscape="http://www.inkscape.org/namespaces/inkscape"
   xmlns:sodipodi="http://sodipodi.sourceforge.net/DTD/sodipodi-0.dtd"
   xmlns="http://www.w3.org/2000/svg"
   xmlns:svg="http://www.w3.org/2000/svg">
  <defs
     id="defs3" />
  <sodipodi:namedview
     id="namedview3"
     pagecolor="#ffffff"
     bordercolor="#666666"
     borderopacity="1.0"
     inkscape:showpageshadow="2"
     inkscape:pageopacity="0.0"
     inkscape:pagecheckerboard="0"
     inkscape:deskcolor="#d1d1d1"
     inkscape:zoom="12.031612"
     inkscape:cx="-1.5791733"
     inkscape:cy="27.261518"
     inkscape:window-width="1920"
     inkscape:window-height="1055"
     inkscape:window-x="0"
     inkscape:window-y="0"
     inkscape:window-maximized="1"
     inkscape:current-layer="svg3" />
  <path
     style="fill:#000000;fill-opacity:1;stroke:none;stroke-width:1.44814px;stroke-linecap:butt;stroke-linejoin:miter;stroke-opacity:1"
     d="m 13.406267,40.815329 -3.423032,5.832635 29.660079,-0.02232 -3.476307,-5.82544"
     id="path4"
     sodipodi:nodetypes="cccc" />
  <path
     fill-rule="evenodd"
     clip-rule="evenodd"
     d="m 13.954105,1.4103639 c -2.113359,0 -4.1403606,0.8396174 -5.6347424,2.3339988 C 6.8249812,5.2387454 5.9853638,7.2657456 5.9853638,9.379105 v 23.151251 c 0,3.437358 2.786639,6.223998 6.2239972,6.223998 h 24.895994 c 3.437359,0 6.223999,-2.78664 6.223999,-6.223998 V 9.379105 c 0,-2.1133594 -0.839616,-4.1403596 -2.333999,-5.6347423 C 39.500973,2.2499813 37.473971,1.4103639 35.360613,1.4103639 Z M 12.209361,7.6343623 H 37.105355 V 20.08236 H 12.209361 Z m 6.224,21.7839937 c 0,1.718758 -1.393242,3.112 -3.111999,3.112 -1.718602,0 -3.112001,-1.393242 -3.112001,-3.112 0,-1.718756 1.393399,-3.111999 3.112001,-3.111999 1.718757,0 3.111999,1.393243 3.111999,3.111999 z m 18.671994,0 c 0,1.718758 -1.393241,3.112 -3.111998,3.112 -1.718601,0 -3.112,-1.393242 -3.112,-3.112 0,-1.718756 1.393399,-3.111999 3.112,-3.111999 1.718757,0 3.111998,1.393243 3.111998,3.111999 z"
     fill="white"
     id="path1"
     style="fill:#000000;fill-opacity:1;stroke-width:1.55599" />
</svg>
