<svg width="580" height="580" viewBox="0 0 580 580" xmlns="http://www.w3.org/2000/svg">
<path d="M282.645 512.458H318.457V61.1719H282.645V512.458ZM174.964 143.599H102.681C91.4099 143.599 81.2731 147.654 72.2705 155.763C65.508 162.058 61.0066 169.041 58.7663 176.71L27.6758 280.063C26.7824 282.317 26.3356 284.345 26.3357 286.145C26.3356 296.509 31.5105 301.691 41.8603 301.69C49.0762 301.691 53.8113 297.636 56.0655 289.526L84.4345 194.935H99.9592L53.344 363.15H98.6191V494.212C98.6189 505.923 104.247 511.778 115.504 511.778C126.761 511.778 132.39 505.923 132.39 494.212V362.49H149.296V494.893C149.296 506.15 154.924 511.778 166.181 511.778C177.438 511.778 183.066 506.15 183.066 494.893V363.15H228.321L181.046 194.935H197.251L225.62 289.526C227.874 297.636 232.602 301.691 239.805 301.69C250.168 301.691 255.35 296.509 255.35 286.145C255.35 283.891 254.903 281.864 254.01 280.063L222.919 176.71C220.665 169.494 215.49 162.512 207.395 155.763C197.484 147.654 186.674 143.599 174.964 143.599ZM140.513 136.156C150.862 136.156 159.642 132.555 166.851 125.353C174.06 118.151 177.665 109.595 177.665 99.6845C177.665 89.3214 174.06 80.5385 166.851 73.3359C159.642 66.1341 150.862 62.533 140.513 62.5326C130.603 62.533 122.043 66.1341 114.834 73.3359C107.625 80.5385 104.021 89.3214 104.021 99.6845C104.021 109.595 107.625 118.151 114.834 125.353C122.043 132.555 130.603 136.156 140.513 136.156ZM456.528 135.496C466.437 135.497 474.997 131.892 482.207 124.683C489.415 117.474 493.02 108.914 493.02 99.0041C493.02 88.6548 489.415 79.9888 482.207 73.006C474.997 66.0242 466.437 62.533 456.528 62.5326C446.618 62.533 438.062 66.0242 430.86 73.006C423.657 79.9888 420.056 88.6548 420.056 99.0041C420.056 108.914 423.657 117.474 430.86 124.683C438.062 131.892 446.618 135.497 456.528 135.496ZM504.504 142.918H407.892C394.835 142.919 383.688 147.537 374.452 156.773C365.215 166.01 360.597 177.384 360.597 190.894V303.03C360.597 313.848 365.551 319.256 375.462 319.256C384.918 319.256 389.646 313.848 389.646 303.03V193.595H407.212V490.852C407.212 504.363 413.967 511.118 427.479 511.118C440.989 511.118 447.745 504.363 447.745 490.852V318.576H465.311V490.852C465.31 504.363 472.066 511.118 485.577 511.118C499.542 511.118 506.524 504.363 506.524 490.852V193.595H523.41V303.03C523.409 314.288 528.137 319.916 537.594 319.916C547.064 319.916 551.799 314.288 551.799 303.03V191.554C551.799 178.497 547.407 167.127 538.625 157.443C529.842 147.76 518.468 142.919 504.504 142.918Z" />
</svg>
