<?xml version="1.0" encoding="UTF-8" standalone="no"?>
<svg
   version="1.0"
   width="100"
   height="100"
   viewBox="0 0 100 100"
   id="svg1"
   xmlns="http://www.w3.org/2000/svg"
   xmlns:svg="http://www.w3.org/2000/svg">
  <defs
     id="defs1" />
  <path
     d="m 51.674,54.126 c 7.482,0 10.953,5.679 11.683,13.745 0.174,1.93 -0.008,4.743 -0.255,8.001 C 62.261,86.697 61.294,100 68.502,100 74.598,100 77.73,88.305 79.537,74.973 81.282,61.776 79.434,55.208 80.343,49.348 82.076,38.245 91.768,28.29 88.774,14.134 87.116,6.281 82.792,2.587 78.508,1.034 68.64,-2.558 62.269,4.363 51.674,4.363 c -10.595,0 -16.966,-6.921 -26.839,-3.329 -4.28,1.553 -8.604,5.247 -10.266,13.1 -2.99,14.156 6.698,24.111 8.435,35.214 0.908,5.86 -0.939,12.427 0.806,25.625 1.807,13.331 4.94,25.027 11.035,25.027 7.205,0 6.242,-13.303 5.4,-24.127 -0.248,-3.258 -0.428,-6.071 -0.255,-8.001 0.727,-8.067 4.244,-13.746 11.684,-13.746 z"
     id="path1" />
</svg>
