<?xml version="1.0" encoding="UTF-8" standalone="no"?>
<svg
   width="48"
   height="48"
   viewBox="0 0 48 48"
   fill="none"
   version="1.1"
   id="svg3"
   sodipodi:docname="tram.svg"
   inkscape:version="1.3.1 (9b9bdc1480, 2023-11-25, custom)"
   xmlns:inkscape="http://www.inkscape.org/namespaces/inkscape"
   xmlns:sodipodi="http://sodipodi.sourceforge.net/DTD/sodipodi-0.dtd"
   xmlns="http://www.w3.org/2000/svg"
   xmlns:svg="http://www.w3.org/2000/svg">
  <defs
     id="defs3" />
  <sodipodi:namedview
     id="namedview3"
     pagecolor="#ffffff"
     bordercolor="#666666"
     borderopacity="1.0"
     inkscape:showpageshadow="2"
     inkscape:pageopacity="0.0"
     inkscape:pagecheckerboard="0"
     inkscape:deskcolor="#d1d1d1"
     inkscape:zoom="6.015806"
     inkscape:cx="-0.49868629"
     inkscape:cy="34.243126"
     inkscape:window-width="1920"
     inkscape:window-height="1175"
     inkscape:window-x="0"
     inkscape:window-y="0"
     inkscape:window-maximized="1"
     inkscape:current-layer="svg3"
     showgrid="false" />
  <path
     style="fill:#000000;fill-opacity:1;stroke:none;stroke-width:1.67631px;stroke-linecap:butt;stroke-linejoin:miter;stroke-opacity:1"
     d="M 11.679014,41.059955 7.7166574,47.811567 42.049908,47.785727 38.025883,41.042445"
     id="path4"
     sodipodi:nodetypes="cccc" />
  <path
     fill-rule="evenodd"
     clip-rule="evenodd"
     d="m 14.941088,0.43322702 c -1.904488,0 -3.731155,0.87934998 -5.0778428,2.44444888 -1.3466853,1.5651 -2.1033205,3.6880221 -2.1033205,5.9013901 v 24.246818 c 0,3.600021 2.5112253,6.518531 5.6088583,6.518531 h 22.435442 c 3.097633,0 5.60886,-2.91851 5.60886,-6.518531 V 8.779066 c 0,-2.213368 -0.756634,-4.3362901 -2.103322,-5.9013901 C 37.963075,1.312577 36.136409,0.43322702 34.231921,0.43322702 Z M 13.368783,6.9517584 H 35.804225 V 19.988823 H 13.368783 Z m 5.608861,22.8148596 c 0,1.800093 -1.255543,3.259266 -2.80443,3.259266 -1.548746,0 -2.804431,-1.459173 -2.804431,-3.259266 0,-1.800091 1.255685,-3.259266 2.804431,-3.259266 1.548887,0 2.80443,1.459175 2.80443,3.259266 z m 16.826581,0 c 0,1.800093 -1.255543,3.259266 -2.80443,3.259266 -1.548746,0 -2.80443,-1.459173 -2.80443,-3.259266 0,-1.800091 1.255684,-3.259266 2.80443,-3.259266 1.548887,0 2.80443,1.459175 2.80443,3.259266 z"
     fill="white"
     id="path1"
     style="fill:#000000;fill-opacity:1;stroke-width:1.51164" />
</svg>
