<?xml version="1.0" encoding="UTF-8" standalone="no"?>
<svg
   width="48"
   height="48"
   viewBox="0 0 48 48"
   fill="none"
   version="1.1"
   id="svg3"
   sodipodi:docname="tram.svg"
   inkscape:version="1.3.1 (9b9bdc1480, 2023-11-25, custom)"
   xmlns:inkscape="http://www.inkscape.org/namespaces/inkscape"
   xmlns:sodipodi="http://sodipodi.sourceforge.net/DTD/sodipodi-0.dtd"
   xmlns="http://www.w3.org/2000/svg"
   xmlns:svg="http://www.w3.org/2000/svg">
  <defs
     id="defs3" />
  <sodipodi:namedview
     id="namedview3"
     pagecolor="#ffffff"
     bordercolor="#666666"
     borderopacity="1.0"
     inkscape:showpageshadow="2"
     inkscape:pageopacity="0.0"
     inkscape:pagecheckerboard="0"
     inkscape:deskcolor="#d1d1d1"
     inkscape:zoom="6.015806"
     inkscape:cx="-0.49868629"
     inkscape:cy="34.243126"
     inkscape:window-width="1920"
     inkscape:window-height="1175"
     inkscape:window-x="0"
     inkscape:window-y="0"
     inkscape:window-maximized="1"
     inkscape:current-layer="svg3"
     showgrid="false" />
  <path
     style="fill:#000000;fill-opacity:1;stroke:none;stroke-width:1.44814px;stroke-linecap:butt;stroke-linejoin:miter;stroke-opacity:1"
     d="m 13.406267,40.815329 -3.423032,5.832635 29.660079,-0.02232 -3.476307,-5.82544"
     id="path4"
     sodipodi:nodetypes="cccc" />
  <path
     fill-rule="evenodd"
     clip-rule="evenodd"
     d="m 15.44776,1.4103639 c -1.818436,0 -3.562567,0.8396174 -4.848406,2.3339988 C 9.3135162,5.2387454 8.5910687,7.2657456 8.5910687,9.379105 v 23.151251 c 0,3.437358 2.3977593,6.223998 5.3554293,6.223998 h 21.421721 c 2.95767,0 5.35543,-2.78664 5.35543,-6.223998 V 9.379105 c 0,-2.1133594 -0.722446,-4.1403596 -2.008286,-5.6347423 C 37.429524,2.2499813 35.685394,1.4103639 33.866958,1.4103639 Z M 13.946498,7.6343623 H 35.368219 V 20.08236 H 13.946498 Z m 5.355431,21.7839937 c 0,1.718758 -1.198813,3.112 -2.677715,3.112 -1.478768,0 -2.677716,-1.393242 -2.677716,-3.112 0,-1.718756 1.198948,-3.111999 2.677716,-3.111999 1.478902,0 2.677715,1.393243 2.677715,3.111999 z m 16.06629,0 c 0,1.718758 -1.198813,3.112 -2.677715,3.112 -1.478767,0 -2.677715,-1.393242 -2.677715,-3.112 0,-1.718756 1.198948,-3.111999 2.677715,-3.111999 1.478902,0 2.677715,1.393243 2.677715,3.111999 z"
     fill="white"
     id="path1"
     style="fill:#000000;fill-opacity:1;stroke-width:1.44334" />
</svg>
