<svg height="300px" width="300px" fill="#000000" xmlns="http://www.w3.org/2000/svg" xmlns:xlink="http://www.w3.org/1999/xlink" version="1.1" x="0px" y="0px" viewBox="545.275 370.423 100 100" enable-background="new 545.275 370.423 100 100" xml:space="preserve"><link xmlns="" type="text/css" rel="stylesheet" id="dark-mode-custom-link"/><link xmlns="" type="text/css" rel="stylesheet" id="dark-mode-general-link"/><style xmlns="" lang="en" type="text/css" id="dark-mode-custom-style"/><style xmlns="" lang="en" type="text/css" id="dark-mode-native-style"/><style xmlns="" lang="en" type="text/css" id="dark-mode-native-sheet"/><path d="M630.837,401.9c-1.795-3.749-5.076-6.261-8.789-7.285c0.865-2.458,0.793-5.248-0.432-7.791  c-1.861-3.917-5.926-6.073-10.021-5.742c-0.012-1.456-0.305-2.927-0.979-4.323c-2.43-5.098-8.512-7.248-13.609-4.811  c-1.568,0.743-2.818,1.868-3.779,3.174c-2.975-2.443-7.194-3.127-10.89-1.356c-3.171,1.513-5.198,4.445-5.698,7.673  c-2.292-0.645-4.812-0.531-7.138,0.58c-5.098,2.432-7.241,8.528-4.813,13.608c0.098,0.206,0.237,0.374,0.344,0.568  c-0.131,0.059-0.264,0.1-0.395,0.163c-9.324,4.461-13.27,15.638-8.812,24.978c3.371,7.066,10.603,11.033,17.965,10.611  c0.047,1.359,0.362,2.729,0.984,4.033c2.43,5.078,8.53,7.234,13.609,4.822c0.831-0.398,1.554-0.924,2.222-1.5v31.121h9.115v-28.652  c4.168,1.523,8.916,1.457,13.232-0.605c7.613-3.633,11.254-12.188,9.027-20.047c0.795-0.219,1.584-0.481,2.352-0.851  C631.212,416.988,634.103,408.76,630.837,401.9z"/></svg>