<?xml version="1.0" encoding="UTF-8"?>
<!-- Generator: Adobe Illustrator 18.0.0, SVG Export Plug-In . SVG Version: 6.00 Build 0)  -->
<!DOCTYPE svg PUBLIC "-//W3C//DTD SVG 1.1//EN" "http://www.w3.org/Graphics/SVG/1.1/DTD/svg11.dtd">
<svg version="1.1" id="Layer_1" xmlns="http://www.w3.org/2000/svg" xmlns:xlink="http://www.w3.org/1999/xlink" x="0px" y="0px" viewBox="0 0 398.9 193.4" enable-background="new 0 0 398.9 193.4" xml:space="preserve"><link xmlns="" type="text/css" rel="stylesheet" id="dark-mode-custom-link"/><link xmlns="" type="text/css" rel="stylesheet" id="dark-mode-general-link"/><style xmlns="" lang="en" type="text/css" id="dark-mode-custom-style"/><style xmlns="" lang="en" type="text/css" id="dark-mode-native-style"/><style xmlns="" lang="en" type="text/css" id="dark-mode-native-sheet"/>
<path id="path11" fill="#034EA2" d="M143.2,144.6c0-1.2,0.1-2.4,0.4-3.6c1.5-7,6.9-14.3,13.9-18.6c22.2-13.6,40.6-9.6,43.3-8.1  c0.3,0.2,0.1,0.4-0.1,0.9c-2.5,6.4-25.6,26.7-55.2,37.5C144.1,150.4,143.2,147.3,143.2,144.6 M220,107.4c-2.8-3.1-10.2-6.5-20.2-8.1  c-9.7-1.5-29.8-2.6-51.6,8.6c-22.8,11.7-37.5,33.4-30.9,54c0.1,0-19.2,7.1-33.6,4.2c-7.8-1.6-15.1-7.3-17.4-15  c-3.6-11.8-0.6-32,19.6-50.4c26.7-24.4,66.8-33.1,83.9-36.8c7.9-1.7,8.9-2,9.1-3.1c0.1-0.5,0.4-2.3-1.2-4.2  c-2.4-2.8-9.3-5.8-28.3-3.8C129.8,55,103,62.9,95,65.4c5.5-11.5,22.5-42.1,25.5-47.9c4.9-9.4,6.7-13.4,6.7-15.6  c0-0.6-0.2-1.1-0.5-1.4c-2.8-2.6-18.8,6.1-31,20.5C83.4,35.4,76.9,47,67.2,62.2c-10.7,17-44.3,25.6-60.5,30c-4.3,1.2-5.6,1.4-6.2,2  c-0.5,0.6-0.7,1.4-0.5,2.2c1.4,4.8,9.6,9.9,18.1,10.3c6.2,0.3,13.5-0.7,25-3.9c-6.1,9.7-16.5,31.2-16.5,51.6  c0,15.9,7.3,34.8,38.4,37.8c24.5,2.3,48.2-6.4,64.9-12.8c18.8,14.6,44.4,13.8,44.5,13.8c65.7,0,96.2-52.6,101.8-62.4  c0,0.1,6,19.6,17.5,35.4c15.7,21.7,37.5,28.5,59.8,26.4c26.5-2.5,43.6-23,45.2-26.8c0.8-1.9,0-3.9-4.9-1.3  c-4.1,2.2-8.6,5.5-19.6,7.6c-49.2,9.3-63.9-41.8-74.4-63.7c-1.4-3.1-2.7-5.4-4.1-6c-3-1.2-26.2,2.9-28.7,7.8  c-25.8,48-59.4,58.7-84.8,59.1c-8.5,0.1-15.7-1.6-21.4-4.6c10-4.9,17-8.7,24.2-13.5c26.4-17.6,36-36.4,36-42.5  C220.8,108.3,220.5,107.9,220,107.4z"/>
</svg>