<svg version="1.1" xmlns="http://www.w3.org/2000/svg" width="18" height="18" viewBox="0 0 18 18" enable-background="new 0 0 18 18"><link xmlns="" type="text/css" rel="stylesheet" id="dark-mode-custom-link"/><link xmlns="" type="text/css" rel="stylesheet" id="dark-mode-general-link"/><style xmlns="" lang="en" type="text/css" id="dark-mode-custom-style"/><style xmlns="" lang="en" type="text/css" id="dark-mode-native-style"/><style xmlns="" lang="en" type="text/css" id="dark-mode-native-sheet"/>
 <g>
  <path d="M2.3,2.6v1.5v0.6v8.6c0,0.2,0.1,0.3,0.3,0.3c2.1,0,3.8,0.4,5.3,1.2c0.3,0.1,0.5,0.3,0.8,0.5v-0.5v-0.3v-10V3.8   C6.9,2.7,5,2.3,2.6,2.3C2.4,2.3,2.3,2.4,2.3,2.6z"/>
  <path d="M15.7,13.3V4.7V4.1V2.6c0-0.2-0.1-0.3-0.3-0.3c-2.4,0-4.4,0.5-6.1,1.6v0.7v10v0.3v0.5c0.3-0.2,0.5-0.3,0.8-0.5   c1.5-0.8,3.2-1.2,5.3-1.2C15.6,13.6,15.7,13.4,15.7,13.3z"/>
  <path d="M2.3,14.5c-0.5,0-1-0.4-1-1v-9V3.9h-1C0.1,3.9,0,4,0,4.2v11.3c0,0.2,0.1,0.3,0.3,0.3h7.4c-0.4-0.3-0.9-0.5-1.4-0.6   C5.1,14.7,3.8,14.5,2.3,14.5z"/>
  <path d="M17.7,3.9h-1v0.6v9c0,0.5-0.4,1-1,1c-1.5,0-2.9,0.2-4.1,0.6c-0.5,0.2-0.9,0.4-1.4,0.6h7.4c0.2,0,0.3-0.1,0.3-0.3V4.2   C18,4,17.9,3.9,17.7,3.9z"/>
 </g>
</svg>
