<svg height="326" width="181" xmlns="http://www.w3.org/2000/svg" viewBox="0 0 326 326"><path style="fill:#fff" d="M34.5 98.85c-2.3-3.7-17.2 13-33-11.5 29.4 21.7 42.2-39.76 69-6.3 10.6 13.2-11 46.4-36 17.8zM98.85 34.5c-3.7-2.3 13-17.2-11.5-33 21.7 29.4-39.76 42.2-6.3 69 13.2 10.6 46.4-11 17.8-36zm47.65 64.35c2.3-3.7 17.2 13 33-11.5-29.4 21.7-42.2-39.76-69-6.3-10.6 13.2 11 46.4 36 17.8zm-56-8.35c-13 69.5-40 120.5-68 155.5 12-4 25-14 37.5-22-7.5 18-15.5 34-23.5 50 4-2 20-18 40-42 3 33 8 70 14 92.5 6-22.5 11-59.5 14-92.5 20 24 36 40 40 42-8-16-16-32-23.5-50 12.5 8 25.5 18 37.5 22-28-35-55-86-68-155.5z"/></svg>
