<?xml version="1.0" encoding="UTF-8" standalone="no"?>
<svg
version="1.1"
   id="cafe"
xmlns="http://www.w3.org/2000/svg"
   width="15"
   height="15"
   viewBox="0 0 15 15"
   >
  <path
     d="M 9.026175,9.9768869 H 8.4091555 V 8.6404328 H 3.1056989 v 2.6729062 c 0.00884,1.476178 1.2031542,2.665622 2.6676379,2.656735 0.9350655,-0.0056 1.7980037,-0.50732 2.2712066,-1.320283 H 9.026175 c 0.7322744,0 1.325864,-0.598329 1.325864,-1.336452 0,-0.738123 -0.5935896,-1.3364521 -1.325864,-1.3364521 z m 0,2.0046771 H 8.3163445 c 0.058805,-0.217908 0.090031,-0.442431 0.092795,-0.668225 V 10.645112 H 9.02616 c 0.3661367,0 0.6629311,0.299165 0.6629311,0.668227 0,0.369061 -0.2967944,0.668225 -0.6629311,0.668225 z"
     id="path1"
     style="stroke-width:0.665574"
      />
  <path
     id="path11774"
     d="m 10.777511,1.9011091 -0.811424,4.428289 c -0.1187924,0.6481404 1.445551,0.9508744 1.419992,1.6102868 l -0.202856,5.2334321 c -0.03116,0.80458 0.811424,0.805145 0.811424,0.805145 0,0 0.842581,-5.65e-4 0.811423,-0.805145 L 12.603215,7.9396849 c -0.02548,-0.6582852 1.40652,-0.9507133 1.419991,-1.6102868 L 13.211782,1.9011091 H 12.80607 L 13.008926,5.1216828 12.400358,5.5242546 12.197503,1.9011091 H 11.791791 L 11.588935,5.5242546 10.980367,5.1216828 11.183223,1.9011091 Z"
     style="stroke-width:0.808278" />
  <path
     d="M 7.2908035,6.3322709 C 8.8971128,4.9246259 9.283745,0.29127466 9.283745,0.29127466 A 8.1591007,7.1499984 0 0 1 6.4398192,0.92174439 C 4.7956448,1.0439941 3.2730385,1.2483332 2.3722305,2.0307438 1.0030776,3.2392947 0.65829773,4.9543153 1.4435179,6.1681057 2.304466,4.9857536 5.8538971,3.2899428 5.8538971,3.2899428 3.306919,4.8862025 0.37928757,7.9163099 0.26170227,8.3040225 0.14412767,8.6917355 0.98713183,8.7057096 1.1186667,8.5048666 1.2501962,8.3040225 1.7564084,7.495414 2.314434,7.0081502 3.7035125,7.8726474 5.8259911,7.6176655 7.2908035,6.3322709 Z"
     id="path1-3"
     style="stroke-width:0.186563" />
</svg>
