<?xml version="1.0" encoding="UTF-8" standalone="no"?>
<svg
   version="1.0"
   x="0px"
   y="0px"
   viewBox="0 0 100 99.999997"
   enable-background="new 0 0 100 83.648"
   xml:space="preserve"
   id="svg154"
   sodipodi:docname="car.svg"
   width="100"
   height="100"
   inkscape:version="1.2.2 (b0a8486541, 2022-12-01)"
   xmlns:inkscape="http://www.inkscape.org/namespaces/inkscape"
   xmlns:sodipodi="http://sodipodi.sourceforge.net/DTD/sodipodi-0.dtd"
   xmlns="http://www.w3.org/2000/svg"
   xmlns:svg="http://www.w3.org/2000/svg"><defs
     id="defs158" /><sodipodi:namedview
     id="namedview156"
     pagecolor="#ffffff"
     bordercolor="#000000"
     borderopacity="0.25"
     inkscape:showpageshadow="2"
     inkscape:pageopacity="0.0"
     inkscape:pagecheckerboard="0"
     inkscape:deskcolor="#d1d1d1"
     showgrid="false"
     inkscape:zoom="3.6788188"
     inkscape:cx="51.5111"
     inkscape:cy="50.69562"
     inkscape:window-width="1920"
     inkscape:window-height="1055"
     inkscape:window-x="0"
     inkscape:window-y="0"
     inkscape:window-maximized="1"
     inkscape:current-layer="svg154" /><path
     d="M 28.66056,53.444019"
     id="path148"
     style="stroke-width:0.616392" /><path
     d="M 75.011947,44.163017 69.959387,31.115863 C 69.01446,28.618247 66.949549,26.492929 63.041629,26.475054 H 55.916147 43.738106 36.488728 c -3.890045,0.01787 -5.954955,2.143193 -6.917142,4.640809 l -5.053791,13.047154 c -2.006354,0.258884 -5.557384,2.61658 -5.55122,7.082951 v 16.61236 h 4.930514 v 5.302813 c -0.01233,6.537446 9.239087,6.459781 9.236622,0 v -5.302813 h 16.652425 16.610511 v 5.302813 c 0.02034,6.459781 9.271756,6.537446 9.27792,0 v -5.302813 h 4.93113 v -16.61236 c -0.01541,-4.466371 -3.568905,-6.824067 -5.59375,-7.082951 z M 28.66056,57.833341 c -2.363244,0.0068 -4.276523,-1.964438 -4.26666,-4.388705 -0.0099,-2.44091 1.903416,-4.413978 4.26666,-4.393637 2.355847,-0.02035 4.269126,1.952727 4.266043,4.393637 0.003,2.424267 -1.910812,4.394869 -4.266043,4.388705 z M 49.786136,44.040355 h -0.0413 -19.966144 l 3.810531,-10.274009 c 0.459828,-1.458382 1.173608,-2.501932 2.859439,-2.527204 h 13.296174 0.0413 13.338706 c 1.659941,0.02527 2.375572,1.068206 2.85759,2.527204 l 3.811147,10.274009 z m 21.126193,13.792986 c -2.379887,0.0068 -4.294398,-1.964438 -4.307342,-4.388705 0.01294,-2.44091 1.927455,-4.413978 4.307342,-4.393637 2.339205,-0.02035 4.251867,1.952727 4.26666,4.393637 -0.01479,2.424267 -1.927455,4.394869 -4.26666,4.388705 z"
     id="path150"
     style="stroke-width:0.616392" /><path
     d="M 70.912329,53.444019"
     id="path152"
     style="stroke-width:0.616392" /></svg>
