<?xml version="1.0" encoding="UTF-8" standalone="no"?>
<svg id="emoji" viewBox="0 0 72 72" version="1.1" sodipodi:docname="energy.svg" inkscape:version="1.2.1 (8a69933317, 2022-10-28, custom)" xml:space="preserve" inkscape:export-filename="../3d818ebb/energy.png" inkscape:export-xdpi="1334.9872" inkscape:export-ydpi="1334.9872" xmlns:inkscape="http://www.inkscape.org/namespaces/inkscape" xmlns:sodipodi="http://sodipodi.sourceforge.net/DTD/sodipodi-0.dtd" xmlns="http://www.w3.org/2000/svg" xmlns:svg="http://www.w3.org/2000/svg"><defs id="defs11610"/><sodipodi:namedview id="namedview11608" pagecolor="#ffffff" bordercolor="#666666" borderopacity="1.0" inkscape:pageshadow="2" inkscape:pageopacity="0.0" inkscape:pagecheckerboard="0" showgrid="false" inkscape:zoom="14.241909" inkscape:cx="38.091803" inkscape:cy="39.531217" inkscape:window-width="1920" inkscape:window-height="1080" inkscape:window-x="0" inkscape:window-y="0" inkscape:window-maximized="1" inkscape:current-layer="line" inkscape:showpageshadow="2" inkscape:deskcolor="#d1d1d1"/><g id="hair"/><g id="skin"/><g id="skin-shadow"/><g id="line"><path id="path15140" style="fill:#000000;fill-opacity:1;stroke:none;stroke-width:1;stroke-linecap:butt;stroke-linejoin:miter;stroke-dasharray:none;stroke-opacity:1" d="m 28.601562,1.6503906 c 0,0 1.799936,9.9074144 -2.570312,17.0605474 -3.367979,5.512639 -10.819886,9.941768 -13.072266,23.101562 -2.969586,17.350153 8.64888,28.216971 20.451172,28.34375 11.802291,0.126779 22.270746,-8.61436 23.429688,-22.626953 1.193609,-10.356648 -5.640625,-23.003906 -5.640625,-23.003906 -1.68667,4.707903 -4.356723,5.77566 -7.772642,6.928465 0,0 2.512008,-8.828711 -2.67853,-18.789794 C 36.300246,4.1283551 28.601562,1.6503906 28.601562,1.6503906 Z m 6.039063,26.1035154 0.345703,13.607422 c 0.04388,0.01129 10.289063,0.05664 10.289063,0.05664 L 34.166016,65.65625 34.642578,49.871094 H 24.195312 c -0.512893,0 -0.787206,-0.554286 -0.449218,-0.908203 z" sodipodi:nodetypes="cssscccsccccccscc"/><path style="fill:none;fill-opacity:1;stroke:none;stroke-width:1px;stroke-linecap:butt;stroke-linejoin:miter;stroke-opacity:1" d="m 18.307309,56.443855 0.675997,5.676574 c 0,0 8.732072,6.062083 13.435304,5.664528 4.703233,-0.397556 14.798097,-5.656828 14.798097,-5.656828 l 1.309537,-5.907679 -30.218935,0.223405" id="path14297" sodipodi:nodetypes="ccsccc"/></g></svg>