<?xml version="1.0" encoding="UTF-8" standalone="no"?>
<svg
   id="emoji"
   viewBox="0 0 72 72"
   version="1.1"
   sodipodi:docname="invertIcon.svg"
   inkscape:version="1.2.2 (b0a8486541, 2022-12-01)"
   xmlns:inkscape="http://www.inkscape.org/namespaces/inkscape"
   xmlns:sodipodi="http://sodipodi.sourceforge.net/DTD/sodipodi-0.dtd"
   xmlns="http://www.w3.org/2000/svg"
   xmlns:svg="http://www.w3.org/2000/svg">
  <defs
     id="defs214" />
  <sodipodi:namedview
     id="namedview212"
     pagecolor="#ffffff"
     bordercolor="#666666"
     borderopacity="1.0"
     inkscape:showpageshadow="2"
     inkscape:pageopacity="0.0"
     inkscape:pagecheckerboard="0"
     inkscape:deskcolor="#d1d1d1"
     showgrid="false"
     inkscape:zoom="5.3132867"
     inkscape:cx="12.704001"
     inkscape:cy="27.666491"
     inkscape:window-width="1920"
     inkscape:window-height="1055"
     inkscape:window-x="0"
     inkscape:window-y="0"
     inkscape:window-maximized="1"
     inkscape:current-layer="emoji" />
  <g
     id="hair"
     transform="matrix(0.93816161,0,0,0.93816161,-1.1612889,6.7607147)"
     style="stroke:#2988e6;stroke-opacity:1;stroke-width:2.82005708;stroke-dasharray:none" />
  <g
     id="skin"
     transform="matrix(0.93816161,0,0,0.93816161,-1.1612889,6.7607147)"
     style="stroke:#2988e6;stroke-opacity:1;stroke-width:2.82005708;stroke-dasharray:none" />
  <g
     id="skin-shadow"
     transform="matrix(0.93816161,0,0,0.93816161,-1.1612889,6.7607147)"
     style="stroke:#2988e6;stroke-opacity:1;stroke-width:2.82005708;stroke-dasharray:none" />
  <g
     id="line"
     transform="matrix(0.93816161,0,0,0.93816161,-1.1612889,6.7607147)"
     style="stroke:#2988e6;stroke-opacity:1;stroke-width:2.82005708;stroke-dasharray:none">
    <path
       fill="none"
       stroke="#000000"
       stroke-linecap="round"
       stroke-linejoin="round"
       stroke-miterlimit="10"
       stroke-width="2.26943"
       d="M 22.868291,26.301596 18.659412,30.9529 c 0.774895,-8.745464 6.402167,-16.289266 14.709064,-19.305335 2.418528,-0.878268 4.938159,-1.323416 7.488769,-1.323416 6.221407,0 12.209857,2.694944 16.427814,7.393906 l 0.692176,0.771038 4.376022,-4.0945 -0.692175,-0.771038 C 56.321801,7.6756139 48.74112,4.2643247 40.861329,4.2643247 c -3.230756,0 -6.421457,0.5631583 -9.481212,1.6742697 C 20.932243,9.732509 13.723408,19.360213 12.734278,30.429683 L 8.999482,26.301596 5.205,29.83793 15.933262,41.695913 26.660503,29.838952 Z"
       id="path206"
       style="fill:#2988e6;fill-opacity:1;stroke:#2988e6;stroke-opacity:1;stroke-width:2.82005708;stroke-dasharray:none" />
    <path
       fill="none"
       stroke="#000000"
       stroke-linecap="round"
       stroke-linejoin="round"
       stroke-miterlimit="10"
       stroke-width="2.26943"
       d="M 75.324621,35.295675 64.596359,23.437692 53.869118,35.294654 l 3.792326,3.537356 4.190724,-4.631333 c -0.736543,8.792895 -6.378111,16.387759 -14.720412,19.417104 -2.41762,0.877247 -4.936117,1.322395 -7.488768,1.322395 -6.221408,0 -12.209858,-2.694945 -16.427815,-7.393453 l -0.692175,-0.771038 -4.376023,4.093933 0.692175,0.771038 C 24.17741,57.588257 31.759112,61 39.638903,61 42.87068,61 46.06036,60.436274 49.120115,59.326298 59.614059,55.51661 66.843659,45.82037 67.781954,34.689171 l 3.748185,4.142952 z"
       id="path208"
       style="fill:#2988e6;fill-opacity:1;stroke:#2988e6;stroke-opacity:1;stroke-width:2.82005708;stroke-dasharray:none" />
  </g>
</svg>
