<?xml version="1.0" encoding="UTF-8" standalone="no"?>
<svg
   id="emoji"
   viewBox="0 0 72 72"
   version="1.1"
   sodipodi:docname="map.svg"
   inkscape:version="1.3.1 (9b9bdc1480, 2023-11-25, custom)"
   xmlns:inkscape="http://www.inkscape.org/namespaces/inkscape"
   xmlns:sodipodi="http://sodipodi.sourceforge.net/DTD/sodipodi-0.dtd"
   xmlns="http://www.w3.org/2000/svg"
   xmlns:svg="http://www.w3.org/2000/svg">
  <defs
     id="defs6" />
  <sodipodi:namedview
     id="namedview6"
     pagecolor="#ffffff"
     bordercolor="#666666"
     borderopacity="1.0"
     inkscape:showpageshadow="2"
     inkscape:pageopacity="0.0"
     inkscape:pagecheckerboard="0"
     inkscape:deskcolor="#d1d1d1"
     inkscape:zoom="4.3888889"
     inkscape:cx="36"
     inkscape:cy="36"
     inkscape:window-width="1920"
     inkscape:window-height="1055"
     inkscape:window-x="0"
     inkscape:window-y="0"
     inkscape:window-maximized="1"
     inkscape:current-layer="line" />
  <g
     id="color"
     style="stroke:#0a2e52;stroke-opacity:1"
     transform="matrix(1.1067512,0,0,1.1067512,-3.7372087,-2.6032869)">
    <rect
       x="5"
       y="10.838242"
       width="62"
       height="49.485691"
       fill="#92d3f5"
       stroke="none"
       stroke-linecap="round"
       stroke-linejoin="round"
       stroke-miterlimit="10"
       stroke-width="2.11713"
       id="rect1"
       style="stroke:#0a2e52;stroke-opacity:1" />
    <path
       fill="#B1CC33"
       stroke="none"
       stroke-linecap="round"
       stroke-linejoin="round"
       stroke-miterlimit="10"
       stroke-width="2.06543"
       d="m 28.47417,30.162864 c -0.04306,0.602382 -1.721534,2.670392 -2.151453,2.969053 -0.896603,0.622727 -1.24659,0.337285 -2.027735,0.95206 -0.495083,0.389643 -1.113783,0.80624 -1.871795,0.952059 -0.419592,0.08066 -0.234013,-0.315804 -1.178017,0.290399 -0.525858,0.337698 -0.05897,0.70111 0,1.032715 0.07931,0.445823 0.13859,0.17711 1.032714,1.032714 0.466787,0.446752 0.508509,0.844864 1.032715,1.032714 0.32768,0.11742 0.565824,0.05308 1.032714,0 0.97891,-0.111223 0.543621,0.853642 1.032714,1.032715 1.124833,0.411743 1.0291,1.892242 2.065429,2.065429 0.418559,0.06991 0.568819,-0.149021 1.032714,0 0.424653,0.136524 0.911991,0.517183 1.032715,1.032714 0.158935,0.67901 -0.383963,1.310721 -1.032715,2.065429 -0.524722,0.610437 -0.622107,0.516357 -1.032714,1.032714 -0.548578,0.689853 -0.401726,0.891852 -1.032714,2.065429 -0.638631,1.187828 -0.989754,1.354198 -1.032715,2.065429 -0.01797,0.297421 -8.26e-4,1.000803 0,1.032714 0.01807,0.717633 0.05804,0.812436 0,1.032714 -0.134975,0.513259 -1.177294,0.9628 -1.570552,0.903625 -0.774122,-0.116387 -0.760181,-2.791427 -0.796016,-3.205752 -0.0727,-0.836602 0.270158,-1.304318 0.30114,-1.82873 0.107092,-1.814273 0.409987,-2.376896 0,-3.098143 -0.261587,-0.460178 -0.399764,-0.257456 -1.032715,-1.032715 -0.357422,-0.437767 -0.898874,-1.116984 -1.032714,-2.065428 -0.08437,-0.597426 0.09191,-0.60104 0,-1.032715 -0.170605,-0.800767 -0.83495,-1.059255 -2.065429,-2.065429 -0.759148,-0.620764 -1.432478,-1.171304 -2.065429,-2.065428 -0.328919,-0.464618 -0.794364,-1.122044 -1.032714,-2.065429 -0.313739,-1.241736 0.153565,-1.444354 0,-3.098143 -0.0346,-0.3725 -0.185372,-1.730829 -1.032714,-3.098143 -0.359695,-0.580489 -0.613123,-0.976638 -1.032715,-1.032715 -0.799837,-0.106886 -1.229033,1.151683 -2.065428,1.032715 -0.499834,-0.07115 -0.886173,-0.597425 -1.032715,-1.032715 -0.03914,-0.116283 -0.182067,-0.561486 0,-1.032714 0.100896,-0.261173 0.411537,-0.518319 1.032715,-1.032714 0.63388,-0.524929 0.952472,-0.792299 1.032714,-1.032715 0.151086,-0.452948 -0.121241,-0.614465 0,-1.032714 0.207369,-0.715671 1.30628,-1.284284 2.065429,-1.032714 0.436115,0.144476 0.342035,0.42114 1.032714,1.032714 0.335322,0.296905 1.059978,0.853642 2.065429,1.032714 0.507785,0.09047 0.761627,0.135596 1.032714,0 0.667857,-0.334186 0.348541,-1.219429 1.032715,-2.065428 0.629336,-0.778151 1.651826,-0.959392 2.065428,-1.032715 1.022491,-0.181241 1.162217,0.207163 2.065429,0 0.970648,-0.222653 0.942662,-0.701833 2.065429,-1.032714 0.491675,-0.14489 1.357916,-0.40028 2.065428,0 0.636979,0.360314 0.552503,0.916844 1.032715,1.032714 0.670231,0.161827 0.998635,-0.882971 2.065429,-1.032714 0.814501,-0.114322 1.783394,0.331708 2.065428,1.032714 0.140036,0.347922 0.07446,0.668476 0,1.032715 -0.224822,1.10015 -0.821524,1.16676 -1.032714,2.065428 -0.229572,0.976535 0.262206,1.213336 0,2.065429 -0.172154,0.559421 -0.516357,0.387268 -1.064935,0.83908 -0.251156,0.20675 -0.311983,0.537838 -1.000494,1.226349 -0.344204,0.344203 -0.701626,0.675808 -1.032714,1.032714 -0.754605,0.813366 -0.875019,0.875019 -1.032715,1.032715"
       id="path1"
       style="fill:#185abd;fill-opacity:1;stroke:#0a2e52;stroke-opacity:1" />
    <path
       fill="#B1CC33"
       stroke="none"
       stroke-linecap="round"
       stroke-linejoin="round"
       stroke-miterlimit="10"
       stroke-width="2.06543"
       d="m 34.670457,35.326435 c -0.240313,-0.306199 -1.26838,-1.885736 -1.032715,-2.065428 0.291122,-0.221931 0.806447,0.214391 1.032715,0 0.187541,-0.177731 -0.120415,-0.520798 0,-1.032715 0.116077,-0.49374 0.574602,-0.906207 1.032714,-1.032714 0.545273,-0.15057 0.926345,0.149434 1.032714,0 0.204684,-0.287714 -1.277984,-1.303389 -1.032714,-2.065429 0.152119,-0.472673 0.829786,-0.414841 1.032714,-1.032714 0.136422,-0.415151 -0.131258,-0.557769 0,-1.032715 0.132704,-0.480109 0.554878,-0.872437 1.032715,-1.032714 0.135802,-0.04554 0.590403,-0.198075 1.032714,0 0.559525,0.250537 0.472467,0.781868 1.032715,1.032714 0.314874,0.140966 0.717839,0.140966 1.032714,0 0.559111,-0.25033 0.498594,-0.791988 1.032714,-1.032714 0.353911,-0.159451 0.529886,0.01095 1.032715,0 1.153851,-0.0251 2.002639,-0.96156 2.065428,-1.032714 0.519972,-0.58968 0.256423,-0.825655 1.032715,-2.065429 0.414531,-0.662073 0.686342,-0.908685 1.032714,-1.032714 0.09842,-0.03522 0.573879,-0.205407 1.032714,0 0.556943,0.2494 0.500764,0.788684 1.032715,1.032714 0.275528,0.126404 0.454807,0.05711 1.032714,0 0.07353,-0.0072 0.737462,-0.0049 2.065429,0 1.967631,0.0071 1.879953,0.04534 2.065429,0 1.043867,-0.255081 1.023729,-0.77815 2.065428,-1.032714 0.720422,-0.176078 0.705035,0.07972 2.065429,0 1.236985,-0.0725 1.832758,-0.31818 2.065429,0 0.08871,0.121343 0.02169,0.183926 0,1.032714 -0.0088,0.345753 0.279659,0.671471 0.285029,1.075778 0.01188,0.920872 0.04451,0.862524 -0.0053,0.989651 -0.214288,0.546512 -0.373429,0.680352 -0.623966,1.226348 -0.09346,0.203651 -0.123203,0.283067 -0.08602,1.054195 0.05463,1.132887 0.367337,0.875329 0.430332,1.850314 0.04905,0.76235 0.129193,0.915501 0,1.032715 -0.347302,0.315184 -2.244295,-0.272327 -2.667811,-1.161804 -0.445203,-0.93471 -0.126094,-1.727628 -0.430332,-1.93634 -0.417733,-0.286578 -2.306258,1.16263 -2.581786,2.081539 -0.05453,0.181861 -0.293497,0.467407 0.597012,1.274783 0.900114,0.816051 1.289344,1.119772 1.371548,1.194024 0.500247,0.451813 1.04108,1.061631 0.613226,1.645941 -0.575015,0.784759 -1.668453,0.326337 -2.065429,1.032714 -0.355976,0.63326 0.398318,1.223457 0,2.065429 -0.114837,0.242688 -0.420831,0.50603 -1.032714,1.032714 -0.680972,0.586066 -0.934193,0.672194 -1.032714,1.032714 -0.131878,0.482588 0.190742,0.808513 0,1.032715 -0.24465,0.287714 -0.998325,0.01291 -1.032715,0 -1.332098,-0.499421 -1.385902,-2.034654 -2.065429,-2.065429 -0.814708,-0.03687 -1.261563,2.146084 -2.065428,2.065429 -0.180519,-0.01807 -0.464515,-0.356287 -1.032715,-1.032715 -0.546512,-0.650713 -0.662796,-0.889786 -1.032714,-1.032714 -0.473086,-0.182894 -0.920458,-0.03811 -1.032714,0 -0.186405,0.0633 -0.519662,0.22885 -1.032715,1.032714 -0.730232,1.144145 -0.452742,1.44105 -1.032714,2.065429 -0.491779,0.529473 -0.886069,0.525652 -1.032714,1.032715 -0.03119,0.107712 -0.02076,0.415977 0,1.032714 0.02138,0.633983 0.03139,0.952679 0,1.032714 -0.215218,0.548785 -0.786929,0.486099 -1.032715,1.032715 -0.168849,0.375391 0.02695,0.569335 0,1.032714 -0.06217,1.067827 -1.228723,2.218271 -2.065429,2.065429 -0.332534,-0.06072 -0.565927,-0.38479 -1.032714,-1.032715 -0.413086,-0.573363 -0.855604,-1.187621 -1.032714,-2.065428 -0.190639,-0.944831 0.158521,-1.043352 0,-2.065429 -0.08035,-0.518319 -0.261484,-1.685493 -1.032715,-2.065429 -0.740043,-0.364548 -1.286142,0.358972 -2.065428,0 -0.725482,-0.334186 -1.05657,-1.331582 -1.032715,-2.065429 0.02551,-0.784036 0.458422,-1.334886 1.032715,-2.065428 0.44985,-0.572434 0.674878,-0.858702 1.032611,-1.032715"
       id="path2"
       style="fill:#185abd;fill-opacity:1;stroke:#0a2e52;stroke-opacity:1" />
    <g
       id="line"
       style="fill:#185abd;fill-opacity:1;stroke:#0a2e52;stroke-opacity:1"
       transform="translate(65.513648,-25.533964)">
      <path
         fill="none"
         stroke="#000000"
         stroke-linecap="round"
         stroke-linejoin="round"
         stroke-miterlimit="10"
         stroke-width="2"
         d="m 28.5,30.5 c -0.0417,0.5833 -1.667,2.5858 -2.0833,2.875 -0.8682,0.603 -1.2071,0.3266 -1.9635,0.9219 -0.4794,0.3773 -1.0785,0.7807 -1.8125,0.9219 C 22.2344,35.2969 22.4141,34.913 21.5,35.5 c -0.5092,0.327 -0.0571,0.6789 0,1 0.0768,0.4317 0.1342,0.1715 1,1 0.452,0.4326 0.4924,0.8181 1,1 0.3173,0.1137 0.5479,0.0514 1,0 0.9479,-0.1077 0.5264,0.8266 1,1 1.0892,0.3987 0.9965,1.8323 2,2 0.4053,0.0677 0.5508,-0.1443 1,0 0.4112,0.1322 0.8831,0.5008 1,1 0.1539,0.6575 -0.3718,1.2692 -1,2 -0.5081,0.5911 -0.6024,0.5 -1,1 -0.5312,0.668 -0.389,0.8636 -1,2 -0.6184,1.1502 -0.9584,1.3113 -1,2 -0.0174,0.288 -8e-4,0.9691 0,1 0.0175,0.6949 0.0562,0.7867 0,1 -0.1307,0.497 -1.14,0.9323 -1.5208,0.875 C 23.2296,52.2623 23.2431,49.672 23.2084,49.2708 23.138,48.4607 23.47,48.0078 23.5,47.5 c 0.1037,-1.7568 0.397,-2.3016 0,-3 -0.2533,-0.4456 -0.3871,-0.2493 -1,-1 -0.3461,-0.4239 -0.8704,-1.0816 -1,-2 -0.0817,-0.5785 0.089,-0.582 0,-1 -0.1652,-0.7754 -0.8085,-1.0257 -2,-2 -0.7351,-0.6011 -1.3871,-1.1342 -2,-2 -0.3185,-0.4499 -0.7692,-1.0865 -1,-2 -0.3038,-1.2024 0.1487,-1.3986 0,-3 -0.0335,-0.3607 -0.1795,-1.676 -1,-3 -0.3483,-0.5621 -0.5937,-0.9457 -1,-1 -0.7745,-0.1035 -1.1901,1.1152 -2,1 -0.484,-0.0689 -0.8581,-0.5785 -1,-1 -0.0379,-0.1126 -0.1763,-0.5437 0,-1 0.0977,-0.2529 0.3985,-0.5019 1,-1 0.6138,-0.5083 0.9223,-0.7672 1,-1 0.1463,-0.4386 -0.1174,-0.595 0,-1 0.2008,-0.693 1.2649,-1.2436 2,-1 0.4223,0.1399 0.3312,0.4078 1,1 0.3247,0.2875 1.0264,0.8266 2,1 0.4917,0.0876 0.7375,0.1313 1,0 0.6467,-0.3236 0.3375,-1.1808 1,-2 0.6094,-0.7535 1.5995,-0.929 2,-1 0.9901,-0.1755 1.1254,0.2006 2,0 0.9399,-0.2156 0.9128,-0.6796 2,-1 0.4761,-0.1403 1.3149,-0.3876 2,0 0.6168,0.3489 0.535,0.8878 1,1 0.649,0.1567 0.967,-0.855 2,-1 0.7887,-0.1107 1.7269,0.3212 2,1 0.1356,0.3369 0.0721,0.6473 0,1 -0.2177,1.0653 -0.7955,1.1298 -1,2 -0.2223,0.9456 0.2539,1.1749 0,2 -0.1667,0.5417 -0.5,0.375 -1.0312,0.8125 -0.2432,0.2002 -0.3021,0.5208 -0.9688,1.1875 -0.3333,0.3333 -0.6794,0.6544 -1,1 -0.7307,0.7876 -0.8473,0.8473 -1,1"
         id="path4"
         style="fill:#185abd;fill-opacity:1;stroke:#0a2e52;stroke-opacity:1" />
      <path
         fill="none"
         stroke="#000000"
         stroke-linecap="round"
         stroke-linejoin="round"
         stroke-miterlimit="10"
         stroke-width="2"
         d="m 34.5,35.5 c -0.2327,-0.2965 -1.2282,-1.826 -1,-2 0.2819,-0.2149 0.7809,0.2076 1,0 0.1816,-0.1721 -0.1166,-0.5043 0,-1 0.1124,-0.4781 0.5564,-0.8775 1,-1 0.528,-0.1458 0.897,0.1447 1,0 0.1982,-0.2786 -1.2375,-1.2621 -1,-2 0.1473,-0.4577 0.8035,-0.4017 1,-1 0.1321,-0.402 -0.1271,-0.5401 0,-1 0.1285,-0.4649 0.5373,-0.8448 1,-1 0.1315,-0.0441 0.5717,-0.1918 1,0 0.5418,0.2426 0.4575,0.7571 1,1 0.3049,0.1365 0.6951,0.1365 1,0 0.5414,-0.2424 0.4828,-0.7669 1,-1 0.3427,-0.1544 0.5131,0.0106 1,0 1.1173,-0.0243 1.9392,-0.9311 2,-1 0.5035,-0.571 0.2483,-0.7995 1,-2 0.4014,-0.6411 0.6646,-0.8799 1,-1 0.0953,-0.0341 0.5557,-0.1989 1,0 0.5393,0.2415 0.4849,0.7637 1,1 0.2668,0.1224 0.4404,0.0553 1,0 0.0712,-0.007 0.7141,-0.0047 2,0 1.9053,0.0069 1.8204,0.0439 2,0 1.0108,-0.247 0.9913,-0.7535 2,-1 0.6976,-0.1705 0.6827,0.0772 2,0 1.1978,-0.0702 1.7747,-0.3081 2,0 0.0859,0.1175 0.021,0.1781 0,1 -0.0085,0.3348 0.2708,0.6502 0.276,1.0417 0.0115,0.8917 0.0431,0.8352 -0.0051,0.9583 -0.2075,0.5292 -0.3616,0.6588 -0.6042,1.1875 -0.0905,0.1972 -0.1193,0.2741 -0.0833,1.0208 0.0529,1.097 0.3557,0.8476 0.4167,1.7917 0.0475,0.7382 0.1251,0.8865 0,1 -0.3363,0.3052 -2.1732,-0.2637 -2.5833,-1.125 -0.4311,-0.9051 -0.1221,-1.6729 -0.4167,-1.875 -0.4045,-0.2775 -2.2332,1.1258 -2.5,2.0156 -0.0528,0.1761 -0.2842,0.4526 0.5781,1.2344 0.8716,0.7902 1.2485,1.0843 1.3281,1.1562 0.4844,0.4375 1.0081,1.028 0.5938,1.5938 -0.5568,0.7599 -1.6156,0.316 -2,1 -0.3447,0.6132 0.3857,1.1847 0,2 -0.1112,0.235 -0.4075,0.49 -1,1 -0.6594,0.5675 -0.9046,0.6509 -1,1 -0.1277,0.4673 0.1847,0.7829 0,1 -0.2369,0.2786 -0.9667,0.0125 -1,0 -1.2899,-0.4836 -1.342,-1.9702 -2,-2 -0.7889,-0.0357 -1.2216,2.0781 -2,2 -0.1748,-0.0175 -0.4498,-0.345 -1,-1 -0.5292,-0.6301 -0.6418,-0.8616 -1,-1 -0.4581,-0.1771 -0.8913,-0.0369 -1,0 -0.1805,0.0613 -0.5032,0.2216 -1,1 -0.7071,1.1079 -0.4384,1.3954 -1,2 -0.4762,0.5127 -0.858,0.509 -1,1 -0.0302,0.1043 -0.0201,0.4028 0,1 0.0207,0.6139 0.0304,0.9225 0,1 -0.2084,0.5314 -0.762,0.4707 -1,1 -0.1635,0.3635 0.0261,0.5513 0,1 -0.0602,1.034 -1.1898,2.148 -2,2 -0.322,-0.0588 -0.548,-0.3726 -1,-1 -0.4,-0.5552 -0.8285,-1.15 -1,-2 -0.1846,-0.9149 0.1535,-1.0103 0,-2 -0.0778,-0.5019 -0.2532,-1.6321 -1,-2 -0.7166,-0.353 -1.2454,0.3476 -2,0 -0.7025,-0.3236 -1.0231,-1.2894 -1,-2 0.0247,-0.7592 0.4439,-1.2926 1,-2 0.4356,-0.5543 0.6535,-0.8315 0.9999,-1"
         id="path5"
         style="fill:#185abd;fill-opacity:1;stroke:#0a2e52;stroke-opacity:1" />
      <path
         fill="none"
         stroke="#000000"
         stroke-linecap="round"
         stroke-linejoin="round"
         stroke-miterlimit="10"
         stroke-width="2.06543"
         d="m -10.787736,70.600087 c -1.218706,0.598251 -1.801157,0.467716 -2.065428,1.032714 -0.204994,0.438387 -0.04069,0.914882 0,1.032714 0.250846,0.726928 0.95526,1.003695 1.032714,1.032715 0.892059,0.334083 1.382701,-0.366098 2.0654273,0 0.5209011,0.279349 0.4395232,0.796532 1.0327146,1.032714 0.3265442,0.130019 0.6164272,0.0789 1.0327143,0 0.7153613,-0.135595 1.6343738,-0.309918 2.0654288,-1.032714 0.3088848,-0.517803 0.2039611,-1.043455 0,-2.065429 -0.1583151,-0.793331 -0.3665104,-1.836269 -1.0327144,-2.065429 -0.1298122,-0.04461 -0.142308,-0.01208 -1.0327144,0 -0.755224,0.01022 -0.8326776,-0.01208 -1.0327143,0 -0.79013,0.04771 -0.9339871,0.477321 -2.0654279,1.032715 z"
         id="path6"
         style="fill:#185abd;fill-opacity:1;stroke:#0a2e52;stroke-opacity:1" />
    </g>
  </g>
  <g
     id="hair"
     transform="matrix(1.1067512,0,0,1.1067512,-3.7372087,-2.6032869)" />
  <g
     id="skin"
     transform="matrix(1.1067512,0,0,1.1067512,-3.7372087,-2.6032869)" />
  <g
     id="skin-shadow"
     transform="matrix(1.1067512,0,0,1.1067512,-3.7372087,-2.6032869)" />
</svg>
