<?xml version="1.0" encoding="UTF-8" standalone="no"?>
<svg
   version="1.1"
   x="0px"
   y="0px"
   viewBox="0 0 100 100"
   id="svg1"
   sodipodi:docname="share.svg"
   width="100"
   height="100"
   inkscape:version="1.3.1 (9b9bdc1480, 2023-11-25, custom)"
   xmlns:inkscape="http://www.inkscape.org/namespaces/inkscape"
   xmlns:sodipodi="http://sodipodi.sourceforge.net/DTD/sodipodi-0.dtd"
   xmlns="http://www.w3.org/2000/svg"
   xmlns:svg="http://www.w3.org/2000/svg">
  <defs
     id="defs1" />
  <sodipodi:namedview
     id="namedview1"
     pagecolor="#ffffff"
     bordercolor="#000000"
     borderopacity="0.25"
     inkscape:showpageshadow="2"
     inkscape:pageopacity="0.0"
     inkscape:pagecheckerboard="0"
     inkscape:deskcolor="#d1d1d1"
     showgrid="false"
     inkscape:zoom="4.5015233"
     inkscape:cx="51.871329"
     inkscape:cy="83.749427"
     inkscape:window-width="1920"
     inkscape:window-height="1055"
     inkscape:window-x="0"
     inkscape:window-y="0"
     inkscape:window-maximized="1"
     inkscape:current-layer="svg1" />
  <g
     transform="matrix(1.3073835,0,0,1.3073835,-17.702697,-1258.493)"
     id="g1"
     style="fill:#185abd;fill-opacity:1;stroke:#185abd;stroke-opacity:1;stroke-width:2.89090964;stroke-dasharray:none">
    <path
       style="color:#000000;text-indent:0;text-transform:none;direction:ltr;baseline-shift:baseline;enable-background:accumulate;fill:#185abd;fill-opacity:1;stroke:#185abd;stroke-opacity:1;stroke-width:2.89090964;stroke-dasharray:none"
       d="m 67,971.36217 c -5.4991,0 -10,4.50082 -10,10 0,1.123 0.1857,2.20885 0.5312,3.21875 l -17.125,11.125 c -1.8339,-2.03453 -4.4689,-3.34375 -7.4062,-3.34375 -5.4991,0 -10,4.50082 -10,10.00003 0,5.4992 4.5009,10 10,10 2.9494,0 5.6028,-1.2946 7.4375,-3.3437 l 17.0937,11.1249 c -0.3515,1.0177 -0.5312,2.0857 -0.5312,3.2188 0,5.4992 4.5009,10 10,10 5.4991,0 10,-4.5008 10,-10 0,-5.4992 -4.5009,-10 -10,-10 -2.9373,0 -5.5723,1.3092 -7.4062,3.3438 l -17.125,-11.125 c 0.3455,-1.0099 0.5312,-2.0958 0.5312,-3.2188 0,-1.1331 -0.1797,-2.2011 -0.5312,-3.21873 l 17.0937,-11.12505 c 1.8347,2.04912 4.4881,3.34375 7.4375,3.34375 5.4991,0 10,-4.50082 10,-10 0,-5.49918 -4.5009,-10 -10,-10 z m 0,4 c 3.3373,0 6,2.66262 6,6 0,3.33738 -2.6627,6 -6,6 -3.3373,0 -6,-2.66262 -6,-6 0,-3.33738 2.6627,-6 6,-6 z m -34,21 c 3.3373,0 6,2.6626 6,6.00003 0,3.3374 -2.6627,6 -6,6 -3.3373,0 -6,-2.6626 -6,-6 0,-3.33743 2.6627,-6.00003 6,-6.00003 z m 34,21.00003 c 3.3373,0 6,2.6626 6,6 0,3.3374 -2.6627,6 -6,6 -3.3373,0 -6,-2.6626 -6,-6 0,-3.3374 2.6627,-6 6,-6 z"
       fill="#000000"
       fill-opacity="1"
       stroke="none"
       marker="none"
       visibility="visible"
       display="inline"
       overflow="visible"
       id="path1" />
  </g>
</svg>
