<?xml version="1.0" encoding="UTF-8" standalone="no"?>
<svg
   clip-rule="evenodd"
   fill-rule="evenodd"
   stroke-linejoin="round"
   stroke-miterlimit="1.414"
   viewBox="0 0 200 200"
   version="1.1"
   id="svg4"
   sodipodi:docname="transport.data.gouv.fr.svg"
   inkscape:version="1.2.2 (b0a8486541, 2022-12-01)"
   width="200"
   height="200"
   xmlns:inkscape="http://www.inkscape.org/namespaces/inkscape"
   xmlns:sodipodi="http://sodipodi.sourceforge.net/DTD/sodipodi-0.dtd"
   xmlns="http://www.w3.org/2000/svg"
   xmlns:svg="http://www.w3.org/2000/svg"
   xmlns:rdf="http://www.w3.org/1999/02/22-rdf-syntax-ns#"
   xmlns:cc="http://creativecommons.org/ns#"
   xmlns:dc="http://purl.org/dc/elements/1.1/">
  <metadata
     id="metadata10">
    <rdf:RDF>
      <cc:Work
         rdf:about="">
        <dc:format>image/svg+xml</dc:format>
        <dc:type
           rdf:resource="http://purl.org/dc/dcmitype/StillImage" />
      </cc:Work>
    </rdf:RDF>
  </metadata>
  <defs
     id="defs8" />
  <sodipodi:namedview
     pagecolor="#ffffff"
     bordercolor="#666666"
     borderopacity="1"
     objecttolerance="10"
     gridtolerance="10"
     guidetolerance="10"
     inkscape:pageopacity="0"
     inkscape:pageshadow="2"
     inkscape:window-width="1920"
     inkscape:window-height="1080"
     id="namedview6"
     showgrid="false"
     inkscape:zoom="2.1974439"
     inkscape:cx="107.16997"
     inkscape:cy="127.42077"
     inkscape:window-x="0"
     inkscape:window-y="0"
     inkscape:window-maximized="1"
     inkscape:current-layer="svg4"
     inkscape:showpageshadow="2"
     inkscape:pagecheckerboard="0"
     inkscape:deskcolor="#d1d1d1" />
  <path
     d="M 8.0897992,66.289065 V 47.510147 H 3.1855193 V 44.88946 H 8.0897992 V 37.377753 H 11.16553 v 7.511707 h 5.112258 v 2.620687 H 11.16553 v 18.778918 z m 13.3833018,0 V 44.88946 h 3.075731 v 3.051303 c 1.025243,-2.008612 2.812615,-3.169252 5.361417,-3.48192 0.332907,-0.02582 0.693034,-0.05234 1.080379,-0.07817 v 2.855887 c -4.294298,0.390835 -6.441796,2.581604 -6.441796,6.572307 V 66.289065 Z M 58.048266,44.88946 v 21.399605 h -3.075731 v -3.756202 c -1.828549,2.295457 -3.94813,3.651514 -6.358744,4.06887 -0.748169,0.130511 -1.552173,0.195417 -2.410613,0.195417 -3.740849,0 -6.774704,-1.199723 -9.102266,-3.59917 -2.050487,-2.060258 -3.07573,-4.576956 -3.07573,-7.550092 0,-3.390493 1.260442,-6.181473 3.782025,-8.372242 2.244509,-1.929747 4.974072,-2.89497 8.187991,-2.89497 3.629879,0 6.511588,1.291151 8.645128,3.872755 l 0.332209,0.430617 V 44.88946 Z M 46.07825,47.041145 c -2.715604,0 -4.960113,0.964525 -6.732829,2.89497 -1.136213,1.199724 -1.829246,2.594865 -2.078404,4.186121 -0.08305,0.443179 -0.124927,0.886357 -0.124927,1.329536 0,2.738636 1.05316,4.955926 3.158783,6.651172 1.690361,1.356058 3.671754,2.034436 5.943482,2.034436 2.715604,0 4.932196,-0.991046 6.650474,-2.973137 1.38537,-1.591256 2.077706,-3.48192 2.077706,-5.673387 0,-2.659771 -1.039202,-4.824717 -3.116908,-6.49414 -1.635225,-1.303714 -3.560785,-1.955571 -5.777377,-1.955571 z m 19.28491,19.24792 V 44.88946 h 3.07573 v 2.777021 c 1.9123,-2.190769 4.350132,-3.285805 7.314894,-3.285805 3.269752,0 5.846471,1.108297 7.730853,3.325587 1.191349,1.486568 1.842508,3.455399 1.953477,5.90719 0.02792,0.443178 0.04188,0.925441 0.04188,1.447484 V 66.289065 H 82.404258 V 55.060937 c 0,-2.529957 -0.499012,-4.433882 -1.496339,-5.711772 -1.302318,-1.513089 -3.144825,-2.282197 -5.52822,-2.30802 -2.382697,0 -4.225204,0.794931 -5.527522,2.386187 -0.07679,0.07121 -0.146452,0.14975 -0.20798,0.234501 -0.803305,1.095733 -1.205307,2.712813 -1.205307,4.851238 v 11.775994 z m 25.561298,-6.298723 h 3.033856 c 0.138886,2.190769 1.122255,3.521004 2.950804,3.990006 0.41596,0.104688 0.859138,0.157032 1.330234,0.157032 1.524256,0 2.632548,-0.612774 3.324878,-1.839018 0.3329,-0.547867 0.49901,-1.173901 0.49901,-1.878101 0,-1.225547 -0.48505,-2.151686 -1.45446,-2.777022 -0.665109,-0.417356 -1.649175,-0.861232 -2.951493,-1.330234 -2.077706,-0.808889 -3.31093,-1.356755 -3.698973,-1.6436 C 93.78329,54.536771 93.616857,54.393177 93.46,54.239486 92.323787,53.248441 91.755681,51.97055 91.755681,50.405117 c 0,-2.164248 0.886357,-3.820411 2.65977,-4.968488 1.108297,-0.704201 2.369437,-1.055953 3.782724,-1.055953 2.410605,0 4.197265,0.860535 5.361385,2.581604 0.6372,0.912879 0.98337,1.98279 1.03921,3.208336 h -3.11759 c -0.1661,-2.034435 -1.27439,-3.077825 -3.32488,-3.129471 -1.302318,0 -2.258468,0.534607 -2.867751,1.603819 -0.277891,0.445578 -0.422249,0.961474 -0.41596,1.486569 0,1.225546 0.693034,2.164946 2.078404,2.816802 0.554148,0.261022 1.981393,0.834712 4.281027,1.72107 2.63253,1.043389 3.94811,2.869146 3.94811,5.477271 0,2.451791 -0.96941,4.303371 -2.90891,5.555439 -1.13621,0.730024 -2.480393,1.095035 -4.031868,1.095035 -2.853793,0 -4.932197,-0.991045 -6.234514,-2.973136 -0.692336,-1.095036 -1.052463,-2.372926 -1.08038,-3.833672 z M 110.99938,44.88946 h 3.07574 v 3.677337 c 2.16075,-2.686292 5.13947,-4.082131 8.93546,-4.186121 3.57474,0 6.52554,1.186464 8.85311,3.560087 2.0784,2.112603 3.1169,4.681644 3.1169,7.707125 0,3.259981 -1.23252,5.972096 -3.69897,8.137042 -2.29964,2.008612 -5.08434,3.01222 -8.35409,3.01222 -3.87904,0 -6.82984,-1.39514 -8.85241,-4.185422 v 11.188346 h -3.07574 z m 11.88697,2.151685 c -2.77074,0 -5.05713,0.964525 -6.85776,2.89497 -1.4412,1.590558 -2.16145,3.442837 -2.16145,5.554741 0,2.79098 1.06642,5.034093 3.19996,6.729339 1.63522,1.27789 3.5887,1.917185 5.86043,1.917185 2.85379,0 5.15413,-0.991046 6.89963,-2.973137 1.35745,-1.565433 2.03653,-3.403753 2.03653,-5.516355 0,-2.79098 -1.06712,-5.020833 -3.20066,-6.690256 -1.05246,-0.834712 -2.27173,-1.395141 -3.6571,-1.681986 -0.69562,-0.156636 -1.40654,-0.235288 -2.11958,-0.234501 z m 29.59248,-2.660469 c 3.6578,0 6.62256,1.199724 8.89429,3.599171 1.93951,2.086779 2.90962,4.64256 2.90962,7.668041 0,3.468659 -1.24718,6.272202 -3.74085,8.411325 l -1.33023,0.977785 c -1.9116,1.1739 -4.07306,1.760152 -6.48367,1.760152 -3.79599,0 -6.85776,-1.212286 -9.18532,-3.638253 -1.99465,-2.086082 -2.99268,-4.655123 -2.99268,-7.707125 0,-3.285804 1.24718,-5.998617 3.74085,-8.137042 2.24451,-1.956268 4.97407,-2.934054 8.18799,-2.934054 z m 0,2.660469 c -2.85379,0 -5.14018,1.003608 -6.85776,3.012221 -0.99732,1.199723 -1.62126,2.581604 -1.87042,4.147037 -0.0551,0.441269 -0.0829,0.885533 -0.083,1.330234 0,2.920793 1.10829,5.20299 3.32489,6.845892 1.57939,1.1739 3.46377,1.760851 5.65244,1.760851 2.8538,0 5.09831,-1.03013 6.73353,-3.091086 1.19135,-1.512391 1.78668,-3.299065 1.78668,-5.359323 0,-2.869147 -1.05247,-5.138083 -3.15879,-6.807506 -1.21926,-0.965222 -2.64581,-1.551475 -4.28104,-1.760153 -0.41345,-0.0521 -0.82976,-0.07821 -1.24648,-0.07817 z m 18.24571,19.24792 V 44.88946 h 3.07573 v 3.051303 c 1.02524,-2.008612 2.81261,-3.169252 5.36142,-3.48192 0.3329,-0.02582 0.69303,-0.05234 1.08107,-0.07817 v 2.855887 c -4.29499,0.390835 -6.44249,2.581604 -6.44249,6.572307 v 12.480195 z m 18.66167,0 V 47.510147 h -4.90428 V 44.88946 h 4.90428 v -7.511707 h 3.07573 v 7.511707 h 5.11226 v 2.620687 h -5.11226 v 18.778918 z"
     fill="#fff"
     fill-rule="nonzero"
     id="path2"
     style="fill:#000000;stroke-width:0.697919"
     sodipodi:nodetypes="ccccccccccccccccccccscccccccscscsccccsccscscscsccccsccsccsccccscccccscsccccscsccccccccscscccccccscsccccccscscscccscsccscscscccccscsccccccccccsccccccccccccccc" />
  <path
     d="m 48.466134,104.32048 c -1.201183,0 -2.202618,0.94292 -2.202618,2.14881 0,1.09356 1.001435,2.03581 2.162938,2.03581 1.241536,0 2.282652,-0.90458 2.282652,-2.03581 0,-1.16823 -1.041116,-2.14881 -2.242972,-2.14881 z M 79.02637,80.230222 v 27.860588 h -4.886788 v -2.71442 c -1.895261,2.01026 -4.138232,3.07894 -6.728242,3.20403 h -0.601264 c -3.257185,0 -5.967582,-1.13055 -8.13052,-3.39302 -2.002196,-2.08559 -3.00363,-4.61171 -3.00363,-7.57768 0,-3.26727 1.161502,-5.99381 3.484508,-8.180961 2.109133,-1.985383 4.64601,-2.978074 7.609961,-2.978074 2.77698,0 5.006501,0.779491 6.688561,2.337129 0.08003,0.100883 0.160068,0.188988 0.240102,0.264314 V 80.230222 Z M 67.531055,91.05029 c -2.162265,0 -3.884679,0.81648 -5.166569,2.45012 -0.881047,1.13123 -1.32157,2.4259 -1.32157,3.88333 0,2.18648 0.840694,3.9331 2.523426,5.24055 1.174954,0.90458 2.536206,1.35721 4.0851,1.35721 2.109133,0 3.804644,-0.81714 5.086534,-2.45078 0.90795,-1.15613 1.361925,-2.48845 1.361925,-3.99632 0,-2.21137 -0.867596,-3.94589 -2.603461,-5.20222 -1.254988,-0.80437 -2.576559,-1.23145 -3.965385,-1.28189 z m 39.010885,-3.845671 v 20.886191 h -4.88611 v -2.71442 c -1.76209,1.88517 -3.8181,2.94039 -6.168,3.16637 -0.37394,0.0255 -0.77412,0.0377 -1.20186,0.0377 -3.49796,0 -6.31462,-1.16821 -8.45065,-3.50601 -1.8159,-2.01027 -2.72385,-4.46106 -2.72385,-7.35103 0,-3.46904 1.22808,-6.2588 3.68493,-8.369948 2.0829,-1.759404 4.6191,-2.639106 7.60996,-2.639106 2.91014,0 5.22037,0.955028 6.92866,2.865759 0.10693,0.125096 0.21388,0.263639 0.32081,0.41429 V 87.204659 Z M 94.96727,91.31393 c -2.34991,0 -4.12545,0.87971 -5.32731,2.63911 -0.77411,1.10568 -1.1615,2.40035 -1.1615,3.88333 0,2.33713 0.93485,4.05887 2.80388,5.16455 1.06801,0.65373 2.32301,0.98058 3.76496,0.98058 2.10914,0 3.72462,-0.62883 4.84644,-1.88516 0.98798,-1.25701 1.52199,-2.68956 1.60202,-4.29763 0,-2.38824 -0.90795,-4.18464 -2.72384,-5.39121 -1.09493,-0.72904 -2.36269,-1.09357 -3.80465,-1.09357 z m 18.34394,16.77688 V 91.76656 h -2.60346 v -4.561941 h 2.60346 v -6.974397 h 5.32664 v 6.974397 h 3.20405 v 4.561941 h -3.20405 v 16.32425 z m 35.36563,-20.886191 v 20.886191 h -4.8861 v -2.71442 c -1.76211,1.88517 -3.8181,2.94039 -6.16801,3.16637 -0.37395,0.0255 -0.77411,0.0377 -1.20186,0.0377 -3.49796,0 -6.31462,-1.16821 -8.45065,-3.50601 -1.8159,-2.01027 -2.72385,-4.46106 -2.72385,-7.35103 0,-3.46904 1.22809,-6.2588 3.68493,-8.369948 2.08291,-1.759404 4.61911,-2.639106 7.60996,-2.639106 2.91015,0 5.22037,0.955028 6.92933,2.865759 0.10627,0.125096 0.2132,0.263639 0.32015,0.41429 v -2.789756 z m -11.57467,4.109311 c -2.34991,0 -4.12545,0.87971 -5.32731,2.63911 -0.77411,1.10568 -1.1615,2.40035 -1.1615,3.88333 0,2.33713 0.93485,4.05887 2.80388,5.16455 1.06802,0.65373 2.32301,0.98058 3.76497,0.98058 2.10913,0 3.7246,-0.62883 4.84642,-1.88516 0.98799,-1.25701 1.522,-2.68956 1.60203,-4.29763 0,-2.38824 -0.90794,-4.18464 -2.72385,-5.39121 -1.09491,-0.72904 -2.36268,-1.09357 -3.80464,-1.09357 z"
     style="fill:#000000;fill-rule:nonzero;stroke-width:0.672555"
     id="path343"
     sodipodi:nodetypes="ssssscccccscscsccccccscscscccccccscscsccccscscscccsccccccccccccccccccscscsccccscscscccs" />
  <path
     d="m 22.57247,143.32771 c -1.236502,0 -2.266806,0.9701 -2.266806,2.21076 0,1.1251 1.030304,2.09451 2.22529,2.09451 1.277327,0 2.349147,-0.93066 2.349147,-2.09451 0,-1.2019 -1.07182,-2.21076 -2.307631,-2.21076 z m 27.155315,-17.60926 h 5.233167 v 17.41552 c 0,3.93023 -0.76944,6.83916 -2.307631,8.72678 -2.197612,2.61208 -5.370863,3.91778 -9.519063,3.91778 -4.367546,0 -7.71932,-1.37074 -10.053936,-4.11152 -0.695923,-0.81542 -1.26551,-1.73068 -1.689726,-2.71519 h 6.221954 c 1.318844,1.37074 2.898551,2.12081 4.739119,2.24951 0.30238,0.0263 0.631745,0.0387 0.988788,0.0387 4.065859,0 6.194968,-2.28825 6.387328,-6.86477 -1.758228,1.93883 -3.791157,3.02518 -6.098788,3.25767 -0.465145,0.0532 -0.93301,0.0791 -1.401185,0.0775 -3.516456,0 -6.345812,-1.22819 -8.488069,-3.68459 -1.813583,-2.09451 -2.720029,-4.66716 -2.720029,-7.71863 0,-3.43896 1.222664,-6.23164 3.667299,-8.37805 2.088286,-1.81012 4.615262,-2.71518 7.582316,-2.71518 3.296417,0 5.78257,1.07321 7.458456,3.21961 z m -6.840551,4.22777 c -2.499992,0 -4.312883,0.97011 -5.439366,2.90893 -0.604067,1.06006 -0.906446,2.28895 -0.906446,3.68529 0,2.66329 1.016465,4.55091 3.049394,5.66287 0.961109,0.51687 2.087593,0.77567 3.378759,0.77567 2.582333,0 4.45058,-0.95697 5.604049,-2.87019 0.604759,-1.00885 0.906446,-2.1983 0.906446,-3.56835 0,-2.53459 -0.96111,-4.39591 -2.88402,-5.58537 -0.934123,-0.59507 -2.005252,-0.93135 -3.214076,-1.00885 z m 29.462946,-4.7322 c 3.571119,0 6.53817,1.17699 8.90047,3.5296 2.19761,2.17271 3.29711,4.79724 3.29711,7.87432 0,3.02517 -1.20883,5.63657 -3.62648,7.83487 -2.38997,2.17201 -5.233165,3.25766 -8.529583,3.25766 -3.379452,0 -6.263471,-1.1244 -8.653444,-3.3739 -2.307631,-2.19831 -3.461792,-4.82285 -3.461792,-7.87432 0,-3.12828 1.208825,-5.79156 3.626475,-7.98987 2.362295,-2.17201 5.178504,-3.25836 8.447244,-3.25836 z m 0.04152,4.7322 c -2.060607,0 -3.764171,0.78881 -5.110001,2.36644 -0.988787,1.18946 -1.483527,2.54636 -1.483527,4.07209 0,2.1983 0.865622,3.95653 2.596172,5.27538 1.181147,0.87877 2.527668,1.31885 4.038181,1.31885 2.11527,0 3.831982,-0.81443 5.150826,-2.44395 0.961799,-1.18945 1.442699,-2.54705 1.442699,-4.07278 0,-2.09451 -0.83794,-3.80084 -2.513828,-5.11969 -1.208824,-0.93067 -2.582332,-1.39634 -4.120522,-1.39634 z m 37.62165,-4.22777 v 21.48829 h -5.06848 v -2.05576 c -1.59356,1.47384 -3.3241,2.3014 -5.19235,2.482 l -1.35967,0.0775 c -3.07638,0 -5.39785,-1.06005 -6.96371,-3.18017 -1.04415,-1.44824 -1.60739,-3.41335 -1.68973,-5.89535 -0.029,-0.46487 -0.0426,-0.93057 -0.0408,-1.39634 v -11.52017 h 5.48019 v 10.51131 c 0,2.71519 0.37088,4.51216 1.11265,5.39162 0.71408,0.90507 1.7859,1.3576 3.21407,1.3576 1.95059,0 3.33794,-0.65943 4.16204,-1.97827 0.57708,-0.82756 0.86493,-2.54704 0.86493,-5.15844 v -10.12382 z m 13.47421,21.48829 -9.18901,-21.48829 h 6.09878 l 5.27469,14.23465 5.19165,-14.23465 h 6.18113 l -9.18901,21.48829 z m 16.63224,-3.87764 c -1.16316,0 -2.13257,0.96941 -2.13257,2.21006 0,1.12441 0.96941,2.09382 2.09381,2.09382 1.20191,0 2.20938,-0.93066 2.20938,-2.09382 0,-1.2019 -1.00747,-2.21006 -2.17062,-2.21006 z m 9.27134,-14.98334 h 4.26929 l -4.31634,19.98677 c -1.12579,5.16121 -2.67436,7.74146 -4.69137,7.74146 -0.56324,0 -0.93828,-0.32867 -0.93828,-0.79781 0,-0.14047 0.0463,-0.23456 0.18752,-0.46914 0.18752,-0.32798 0.23457,-0.51618 0.23457,-0.79712 0,-1.03238 -0.84487,-1.83018 -1.87655,-1.83018 -0.98533,0 -1.73609,0.89122 -1.73609,2.0177 0,1.59494 1.64198,2.86188 3.70605,2.86188 4.26998,0 7.601,-4.69207 9.66575,-13.46521 l 3.51854,-15.24835 h 5.20756 l 0.28162,-1.50152 h -5.11415 c 1.40811,-7.50689 3.23761,-10.83791 5.86491,-10.83791 0.65665,0 1.03238,0.23457 1.03238,0.60961 0,0.0941 -0.0471,0.23456 -0.18751,0.46913 -0.23458,0.37572 -0.28162,0.61029 -0.28162,0.98532 0,1.12649 0.7037,1.87656 1.73608,1.87656 1.07874,0 2.01701,-0.89122 2.01701,-1.9236 0,-1.7354 -8.25765,-2.01702 -9.99304,0.1882 -1.40811,1.87656 -2.39274,4.03473 -3.8472,8.63269 h -4.41045 z m 19.14262,18.86098 c 2.58026,-8.21059 3.37806,-10.1342 5.53623,-13.74684 1.64199,-2.67435 2.95599,-4.12882 3.7538,-4.12882 0.32798,0 0.56254,0.18752 0.79712,0.65666 0.37572,0.79781 0.75075,1.03237 1.68903,1.03237 1.40811,0 2.20522,-0.84485 2.20522,-2.34637 0,-1.50083 -0.89122,-2.43979 -2.20522,-2.43979 -1.07874,0 -2.39274,0.7044 -3.61264,2.0177 -1.97066,1.97066 -3.94061,4.83254 -4.69137,6.66272 l -0.70371,1.7354 2.62731,-10.32172 -0.14116,-0.0941 c -3.42511,0.61029 -3.94061,0.7044 -7.36574,1.26694 v 0.79781 c 1.0317,-0.18752 1.2199,-0.23456 1.59494,-0.23456 1.03237,0 1.64198,0.46913 1.64198,1.3133 0,0.6103 -0.37503,2.5339 -0.75076,3.94131 l -3.98767,13.88799 z"
     style="fill:#000000;fill-rule:nonzero;stroke-width:0.691944"
     id="path366" />
</svg>
