<?xml version="1.0" encoding="UTF-8" standalone="no"?>
<!-- Created with Inkscape (http://www.inkscape.org/) -->

<svg
   width="210mm"
   height="210mm"
   viewBox="0 0 210 210"
   version="1.1"
   id="svg5"
   inkscape:version="1.3 (1:1.3+202307231459+0e150ed6c4)"
   sodipodi:docname="walking.svg"
   xmlns:inkscape="http://www.inkscape.org/namespaces/inkscape"
   xmlns:sodipodi="http://sodipodi.sourceforge.net/DTD/sodipodi-0.dtd"
   xmlns="http://www.w3.org/2000/svg"
   xmlns:svg="http://www.w3.org/2000/svg">
  <sodipodi:namedview
     id="namedview7"
     pagecolor="#ffffff"
     bordercolor="#666666"
     borderopacity="1.0"
     inkscape:showpageshadow="2"
     inkscape:pageopacity="0.0"
     inkscape:pagecheckerboard="0"
     inkscape:deskcolor="#d1d1d1"
     inkscape:document-units="mm"
     showgrid="false"
     inkscape:zoom="0.39351421"
     inkscape:cx="376.09824"
     inkscape:cy="426.92232"
     inkscape:window-width="1920"
     inkscape:window-height="1055"
     inkscape:window-x="0"
     inkscape:window-y="0"
     inkscape:window-maximized="1"
     inkscape:current-layer="line" />
  <defs
     id="defs2" />
  <g
     inkscape:label="Layer 1"
     inkscape:groupmode="layer"
     id="layer1">
    <circle
       style="fill:#2988e6;fill-opacity:1;fill-rule:evenodd;stroke-width:10.2832"
       id="path2"
       cx="105.0965"
       cy="105.10453"
       r="103.04061" />
    <g
       id="color"
       transform="matrix(2.5273696,0,0,2.5273696,16.39048,11.450349)"
       style="fill:#ffffff;fill-opacity:1" />
    <g
       id="hair"
       transform="matrix(2.5273696,0,0,2.5273696,16.39048,11.450349)"
       style="fill:#ffffff;fill-opacity:1" />
    <g
       id="skin"
       transform="matrix(2.5273696,0,0,2.5273696,16.39048,11.450349)"
       style="fill:#ffffff;fill-opacity:1">
      <path
         fill="#fcea2b"
         d="m 31.19,19.48 -4.872,42.77 1.689,2.021 2.016,-2.205 3.646,-15.09 8.79,14.17 3.414,-0.8954 -6.826,-14.91 -0.7835,-26.22 -5.001,-2.252 z"
         id="path1"
         style="fill:#ffffff;fill-opacity:1" />
    </g>
    <g
       id="skin-shadow"
       transform="matrix(2.5273696,0,0,2.5273696,16.39048,11.450349)"
       style="fill:#ffffff;fill-opacity:1" />
    <g
       id="line"
       transform="matrix(2.5273696,0,0,2.5273696,16.39048,11.450349)"
       style="fill:#ffffff;fill-opacity:1">
      <ellipse
         cx="34.137901"
         cy="9.743145"
         rx="3.5547748"
         ry="3.5771406"
         fill="none"
         stroke="#000000"
         stroke-miterlimit="10"
         stroke-width="2.63121"
         id="ellipse1"
         style="fill:#ffffff;fill-opacity:1;stroke:none" />
      <path
         fill="none"
         stroke="#000000"
         stroke-linecap="round"
         stroke-linejoin="round"
         stroke-miterlimit="10"
         stroke-width="2"
         d="m 26.32,62.25 c -0.09673,0.992 0.5172,1.804 1.365,1.804 0.8479,0 1.756,-0.7868 2.016,-1.749 l 4.941,-18.23 c 0.2604,-0.9619 0.9394,-2.417 1.508,-3.233 l 1.981,-2.845 c 0.5682,-0.8159 0.9939,-2.299 0.9464,-3.295 l -0.4498,-9.289 -0.2873,-4.827 c -0.1187,-1.99 -1.837,-3.656 -3.819,-3.656 h -0.04666 c -1.982,0 -3.783,1.659 -4.005,3.64 l -0.4987,4.506 z"
         id="path2-3"
         style="fill:#ffffff;fill-opacity:1;stroke:none" />
      <path
         fill="none"
         stroke="#000000"
         stroke-linecap="round"
         stroke-linejoin="round"
         stroke-miterlimit="10"
         stroke-width="2"
         d="m 38.2,37.9 1.64,10.44 c 0.1539,0.985 0.7019,2.488 1.216,3.339 l 4.345,7.196 c 0.5137,0.8514 0.3272,1.957 -0.416,2.455 -0.7432,0.498 -1.832,0.2505 -2.421,-0.5522 l -4.745,-6.466 c -0.5884,-0.8027 -1.364,-2.219 -1.724,-3.147 l -1.984,-5.123"
         id="path3"
         style="fill:#ffffff;fill-opacity:1;stroke:none" />
      <path
         fill="none"
         stroke="#000000"
         stroke-linecap="round"
         stroke-linejoin="round"
         stroke-miterlimit="10"
         stroke-width="2"
         d="m 34.62,21.46 0.04927,5.664 c 0.0087,0.9969 -0.1768,2.604 -0.4117,3.573 l -2.562,10.55"
         id="path4"
         style="fill:#ffffff;fill-opacity:1;stroke:#2988e6;stroke-opacity:1" />
    </g>
  </g>
</svg>
