<?xml version="1.0" encoding="UTF-8" standalone="no"?>
<!-- Created with Inkscape (http://www.inkscape.org/) -->

<svg
   width="210mm"
   height="210mm"
   viewBox="0 0 210 210"
   version="1.1"
   id="svg5"
   inkscape:version="1.2.2 (b0a8486541, 2022-12-01)"
   sodipodi:docname="walk-or-cycle.svg"
   xmlns:inkscape="http://www.inkscape.org/namespaces/inkscape"
   xmlns:sodipodi="http://sodipodi.sourceforge.net/DTD/sodipodi-0.dtd"
   xmlns="http://www.w3.org/2000/svg"
   xmlns:svg="http://www.w3.org/2000/svg">
  <sodipodi:namedview
     id="namedview7"
     pagecolor="#ffffff"
     bordercolor="#666666"
     borderopacity="1.0"
     inkscape:showpageshadow="2"
     inkscape:pageopacity="0.0"
     inkscape:pagecheckerboard="0"
     inkscape:deskcolor="#d1d1d1"
     inkscape:document-units="mm"
     showgrid="false"
     inkscape:zoom="0.43401471"
     inkscape:cx="312.2014"
     inkscape:cy="465.42201"
     inkscape:window-width="1920"
     inkscape:window-height="1055"
     inkscape:window-x="0"
     inkscape:window-y="0"
     inkscape:window-maximized="1"
     inkscape:current-layer="layer1" />
  <defs
     id="defs2" />
  <g
     inkscape:label="Layer 1"
     inkscape:groupmode="layer"
     id="layer1">
    <g
       id="g1"
       transform="matrix(-1.0581044,0,0,1.0581044,226.4656,-0.9307007)"
       style="stroke:#ffffff;stroke-opacity:1">
      <g
         id="line"
         transform="matrix(3.2565449,0,0,3.2565449,-11.856334,-14.05166)"
         style="fill:#000000;fill-opacity:1;stroke:#000000;stroke-opacity:1">
        <g
           id="g9426"
           style="fill:#000000;fill-opacity:1;stroke:#000000;stroke-opacity:1"
           transform="matrix(0.89070796,0,0,0.89070796,5.433563,5.1761121)">
          <g
             id="g2"
             style="fill:#000000;fill-opacity:1;stroke:#000000;stroke-opacity:1">
            <path
               d="m 31,45 a 0.9448,0.9448 0 0 0 -1,1 9.2,9.2 0 1 1 -9.2,-9.2 v 0 l 0.2,-2 H 20.8 A 11.2,11.2 0 1 0 32,46 0.9448,0.9448 0 0 0 31,45 Z"
               id="path9416"
               style="fill:#000000;fill-opacity:1;stroke:#000000;stroke-opacity:1" />
          </g>
          <line
             x1="23"
             x2="27"
             y1="22"
             y2="22"
             fill="none"
             stroke="#000000"
             stroke-linecap="round"
             stroke-linejoin="round"
             stroke-width="2"
             id="line9422"
             style="fill:#000000;fill-opacity:1;stroke:#000000;stroke-opacity:1" />
        </g>
        <g
           id="g9440"
           style="fill:#000000;fill-opacity:1;stroke:#000000;stroke-opacity:1"
           transform="matrix(0.89070796,0,0,0.89070796,5.433563,5.1761121)">
          <line
             x1="21.1"
             x2="22.799999"
             y1="46"
             y2="24.6"
             fill="none"
             stroke="#000000"
             stroke-linecap="round"
             stroke-linejoin="round"
             stroke-width="2"
             id="line9428"
             style="fill:#000000;fill-opacity:1;stroke:#000000;stroke-opacity:1" />
          <line
             x1="36"
             x2="23"
             y1="45"
             y2="30"
             fill="none"
             stroke="#000000"
             stroke-linecap="round"
             stroke-linejoin="round"
             stroke-width="2"
             id="line9430"
             style="fill:#000000;fill-opacity:1;stroke:#000000;stroke-opacity:1" />
          <line
             x1="23"
             x2="44"
             y1="30"
             y2="30"
             fill="none"
             stroke="#000000"
             stroke-linecap="round"
             stroke-linejoin="round"
             stroke-width="2"
             id="line9434"
             style="fill:#000000;fill-opacity:1;stroke:#000000;stroke-opacity:1" />
          <line
             x1="46"
             x2="36"
             y1="28.4"
             y2="45"
             fill="none"
             stroke="#000000"
             stroke-linecap="round"
             stroke-linejoin="round"
             stroke-width="2"
             id="line9436"
             style="fill:#000000;fill-opacity:1;stroke:#000000;stroke-opacity:1" />
        </g>
      </g>
      <g
         id="g10809"
         style="stroke:#000000;stroke-opacity:1"
         transform="matrix(2.9006305,0,0,2.9006305,5.8383077,2.8045815)">
        <g
           id="g10800"
           style="stroke:#000000;stroke-opacity:1">
          <line
             x1="21.1"
             x2="22.799999"
             y1="46"
             y2="24.6"
             fill="none"
             stroke="#ea5a47"
             stroke-linecap="round"
             stroke-linejoin="round"
             stroke-width="2.1"
             id="line9444"
             style="stroke:#000000;stroke-opacity:1" />
          <line
             x1="36"
             x2="23"
             y1="45"
             y2="30"
             fill="none"
             stroke="#ea5a47"
             stroke-linecap="round"
             stroke-linejoin="round"
             stroke-width="2.1"
             id="line9446"
             style="stroke:#000000;stroke-opacity:1" />
          <line
             x1="23"
             x2="44"
             y1="30"
             y2="30"
             fill="none"
             stroke="#ea5a47"
             stroke-linecap="round"
             stroke-linejoin="round"
             stroke-width="2.1"
             id="line9450"
             style="stroke:#000000;stroke-opacity:1" />
        </g>
      </g>
    </g>
    <g
       id="g9357"
       transform="matrix(0.33912363,0,0,0.33912363,-55.001497,-15.136434)"
       style="stroke:#ffffff;stroke-width:7.28517;stroke-dasharray:none;stroke-opacity:1">
      <g
         id="g7695"
         transform="translate(79.594292,19.948307)">
        <circle
           id="path9347"
           style="fill:#000000;stroke:#ffffff;stroke-width:7.28517;stroke-dasharray:none;stroke-opacity:1"
           cx="302.6593"
           cy="167.29785"
           r="37.123108" />
        <path
           id="path9349"
           d="m 234.34068,283.87255 c 0,0 -30.339,157.53 -36.871,168.19 -5.5865,9.1154 -49.18,80.642 -49.18,80.642 -9.3065,15.26 -0.48739,26.17 9.3724,31.862 8.3938,4.8456 26.437,3.6458 32.403,-6.5301 0,0 48.366,-75.267 53.643,-91.5 3.6534,-11.238 12.143,-57.857 12.143,-57.857 0,0 46.996,48.47 52.143,57.143 6.4876,10.933 18.571,87.143 18.571,87.143 2.8898,13.56 15.822,17.982 29.286,15.714 10.633,-1.7908 21.753,-8.9851 19.286,-22.143 0,0 -10.746,-88.36 -19.286,-102.86 -10.191,-17.302 -65,-76.429 -65,-76.429 l 15.714,-70 c 0,0 10.086,20.446 17.143,29.286 8.0255,10.053 58.571,39.286 58.571,39.286 4.6363,3.1097 15.133,1.3962 19.286,-6.4286 3.3332,-6.2806 3.1763,-16.454 -4.2857,-21.429 0,0 -41.655,-26.151 -51.429,-34.286 -10.87,-9.03 -32.86,-69.27 -32.86,-69.27 -6.8208,-9.3864 -16.151,-19.742 -32.143,-20 -16.119,-0.26028 -24.187,8.6196 -31.429,13.571 0,0 -61.747,45.105 -67.857,54.286 -6.1469,9.236 -17.143,78.571 -17.143,78.571 -1.7236,7.9 1.3621,14.253 10.714,16.429 11.443,2.662 19.645,-4.4634 20.714,-10 0,0 7.0508,-54.765 12.143,-62.857 6.7728,-8.98164 16.70492,-15.03071 26.3513,-20.5333 z"
           sodipodi:nodetypes="cssssscsssssccssssscscsssscc"
           style="fill:#000000;stroke:#ffffff;stroke-width:7.28517;stroke-dasharray:none;stroke-opacity:1"
           inkscape:connector-curvature="0" />
      </g>
    </g>
  </g>
</svg>
