<?xml version="1.0" encoding="UTF-8" standalone="no"?>
<svg
   width="600.623"
   height="441.906"
   version="1.0"
   id="svg154"
   sodipodi:docname="web.svg"
   inkscape:version="1.2.2 (b0a8486541, 2022-12-01)"
   xmlns:inkscape="http://www.inkscape.org/namespaces/inkscape"
   xmlns:sodipodi="http://sodipodi.sourceforge.net/DTD/sodipodi-0.dtd"
   xmlns="http://www.w3.org/2000/svg"
   xmlns:svg="http://www.w3.org/2000/svg">
  <defs
     id="defs158" />
  <sodipodi:namedview
     id="namedview156"
     pagecolor="#ffffff"
     bordercolor="#000000"
     borderopacity="0.25"
     inkscape:showpageshadow="2"
     inkscape:pageopacity="0.0"
     inkscape:pagecheckerboard="0"
     inkscape:deskcolor="#d1d1d1"
     showgrid="false"
     inkscape:zoom="0.70506084"
     inkscape:cx="160.97902"
     inkscape:cy="282.95431"
     inkscape:window-width="1920"
     inkscape:window-height="1055"
     inkscape:window-x="0"
     inkscape:window-y="0"
     inkscape:window-maximized="1"
     inkscape:current-layer="svg154" />
  <path
     fill="#00844a"
     stroke="#000"
     stroke-width="5.021"
     d="M92.865 2.532l85.05-.014 70.041 260.922 89.44-260.855 51.745-.026 84.8 260.678 79.3-260.723 44.872-.004-122.066 356.475-50.175.057-83.407-256.351-92.39 256.279-50.174.03L92.865 2.532z"
     id="path148"
     style="fill:#185abd;fill-opacity:1;stroke:#ffffff;stroke-opacity:1;stroke-width:0;stroke-dasharray:none" />
  <path
     fill="#cee7ce"
     stroke="#000"
     stroke-width="5.021"
     d="M47.777 42.748l85.05-.013 70.041 260.922 89.44-260.855 51.745-.027 84.8 260.679 79.3-260.723 44.872-.004-122.066 356.475-50.175.057-83.407-256.352-92.39 256.28-50.174.03L47.777 42.748z"
     id="path150"
     style="fill:#2988e6;fill-opacity:1;stroke:#ffffff;stroke-opacity:1;stroke-width:0;stroke-dasharray:none" />
  <path
     fill="#fff"
     stroke="#000"
     stroke-width="5.021"
     d="M2.51 82.885l85.05-.014 70.042 260.923 89.44-260.856 51.744-.026 84.8 260.679 79.3-260.723 44.872-.004-122.066 356.474-50.175.058-83.407-256.352-92.39 256.279-50.174.03L2.51 82.885z"
     id="path152"
     style="fill:#57bff5;fill-opacity:1;stroke:#ffffff;stroke-opacity:1;stroke-width:0;stroke-dasharray:none" />
</svg>
