<svg xmlns="http://www.w3.org/2000/svg" width="600.623" height="441.906" version="1.0"><path fill="#00844a" stroke="#000" stroke-width="5.021" d="M92.865 2.532l85.05-.014 70.041 260.922 89.44-260.855 51.745-.026 84.8 260.678 79.3-260.723 44.872-.004-122.066 356.475-50.175.057-83.407-256.351-92.39 256.279-50.174.03L92.865 2.532z"/><path fill="#cee7ce" stroke="#000" stroke-width="5.021" d="M47.777 42.748l85.05-.013 70.041 260.922 89.44-260.855 51.745-.027 84.8 260.679 79.3-260.723 44.872-.004-122.066 356.475-50.175.057-83.407-256.352-92.39 256.28-50.174.03L47.777 42.748z"/><path fill="#fff" stroke="#000" stroke-width="5.021" d="M2.51 82.885l85.05-.014 70.042 260.923 89.44-260.856 51.744-.026 84.8 260.679 79.3-260.723 44.872-.004-122.066 356.474-50.175.058-83.407-256.352-92.39 256.279-50.174.03L2.51 82.885z"/></svg>