<?xml version="1.0" encoding="utf-8"?>
<!-- Generator: Adobe Illustrator 25.2.1, SVG Export Plug-In . SVG Version: 6.00 Build 0)  -->
<svg version="1.1" id="Calque_1" xmlns="http://www.w3.org/2000/svg" xmlns:xlink="http://www.w3.org/1999/xlink" x="0px" y="0px"
	 viewBox="0 0 328.4 113" style="enable-background:new 0 0 328.4 113;" xml:space="preserve">
<style type="text/css">
	.st0{fill:#9E785C;}
	.st1{fill:#00B1C0;}
</style>
<g>
	<g>
		<path class="st0" d="M70.8,30.3c-1.7,0-2.9-0.5-3.7-1.5c-0.8-1-1.1-2.2-0.9-3.6c0.2-1.4,0.8-2.6,1.9-3.5s2.5-1.5,4.2-1.5
			c1.7,0,2.9,0.5,3.7,1.5c0.8,1,1.1,2.2,0.9,3.5c-0.2,1.4-0.8,2.6-1.9,3.6C73.9,29.8,72.5,30.3,70.8,30.3 M68.8,74.7h-8.4l5.4-38.5
			h8.4L68.8,74.7z"/>
		<path class="st0" d="M88.7,74.7h-8.4l5.4-38.5H93l0.4,5.4c0.6-0.7,1.4-1.4,2.4-2.2c1-0.7,2-1.4,3.2-2c1.2-0.6,2.5-1.1,3.9-1.5
			c1.4-0.4,2.8-0.6,4.4-0.6c4,0,6.9,1.3,8.8,4c1.9,2.7,2.5,6.4,1.8,11.3l-3.4,24.1h-8.4l3.4-23.9c0.4-2.7,0.1-4.7-0.8-6.2
			c-0.9-1.5-2.4-2.2-4.7-2.2c-2.2,0-4.4,0.6-6.4,1.7c-2,1.1-3.7,2.5-5.2,4.1L88.7,74.7z"/>
		<path class="st0" d="M146,41.7c-3.2,0-5.7,1.1-7.7,3.2c-1.9,2.1-3.3,4.9-4,8.4h18l0.2-1.4c0.5-3.2,0.2-5.8-0.8-7.5
			C150.7,42.5,148.8,41.7,146,41.7 M133.8,58.7c0,3.5,0.9,6.1,2.7,7.8c1.8,1.7,4.3,2.5,7.5,2.5c1.7,0,3.4-0.2,5.2-0.6
			c1.8-0.4,3.5-0.9,5.1-1.7l1.1,6.1c-3.7,1.9-8.1,2.8-13.1,2.8c-3.2,0-5.9-0.5-8.2-1.4c-2.3-0.9-4.1-2.3-5.4-4
			c-1.3-1.8-2.2-3.9-2.7-6.4c-0.4-2.5-0.5-5.3,0-8.4c0.4-2.8,1.1-5.4,2.1-7.8c1-2.4,2.4-4.6,4.1-6.4c1.7-1.8,3.8-3.3,6.2-4.3
			c2.4-1,5.2-1.6,8.4-1.6c2.6,0,4.8,0.4,6.7,1.2c1.9,0.8,3.4,1.9,4.5,3.4c1.2,1.4,1.9,3.2,2.3,5.2c0.4,2,0.4,4.2,0.1,6.6
			c-0.2,1.3-0.4,2.5-0.8,3.8c-0.4,1.2-0.7,2.3-1.1,3.3H133.8z"/>
		<path class="st0" d="M173.9,55.4c-0.6,4-0.2,7.3,1.1,9.8c1.3,2.5,3.7,3.7,7.3,3.7c3.6,0,6.4-1.2,8.4-3.7c2-2.5,3.3-5.8,3.9-9.8
			c0.6-4,0.2-7.2-1.1-9.7c-1.3-2.5-3.8-3.7-7.3-3.7c-3.6,0-6.3,1.2-8.3,3.7C175.8,48.2,174.5,51.5,173.9,55.4 M165.5,55.4
			c0.4-2.8,1.1-5.4,2.3-7.8c1.1-2.4,2.6-4.6,4.4-6.4c1.8-1.8,3.9-3.3,6.4-4.3c2.5-1,5.3-1.6,8.5-1.6c3.2,0,5.9,0.5,8.1,1.6
			c2.2,1,3.9,2.5,5.3,4.3c1.3,1.8,2.2,4,2.6,6.4c0.4,2.4,0.4,5.1,0,7.8c-0.4,2.8-1.1,5.4-2.2,7.9c-1.1,2.4-2.5,4.6-4.4,6.4
			c-1.8,1.8-4,3.3-6.5,4.3c-2.5,1-5.3,1.6-8.5,1.6c-3.2,0-5.9-0.5-8.1-1.6c-2.2-1-3.9-2.5-5.2-4.3c-1.3-1.8-2.1-4-2.6-6.4
			C165.1,60.9,165.1,58.3,165.5,55.4"/>
		<path class="st0" d="M216.5,64.8c-0.4,2.7-0.2,4.6,0.5,5.7c0.7,1.1,2.1,1.6,4.2,1.6c1.2,0,2.4-0.2,3.5-0.6c1.1-0.4,2.1-0.8,3-1.4
			l0.7,2.6c-1,0.6-2.1,1.2-3.5,1.7c-1.3,0.5-2.8,0.8-4.5,0.8c-3,0-5.1-0.8-6.4-2.4c-1.3-1.6-1.6-4.3-1.1-8l3.6-25.6h-6.7l0.4-3h6.6
			l2.8-11h2.4l-1.5,11h12.2l-0.4,3h-12.2L216.5,64.8z"/>
		<path class="st0" d="M246.4,20.4c1,0,1.8,0.3,2.2,0.9c0.5,0.6,0.7,1.3,0.5,2.2c-0.1,0.8-0.5,1.6-1.1,2.2c-0.6,0.6-1.5,0.9-2.5,0.9
			c-1,0-1.8-0.3-2.2-0.9c-0.5-0.6-0.7-1.3-0.5-2.2c0.1-0.8,0.5-1.6,1.1-2.2C244.5,20.7,245.4,20.4,246.4,20.4 M240.6,74.7h-3.7
			l5.4-38.5h3.7L240.6,74.7z"/>
		<path class="st0" d="M257.6,74.7h-3.7l5.4-38.5h2.7l-0.1,7.6c0.7-1,1.6-1.9,2.6-2.9c1-1,2.2-1.9,3.4-2.7c1.3-0.8,2.6-1.4,4-1.9
			c1.4-0.5,2.8-0.7,4.3-0.7c2.9,0,5,0.8,6.2,2.4c1.3,1.6,2,3.7,2.2,6.4c1.7-2.4,3.9-4.5,6.6-6.2c2.7-1.7,5.4-2.6,8.3-2.6
			c3.6,0,6,1.2,7.2,3.7c1.2,2.4,1.5,5.7,1,9.8l-3.6,25.7h-3.7l3.6-25.7c0.4-3.1,0.3-5.6-0.3-7.5c-0.6-1.8-2.4-2.7-5.1-2.7
			c-2.4,0-4.9,0.8-7.4,2.4c-2.5,1.6-4.7,3.8-6.6,6.4c0,0.3-0.1,0.5-0.1,0.7c0,0.2,0,0.4-0.1,0.7l-3.6,25.7h-3.7l3.6-25.7
			c0.4-3.1,0.3-5.6-0.3-7.5c-0.6-1.8-2.4-2.7-5.1-2.7c-1.3,0-2.6,0.2-3.9,0.7c-1.3,0.5-2.5,1.1-3.7,2c-1.2,0.8-2.4,1.8-3.4,2.9
			c-1.1,1.1-2.1,2.2-2.9,3.4L257.6,74.7z"/>
	</g>
	<polygon class="st1" points="132.2,28.6 159.4,28.6 160.4,20.5 133.2,20.5 	"/>
	<polygon class="st0" points="29.8,62.4 35.7,20.1 27.3,20.1 21.4,62.4 	"/>
	<polygon class="st1" points="19.7,74.7 50.5,74.7 51.5,66.5 20.7,66.5 	"/>
	<polygon class="st0" points="126.4,85.9 128.2,85.9 129.1,93.6 129.1,93.6 133.1,85.9 134.9,85.9 129.6,95.6 127.7,95.6 	"/>
	<polygon class="st0" points="136.6,85.9 138.3,85.9 136.3,95.6 134.6,95.6 	"/>
	<polygon class="st0" points="140,85.9 141.7,85.9 142.6,93.6 142.7,93.6 146.7,85.9 148.5,85.9 143.2,95.6 141.3,95.6 	"/>
	<g>
		<path class="st0" d="M150.3,91.6c0,0.9,0.2,1.6,0.7,2.1c0.5,0.5,1.1,0.8,2,0.8c0.6,0,1.1-0.1,1.5-0.4c0.4-0.3,0.8-0.6,1.1-1
			c0.3-0.4,0.5-0.9,0.6-1.4c0.1-0.5,0.2-1.1,0.2-1.6c0-0.9-0.2-1.6-0.7-2.1c-0.4-0.5-1.1-0.8-1.9-0.8c-0.6,0-1.1,0.1-1.5,0.4
			c-0.4,0.3-0.8,0.6-1.1,1c-0.3,0.4-0.5,0.9-0.6,1.4C150.3,90.5,150.3,91,150.3,91.6 M148.6,91.6c0-1,0.2-1.9,0.5-2.6
			c0.3-0.7,0.7-1.4,1.2-1.8c0.5-0.5,1.1-0.8,1.7-1.1c0.6-0.2,1.2-0.4,1.9-0.4c0.6,0,1.2,0.1,1.7,0.3c0.5,0.2,1,0.5,1.3,0.9
			c0.4,0.4,0.7,0.8,0.9,1.3c0.2,0.5,0.3,1.1,0.3,1.7c0,1-0.1,1.9-0.4,2.7c-0.3,0.7-0.7,1.4-1.2,1.8c-0.5,0.5-1,0.8-1.6,1.1
			c-0.6,0.2-1.2,0.4-1.9,0.4c-0.7,0-1.3-0.1-1.8-0.3c-0.5-0.2-1-0.5-1.3-0.9c-0.4-0.4-0.6-0.8-0.8-1.3
			C148.7,92.8,148.6,92.2,148.6,91.6"/>
	</g>
	<polygon class="st0" points="161.2,85.9 163.1,85.9 166.1,93.2 166.1,93.2 167.6,85.9 169.3,85.9 167.3,95.6 165.4,95.6 
		162.4,88.4 162.4,88.4 160.9,95.6 159.2,95.6 	"/>
	<g>
		<path class="st0" d="M171.6,92.4c0,0.8,0.1,1.3,0.6,1.6c0.4,0.3,1,0.5,1.7,0.5c0.2,0,0.5,0,0.7-0.1s0.5-0.1,0.7-0.3
			c0.2-0.1,0.4-0.3,0.5-0.5c0.1-0.2,0.2-0.4,0.2-0.7c0-0.3-0.1-0.5-0.2-0.7c-0.1-0.2-0.3-0.3-0.5-0.5c-0.2-0.1-0.5-0.2-0.7-0.3
			c-0.3-0.1-0.6-0.2-0.9-0.3c-0.2-0.1-0.5-0.1-0.8-0.2c-0.3-0.1-0.6-0.2-0.9-0.4c-0.3-0.2-0.5-0.4-0.7-0.7c-0.2-0.3-0.3-0.7-0.3-1.1
			c0-0.4,0.1-0.8,0.2-1.2c0.2-0.4,0.4-0.7,0.7-1c0.3-0.3,0.7-0.5,1.1-0.6c0.4-0.1,1-0.2,1.5-0.2c0.5,0,1,0.1,1.4,0.2
			c0.4,0.1,0.8,0.3,1.2,0.5c0.3,0.2,0.6,0.6,0.8,1c0.2,0.4,0.3,0.9,0.2,1.4h-1.6c0-0.6-0.2-1-0.5-1.3c-0.3-0.3-0.8-0.4-1.5-0.4
			c-0.1,0-0.3,0-0.5,0c-0.2,0-0.4,0.1-0.6,0.2c-0.2,0.1-0.4,0.2-0.5,0.4c-0.2,0.2-0.2,0.4-0.2,0.8c0,0.2,0.1,0.4,0.2,0.6
			c0.1,0.2,0.3,0.3,0.4,0.4c0.2,0.1,0.4,0.2,0.6,0.3c0.2,0.1,0.5,0.1,0.8,0.2c0.3,0.1,0.7,0.2,1,0.3c0.3,0.1,0.7,0.3,1,0.5
			c0.3,0.2,0.5,0.5,0.7,0.8c0.2,0.3,0.3,0.7,0.3,1.2c0,0.4-0.1,0.8-0.2,1.1c-0.1,0.4-0.4,0.7-0.7,1c-0.3,0.3-0.7,0.5-1.2,0.7
			c-0.5,0.2-1.1,0.3-1.9,0.3c-0.6,0-1.1-0.1-1.5-0.2c-0.5-0.1-0.9-0.3-1.2-0.6s-0.6-0.6-0.7-1.1c-0.2-0.4-0.2-1-0.2-1.6H171.6z"/>
	</g>
	<polygon class="st0" points="185.9,85.9 187.6,85.9 185.9,94.2 190.8,94.2 190.5,95.6 183.9,95.6 	"/>
	<polygon class="st0" points="194.4,85.9 201.5,85.9 201.2,87.4 195.8,87.4 195.3,89.9 200.3,89.9 200,91.3 195,91.3 194.4,94.2 
		199.8,94.2 199.5,95.6 192.4,95.6 	"/>
	<g>
		<path class="st0" d="M203.5,92.4c0,0.8,0.1,1.3,0.6,1.6c0.4,0.3,1,0.5,1.7,0.5c0.2,0,0.5,0,0.7-0.1s0.5-0.1,0.7-0.3
			c0.2-0.1,0.4-0.3,0.5-0.5c0.1-0.2,0.2-0.4,0.2-0.7c0-0.3-0.1-0.5-0.2-0.7c-0.1-0.2-0.3-0.3-0.5-0.5c-0.2-0.1-0.5-0.2-0.7-0.3
			c-0.3-0.1-0.6-0.2-0.9-0.3c-0.2-0.1-0.5-0.1-0.8-0.2c-0.3-0.1-0.6-0.2-0.9-0.4c-0.3-0.2-0.5-0.4-0.7-0.7c-0.2-0.3-0.3-0.7-0.3-1.1
			c0-0.4,0.1-0.8,0.2-1.2c0.2-0.4,0.4-0.7,0.7-1c0.3-0.3,0.7-0.5,1.1-0.6c0.4-0.1,1-0.2,1.5-0.2c0.5,0,1,0.1,1.4,0.2
			c0.4,0.1,0.8,0.3,1.2,0.5s0.6,0.6,0.8,1c0.2,0.4,0.3,0.9,0.2,1.4h-1.6c0-0.6-0.2-1-0.5-1.3c-0.3-0.3-0.8-0.4-1.5-0.4
			c-0.1,0-0.3,0-0.5,0c-0.2,0-0.4,0.1-0.6,0.2c-0.2,0.1-0.4,0.2-0.5,0.4c-0.2,0.2-0.2,0.4-0.2,0.8c0,0.2,0.1,0.4,0.2,0.6
			c0.1,0.2,0.3,0.3,0.4,0.4c0.2,0.1,0.4,0.2,0.6,0.3c0.2,0.1,0.5,0.1,0.8,0.2c0.3,0.1,0.7,0.2,1,0.3c0.3,0.1,0.7,0.3,1,0.5
			c0.3,0.2,0.5,0.5,0.7,0.8c0.2,0.3,0.3,0.7,0.3,1.2c0,0.4-0.1,0.8-0.2,1.1c-0.1,0.4-0.4,0.7-0.7,1c-0.3,0.3-0.7,0.5-1.2,0.7
			c-0.5,0.2-1.1,0.3-1.9,0.3c-0.6,0-1.1-0.1-1.5-0.2c-0.5-0.1-0.9-0.3-1.2-0.6c-0.3-0.3-0.6-0.6-0.7-1.1c-0.2-0.4-0.2-1-0.2-1.6
			H203.5z"/>
	</g>
	<polygon class="st0" points="217.8,85.9 220.2,85.9 221.2,93.3 221.3,93.3 225.5,85.9 227.9,85.9 225.9,95.6 224.3,95.6 
		225.9,87.9 225.9,87.9 221.5,95.6 220.2,95.6 219,87.9 219,87.9 217.5,95.6 215.8,95.6 	"/>
	<g>
		<path class="st0" d="M230.7,91.6c0,0.9,0.2,1.6,0.7,2.1c0.5,0.5,1.1,0.8,2,0.8c0.6,0,1.1-0.1,1.5-0.4c0.4-0.3,0.8-0.6,1.1-1
			c0.3-0.4,0.5-0.9,0.6-1.4c0.1-0.5,0.2-1.1,0.2-1.6c0-0.9-0.2-1.6-0.7-2.1c-0.4-0.5-1.1-0.8-1.9-0.8c-0.6,0-1.1,0.1-1.5,0.4
			c-0.4,0.3-0.8,0.6-1.1,1c-0.3,0.4-0.5,0.9-0.6,1.4S230.7,91,230.7,91.6 M229,91.6c0-1,0.2-1.9,0.5-2.6c0.3-0.7,0.7-1.4,1.2-1.8
			c0.5-0.5,1.1-0.8,1.7-1.1c0.6-0.2,1.2-0.4,1.9-0.4c0.6,0,1.2,0.1,1.7,0.3c0.5,0.2,1,0.5,1.3,0.9c0.4,0.4,0.7,0.8,0.9,1.3
			c0.2,0.5,0.3,1.1,0.3,1.7c0,1-0.1,1.9-0.4,2.7c-0.3,0.7-0.7,1.4-1.2,1.8c-0.5,0.5-1,0.8-1.6,1.1c-0.6,0.2-1.2,0.4-1.9,0.4
			c-0.7,0-1.3-0.1-1.8-0.3c-0.5-0.2-1-0.5-1.3-0.9c-0.4-0.4-0.6-0.8-0.8-1.3C229.1,92.8,229,92.2,229,91.6"/>
		<path class="st0" d="M242.6,90h2.5c0.4,0,0.8-0.1,1-0.2c0.3-0.1,0.4-0.2,0.6-0.4c0.1-0.2,0.2-0.3,0.3-0.5c0-0.2,0.1-0.3,0.1-0.5
			c0-0.1,0-0.2,0-0.3c0-0.1-0.1-0.3-0.2-0.4c-0.1-0.1-0.2-0.2-0.4-0.3c-0.2-0.1-0.5-0.1-0.8-0.1h-2.4L242.6,90z M241.7,94.2h2.4
			c0.1,0,0.4,0,0.6,0c0.3,0,0.5-0.1,0.8-0.1c0.3-0.1,0.5-0.2,0.7-0.4c0.2-0.2,0.3-0.5,0.4-0.9c0-0.1,0-0.3,0-0.4
			c0-0.2-0.1-0.3-0.2-0.5c-0.1-0.2-0.3-0.3-0.5-0.4c-0.2-0.1-0.6-0.2-1-0.2h-2.6L241.7,94.2z M241.7,85.9h4.2c0.6,0,1.2,0.1,1.5,0.3
			c0.4,0.2,0.7,0.4,0.9,0.6c0.2,0.2,0.3,0.5,0.4,0.7c0.1,0.3,0.1,0.5,0.1,0.7c0,0.3,0,0.6-0.1,0.8c-0.1,0.3-0.2,0.5-0.4,0.7
			c-0.2,0.2-0.4,0.4-0.6,0.5c-0.2,0.1-0.5,0.2-0.8,0.3v0c1,0.3,1.5,1,1.5,2c0,0.3,0,0.6-0.1,0.9c-0.1,0.4-0.3,0.7-0.6,1
			s-0.6,0.6-1.1,0.8c-0.5,0.2-1.1,0.3-1.8,0.3h-5L241.7,85.9z"/>
	</g>
	<polygon class="st0" points="252.1,85.9 253.8,85.9 251.7,95.6 250,95.6 	"/>
	<polygon class="st0" points="256.6,85.9 258.3,85.9 256.6,94.2 261.5,94.2 261.2,95.6 254.6,95.6 	"/>
	<polygon class="st0" points="265.1,85.9 266.8,85.9 264.8,95.6 263.1,95.6 	"/>
	<polygon class="st0" points="268.7,85.9 276.7,85.9 276.3,87.4 273.3,87.4 271.5,95.6 269.8,95.6 271.6,87.4 268.4,87.4 	"/>
	<path class="st0" d="M284.1,83.1l-1.6,1.9h-1.1l1-1.9H284.1z M278.4,85.9h7.1l-0.3,1.5h-5.4l-0.5,2.5h5l-0.3,1.4h-5l-0.6,2.8h5.4
		l-0.3,1.5h-7.1L278.4,85.9z"/>
	<g>
		<path class="st0" d="M287.5,92.4c0,0.8,0.1,1.3,0.6,1.6c0.4,0.3,1,0.5,1.7,0.5c0.2,0,0.5,0,0.7-0.1s0.5-0.1,0.7-0.3
			c0.2-0.1,0.4-0.3,0.5-0.5c0.1-0.2,0.2-0.4,0.2-0.7c0-0.3-0.1-0.5-0.2-0.7c-0.1-0.2-0.3-0.3-0.5-0.5c-0.2-0.1-0.5-0.2-0.7-0.3
			c-0.3-0.1-0.6-0.2-0.9-0.3c-0.2-0.1-0.5-0.1-0.8-0.2c-0.3-0.1-0.6-0.2-0.9-0.4c-0.3-0.2-0.5-0.4-0.7-0.7c-0.2-0.3-0.3-0.7-0.3-1.1
			c0-0.4,0.1-0.8,0.2-1.2c0.2-0.4,0.4-0.7,0.7-1c0.3-0.3,0.7-0.5,1.1-0.6c0.4-0.1,1-0.2,1.5-0.2c0.5,0,1,0.1,1.4,0.2
			c0.4,0.1,0.8,0.3,1.2,0.5s0.6,0.6,0.8,1c0.2,0.4,0.3,0.9,0.2,1.4h-1.6c0-0.6-0.2-1-0.5-1.3c-0.3-0.3-0.8-0.4-1.5-0.4
			c-0.1,0-0.3,0-0.5,0c-0.2,0-0.4,0.1-0.6,0.2c-0.2,0.1-0.4,0.2-0.5,0.4c-0.2,0.2-0.2,0.4-0.2,0.8c0,0.2,0.1,0.4,0.2,0.6
			c0.1,0.2,0.3,0.3,0.4,0.4c0.2,0.1,0.4,0.2,0.6,0.3c0.2,0.1,0.5,0.1,0.8,0.2c0.3,0.1,0.7,0.2,1,0.3c0.3,0.1,0.7,0.3,1,0.5
			c0.3,0.2,0.5,0.5,0.7,0.8c0.2,0.3,0.3,0.7,0.3,1.2c0,0.4-0.1,0.8-0.2,1.1c-0.1,0.4-0.4,0.7-0.7,1c-0.3,0.3-0.7,0.5-1.2,0.7
			c-0.5,0.2-1.1,0.3-1.9,0.3c-0.6,0-1.1-0.1-1.5-0.2c-0.5-0.1-0.9-0.3-1.2-0.6c-0.3-0.3-0.6-0.6-0.7-1.1c-0.2-0.4-0.2-1-0.2-1.6
			H287.5z"/>
	</g>
	<path class="st0" d="M302,85.9h1.7l-0.6,2.9l-1.3,4.1h-0.8l0.5-4.2L302,85.9z M300.3,93.9h1.8l-0.4,1.7h-1.8L300.3,93.9z"/>
</g>
</svg>
