<?xml version="1.0" encoding="UTF-8"?>
<svg xmlns="http://www.w3.org/2000/svg" xmlns:xlink="http://www.w3.org/1999/xlink" width="1024" zoomAndPan="magnify" viewBox="0 0 768 767.999994" height="1024" preserveAspectRatio="xMidYMid meet" version="1.0">
  <defs>
    <g/>
  </defs>
  <rect x="-76.8" width="921.6" fill="#ffffff" y="-76.799999" height="921.599993" fill-opacity="1"/>
  <rect x="-76.8" width="921.6" fill="#ffffff" y="-76.799999" height="921.599993" fill-opacity="1"/>
  <path fill="#173166" d="M 364.140625 337.789062 L 364.140625 305.023438 C 364.140625 305.023438 354.199219 306.359375 339.445312 307.457031 L 339.445312 263.132812 L 308.308594 269.519531 L 299.371094 308.8125 C 289.660156 308.699219 279.710938 308.210938 270.195312 307.140625 C 238.152344 303.523438 213.796875 301.710938 213.796875 301.710938 C 169.042969 299.878906 150.875 317.507812 150.875 346.800781 C 150.875 384.511719 178.128906 389.601562 213.796875 394.441406 C 233.417969 396.992188 239.273438 398.777344 239.273438 407.179688 C 239.273438 417.117188 233.414062 419.15625 213.289062 419.15625 C 197.539062 419.15625 178.707031 414.152344 163.894531 405.082031 L 163.898438 405.105469 L 141.953125 433.417969 C 161.316406 446.414062 186.023438 451.507812 210.738281 451.507812 C 260.417969 451.507812 278.25 438.007812 278.25 404.882812 C 278.25 368.964844 250.988281 364.632812 214.300781 359.539062 C 195.703125 356.992188 190.609375 355.210938 190.609375 347.054688 C 190.609375 340.175781 194.6875 336.609375 215.066406 336.609375 C 215.066406 336.609375 234.488281 337.769531 264.617188 341.839844 C 270.902344 342.691406 277.917969 343.238281 285.277344 343.558594 C 290.96875 343.667969 317.246094 343.964844 341.457031 341.414062 C 349.449219 340.460938 357.160156 339.277344 364.140625 337.789062 Z M 364.140625 337.789062 " fill-opacity="1" fill-rule="nonzero"/>
  <path fill="#173166" d="M 339.070312 396.289062 L 339.070312 356.339844 C 324.890625 357.667969 310.507812 358.117188 299.324219 358.222656 L 299.324219 404.371094 L 299.367188 404.367188 C 299.839844 436.035156 311.355469 449.207031 349.519531 449.207031 C 353.730469 449.207031 359.167969 449.203125 364.132812 449.09375 L 364.132812 414.1875 L 357.667969 414.1875 C 340.601562 414.195312 339.070312 407.875 339.070312 396.289062 Z M 339.070312 396.289062 " fill-opacity="1" fill-rule="nonzero"/>
  <path fill="#173166" d="M 516.886719 402.753906 L 516.886719 358.855469 C 516.886719 318.015625 506.167969 301.425781 454.09375 301.425781 C 423.71875 301.425781 398.195312 312.144531 387.984375 319.039062 L 407.894531 348.390625 C 416.570312 343.035156 432.144531 336.648438 449.753906 336.648438 C 474.769531 336.648438 478.085938 343.285156 478.34375 356.308594 L 472.472656 356.308594 C 408.402344 356.308594 379.820312 366.003906 379.820312 406.84375 C 379.820312 432.113281 389.515625 451.507812 434.1875 451.507812 C 461.496094 451.507812 477.578125 445.378906 484.980469 435.425781 C 490.597656 446.660156 497.230469 449.722656 512.546875 449.722656 C 521.480469 449.722656 526.585938 449.464844 529.394531 448.699219 L 529.394531 416.027344 C 517.652344 416.027344 516.886719 414.238281 516.886719 402.753906 Z M 478.34375 389.226562 C 478.34375 410.414062 467.367188 419.34375 442.097656 419.34375 C 423.71875 419.34375 417.847656 414.238281 417.847656 403.519531 C 417.847656 387.953125 423.972656 383.867188 475.027344 383.867188 L 478.34375 383.867188 Z M 478.34375 389.226562 " fill-opacity="1" fill-rule="nonzero"/>
  <path fill="#173166" d="M 585.746094 320.5625 L 581.664062 304.738281 L 550.527344 307.039062 L 550.527344 449.210938 L 590.601562 449.210938 L 590.601562 377.742188 C 590.601562 355.023438 598.003906 341.75 631.949219 341.492188 L 631.949219 303.203125 C 609.488281 303.972656 591.875 311.375 585.746094 320.5625 Z M 585.746094 320.5625 " fill-opacity="1" fill-rule="nonzero"/>
  <g fill="#173166" fill-opacity="1">
    <g transform="translate(249.623519, 566.835595)">
      <g>
        <path d="M 9.40625 -14.53125 L 9.40625 -85.875 L 17.71875 -85.875 L 17.71875 -16.375 C 17.71875 -10.175781 19.992188 -7.078125 24.546875 -7.078125 L 26.625 -7.203125 L 26.625 0.25 C 25.320312 0.40625 24.304688 0.484375 23.578125 0.484375 C 14.128906 0.484375 9.40625 -4.519531 9.40625 -14.53125 Z M 9.40625 -14.53125 "/>
      </g>
    </g>
  </g>
  <g fill="#173166" fill-opacity="1">
    <g transform="translate(270.986247, 566.835595)">
      <g>
        <path d="M 13.6875 -66.09375 L 6.96875 -66.09375 L 11.734375 -87.09375 L 20.515625 -87.09375 Z M 13.6875 -66.09375 "/>
      </g>
    </g>
  </g>
  <g fill="#173166" fill-opacity="1">
    <g transform="translate(287.709199, 566.835595)">
      <g>
        <path d="M 5.015625 -16.734375 C 5.015625 -30.898438 17.550781 -37.984375 42.625 -37.984375 L 46.046875 -37.984375 L 46.046875 -39.578125 C 46.046875 -50.160156 40.957031 -55.453125 30.78125 -55.453125 C 28.007812 -55.453125 25.15625 -55.003906 22.21875 -54.109375 C 19.289062 -53.210938 17.054688 -52.195312 15.515625 -51.0625 L 13.4375 -49.59375 L 9.53125 -55.953125 L 12.09375 -57.78125 C 13.15625 -58.507812 15.640625 -59.566406 19.546875 -60.953125 C 23.210938 -62.253906 27.160156 -62.90625 31.390625 -62.90625 C 38.804688 -62.90625 44.488281 -60.890625 48.4375 -56.859375 C 52.382812 -52.828125 54.359375 -46.984375 54.359375 -39.328125 L 54.359375 0 L 46.421875 0 L 46.421875 -6.71875 L 46.65625 -11.84375 L 46.421875 -11.84375 C 46.421875 -11.769531 46.316406 -11.523438 46.109375 -11.109375 C 45.910156 -10.703125 45.609375 -10.171875 45.203125 -9.515625 C 44.796875 -8.867188 44.265625 -8.097656 43.609375 -7.203125 C 39.785156 -1.742188 33.878906 1.144531 25.890625 1.46875 C 20.273438 1.46875 15.390625 -0.117188 11.234375 -3.296875 C 7.085938 -6.472656 5.015625 -10.953125 5.015625 -16.734375 Z M 13.5625 -17.21875 C 13.5625 -13.96875 14.800781 -11.222656 17.28125 -8.984375 C 19.769531 -6.742188 23.085938 -5.625 27.234375 -5.625 C 32.773438 -5.625 37.296875 -7.984375 40.796875 -12.703125 C 44.296875 -17.429688 46.046875 -22.6875 46.046875 -28.46875 L 46.046875 -31.15625 L 42.515625 -31.15625 C 35.992188 -31.15625 30.046875 -30.539062 24.671875 -29.3125 C 17.265625 -27.601562 13.5625 -23.570312 13.5625 -17.21875 Z M 13.5625 -17.21875 "/>
      </g>
    </g>
  </g>
  <g fill="#173166" fill-opacity="1">
    <g transform="translate(342.404813, 566.835595)">
      <g>
        <path d="M 18.328125 24.4375 L 10.015625 24.4375 L 10.015625 -61.4375 L 17.953125 -61.4375 L 17.953125 -55.453125 L 17.71875 -50.6875 L 17.953125 -50.6875 C 19.253906 -52.8125 20.191406 -54.238281 20.765625 -54.96875 C 24.515625 -60.019531 30.664062 -62.664062 39.21875 -62.90625 C 47.4375 -62.90625 53.910156 -59.9375 58.640625 -54 C 63.523438 -48.050781 65.96875 -40.269531 65.96875 -30.65625 C 65.96875 -21.132812 63.398438 -13.359375 58.265625 -7.328125 C 53.140625 -1.460938 46.546875 1.46875 38.484375 1.46875 C 33.429688 1.46875 29.234375 0.304688 25.890625 -2.015625 C 22.554688 -4.335938 20.28125 -6.679688 19.0625 -9.046875 L 18.328125 -10.265625 L 18.078125 -10.265625 C 18.242188 -8.304688 18.328125 -6.515625 18.328125 -4.890625 Z M 18.078125 -30.53125 C 18.078125 -23.9375 19.828125 -18.15625 23.328125 -13.1875 C 26.828125 -8.300781 31.59375 -5.859375 37.625 -5.859375 C 43.238281 -5.859375 47.921875 -8.097656 51.671875 -12.578125 C 55.492188 -17.140625 57.40625 -23.164062 57.40625 -30.65625 C 57.40625 -38.15625 55.632812 -44.144531 52.09375 -48.625 C 48.550781 -53.101562 43.847656 -55.34375 37.984375 -55.34375 C 32.128906 -55.34375 27.347656 -53.203125 23.640625 -48.921875 C 19.929688 -44.648438 18.078125 -38.519531 18.078125 -30.53125 Z M 18.078125 -30.53125 "/>
      </g>
    </g>
  </g>
  <g fill="#173166" fill-opacity="1">
    <g transform="translate(405.525205, 566.835595)">
      <g>
        <path d="M 18.328125 24.4375 L 10.015625 24.4375 L 10.015625 -61.4375 L 17.953125 -61.4375 L 17.953125 -55.453125 L 17.71875 -50.6875 L 17.953125 -50.6875 C 19.253906 -52.8125 20.191406 -54.238281 20.765625 -54.96875 C 24.515625 -60.019531 30.664062 -62.664062 39.21875 -62.90625 C 47.4375 -62.90625 53.910156 -59.9375 58.640625 -54 C 63.523438 -48.050781 65.96875 -40.269531 65.96875 -30.65625 C 65.96875 -21.132812 63.398438 -13.359375 58.265625 -7.328125 C 53.140625 -1.460938 46.546875 1.46875 38.484375 1.46875 C 33.429688 1.46875 29.234375 0.304688 25.890625 -2.015625 C 22.554688 -4.335938 20.28125 -6.679688 19.0625 -9.046875 L 18.328125 -10.265625 L 18.078125 -10.265625 C 18.242188 -8.304688 18.328125 -6.515625 18.328125 -4.890625 Z M 18.078125 -30.53125 C 18.078125 -23.9375 19.828125 -18.15625 23.328125 -13.1875 C 26.828125 -8.300781 31.59375 -5.859375 37.625 -5.859375 C 43.238281 -5.859375 47.921875 -8.097656 51.671875 -12.578125 C 55.492188 -17.140625 57.40625 -23.164062 57.40625 -30.65625 C 57.40625 -38.15625 55.632812 -44.144531 52.09375 -48.625 C 48.550781 -53.101562 43.847656 -55.34375 37.984375 -55.34375 C 32.128906 -55.34375 27.347656 -53.203125 23.640625 -48.921875 C 19.929688 -44.648438 18.078125 -38.519531 18.078125 -30.53125 Z M 18.078125 -30.53125 "/>
      </g>
    </g>
  </g>
  <g fill="#173166" fill-opacity="1">
    <g transform="translate(468.645598, 566.835595)">
      <g>
        <path d="M 9.40625 -14.53125 L 9.40625 -85.875 L 17.71875 -85.875 L 17.71875 -16.375 C 17.71875 -10.175781 19.992188 -7.078125 24.546875 -7.078125 L 26.625 -7.203125 L 26.625 0.25 C 25.320312 0.40625 24.304688 0.484375 23.578125 0.484375 C 14.128906 0.484375 9.40625 -4.519531 9.40625 -14.53125 Z M 9.40625 -14.53125 "/>
      </g>
    </g>
  </g>
  <g fill="#173166" fill-opacity="1">
    <g transform="translate(490.008322, 566.835595)">
      <g>
        <path d="M 18.453125 -75.5 L 9.765625 -75.5 L 9.765625 -85.875 L 18.453125 -85.875 Z M 18.328125 0 L 10.015625 0 L 10.015625 -61.4375 L 18.328125 -61.4375 Z M 18.328125 0 "/>
      </g>
    </g>
  </g>
</svg>