<?xml version="1.0" encoding="UTF-8"?>
<!-- Generator: Adobe Illustrator 25.4.1, SVG Export Plug-In . SVG Version: 6.00 Build 0)  -->
<svg version="1.1" id="Calque_1" xmlns="http://www.w3.org/2000/svg" xmlns:xlink="http://www.w3.org/1999/xlink" x="0px" y="0px" viewBox="0 0 91.2 78.4" style="enable-background:new 0 0 91.2 78.4;" xml:space="preserve">
<style type="text/css">
	.st0{fill:#FFFFFF;}
	.st1{fill:#26358B;}
	.st2{fill:#009EB1;}
	.st3{fill:#89BD23;}
	.st4{fill:#0069B4;}
</style>
<path class="st0" d="M91.2,12.1C67.8,2,45.5,0.2,44.1,0l-1.5,7.7C40.5,7.8,39,7.9,36.9,8l-1.4,7.6c-2.1,0.4-3.6,0.7-5.7,1.2  l-1.4,7.6c-2,0.7-3.7,1.3-5.7,2.1l-6.1,31.9c0.9-0.1,5.4-0.5,11.6-0.5c29.9,0,51.2,10.8,52.2,11.1L91.2,12.1z"/>
<path class="st1" d="M0.9,71.7c0-0.2,0.1-0.3,0.2-0.4c0.1-0.1,0.2-0.1,0.3-0.2c0.1,0,0.3,0,0.5-0.1c0.2,0,0.6,0,1,0  c0.5,0,0.9,0,1.2,0.1s0.5,0.2,0.7,0.3c0.1,0.1,0.2,0.3,0.3,0.5c0,0.2,0,0.4,0,0.6S5,72.8,4.9,73c-0.1,0.1-0.1,0.2-0.2,0.3  c-0.1,0.1-0.2,0.2-0.3,0.2c-0.1,0.1-0.2,0.1-0.3,0.2c0.3,0.1,0.4,0.3,0.6,0.5c0.1,0.2,0.2,0.5,0.1,0.9c0,0.2-0.1,0.4-0.2,0.6  c-0.1,0.2-0.3,0.4-0.5,0.5s-0.5,0.3-0.9,0.4s-0.8,0.1-1.3,0.1c-0.3,0-0.5,0-0.7,0s-0.4,0-0.6,0c-0.2,0-0.3,0-0.4,0  c-0.1,0-0.2,0-0.2,0L0.9,71.7z M1,75.9c0,0,0.2,0,0.3,0c0.2,0,0.5,0,0.8,0s0.5,0,0.7-0.1c0.2,0,0.4-0.1,0.5-0.2s0.2-0.2,0.3-0.3  c0.1-0.1,0.1-0.2,0.1-0.4c0-0.1,0-0.2,0-0.3c0-0.1-0.1-0.2-0.1-0.3c-0.1-0.1-0.2-0.1-0.3-0.2C3.2,74.1,3,74,2.8,74H1.2L1,75.9z   M2.9,73.5c0.2,0,0.3,0,0.5-0.1c0.1,0,0.2-0.1,0.3-0.2s0.2-0.1,0.2-0.2C4,72.9,4,72.8,4,72.7c0-0.1,0-0.2,0-0.3  c0-0.1-0.1-0.2-0.2-0.3C3.7,72,3.6,72,3.4,71.9c-0.2,0-0.4-0.1-0.6-0.1c-0.3,0-0.6,0-0.8,0s-0.3,0-0.4,0l-0.3,1.5h1.6V73.5z"/>
<path class="st1" d="M6,73.1c0-0.2,0.1-0.3,0.2-0.3c0.1-0.1,0.2-0.1,0.4-0.1c0.1,0,0.2,0,0.3,0s0.1,0,0.1,0.1l-0.8,4H5.3L6,73.1z   M6.9,70.8c0.2,0,0.3,0.1,0.4,0.2s0.1,0.2,0.1,0.4c0,0.2-0.1,0.3-0.2,0.4S6.9,72,6.8,72s-0.3-0.1-0.4-0.2c-0.1-0.1-0.1-0.2-0.1-0.4  c0-0.2,0.1-0.3,0.2-0.4C6.6,70.9,6.7,70.8,6.9,70.8"/>
<path class="st1" d="M10.8,76.5c0,0-0.1,0.1-0.2,0.1s-0.2,0.1-0.4,0.1c-0.1,0-0.3,0.1-0.5,0.1s-0.4,0-0.6,0c-0.3,0-0.6,0-0.8-0.1  c-0.2-0.1-0.4-0.2-0.6-0.4c-0.2-0.2-0.3-0.4-0.3-0.7c-0.1-0.3-0.1-0.6,0-0.9s0.2-0.6,0.3-0.9c0.2-0.3,0.4-0.5,0.6-0.7  s0.5-0.3,0.8-0.4s0.6-0.2,0.9-0.2s0.5,0,0.7,0.1s0.4,0.2,0.5,0.3c0.1,0.1,0.2,0.3,0.2,0.4c0,0.2,0,0.3,0,0.5s-0.1,0.4-0.2,0.5  c-0.1,0.2-0.2,0.3-0.4,0.4c-0.2,0.1-0.4,0.2-0.8,0.3c-0.3,0.1-0.7,0.1-1.1,0.1c-0.1,0-0.2,0-0.3,0c-0.1,0-0.2,0-0.3,0  c0,0.3,0.1,0.5,0.3,0.7c0.2,0.2,0.5,0.3,0.9,0.3c0.1,0,0.3,0,0.4,0s0.2,0,0.3-0.1c0.1,0,0.2-0.1,0.3-0.1c0.1,0,0.1-0.1,0.2-0.1  L10.8,76.5z M8.4,74.5c0.1,0,0.2,0,0.3,0H9c0.3,0,0.5,0,0.7-0.1c0.2,0,0.3-0.1,0.4-0.1c0.1-0.1,0.2-0.1,0.2-0.2s0.1-0.2,0.1-0.2  c0-0.2,0-0.4-0.2-0.5c-0.1-0.1-0.3-0.2-0.6-0.2c-0.2,0-0.4,0-0.5,0.1c-0.2,0.1-0.3,0.2-0.4,0.3c-0.1,0.1-0.2,0.3-0.3,0.4  C8.5,74.2,8.4,74.4,8.4,74.5"/>
<path class="st1" d="M12,74.3c0.1-0.3,0.1-0.5,0.3-0.7c0.1-0.2,0.3-0.4,0.5-0.5c0.2-0.2,0.4-0.3,0.7-0.3c0.3-0.1,0.5-0.1,0.8-0.1  s0.5,0,0.8,0.1c0.2,0.1,0.4,0.2,0.5,0.3c0.1,0.1,0.2,0.3,0.3,0.5c0.1,0.2,0.1,0.5,0,0.7l-0.5,2.5h-0.9l0.4-2.2  c0.1-0.4,0-0.6-0.1-0.8c-0.1-0.2-0.4-0.3-0.7-0.3c-0.3,0-0.6,0.1-0.8,0.3c-0.2,0.2-0.3,0.5-0.4,0.8l-0.4,2.2h-0.9L12,74.3z"/>
<path class="st1" d="M18.6,74.9c0.1-0.4,0.2-0.7,0.4-1c0.2-0.3,0.4-0.5,0.6-0.7s0.5-0.3,0.8-0.5c0.3-0.1,0.6-0.2,0.9-0.2  s0.6,0.1,0.8,0.2s0.4,0.3,0.6,0.4c0.2,0.2,0.3,0.4,0.3,0.7c0.1,0.3,0.1,0.6,0,0.9c-0.1,0.3-0.2,0.6-0.3,0.9  c-0.2,0.3-0.3,0.5-0.6,0.7c-0.2,0.2-0.5,0.3-0.7,0.4c-0.3,0.1-0.5,0.2-0.8,0.2s-0.6-0.1-0.8-0.2c-0.2-0.1-0.4-0.3-0.5-0.4l-0.5,2.1  h-0.9L18.6,74.9z M20.5,76c0.2,0,0.4,0,0.5-0.1c0.2-0.1,0.3-0.2,0.4-0.3c0.1-0.1,0.2-0.3,0.3-0.4c0.1-0.2,0.2-0.3,0.2-0.5  s0-0.4,0-0.5c0-0.2-0.1-0.3-0.2-0.4c-0.1-0.1-0.2-0.2-0.3-0.3c-0.1-0.1-0.2-0.1-0.4-0.1s-0.4,0-0.5,0.1c-0.2,0.1-0.3,0.2-0.4,0.3  c-0.1,0.1-0.2,0.3-0.3,0.4c-0.1,0.2-0.2,0.3-0.2,0.5s0,0.4,0,0.5c0,0.2,0.1,0.3,0.2,0.4c0.1,0.1,0.2,0.2,0.3,0.3  C20.1,76,20.3,76,20.5,76"/>
<path class="st1" d="M24.4,71.2c0-0.1,0.1-0.3,0.2-0.3c0.1-0.1,0.2-0.1,0.4-0.1c0.1,0,0.2,0,0.3,0s0.1,0,0.1,0.1l-1.1,5.9h-0.9  L24.4,71.2z"/>
<path class="st1" d="M25.9,73.1c0-0.2,0.1-0.3,0.2-0.3c0.1-0.1,0.2-0.1,0.4-0.1c0.1,0,0.2,0,0.3,0s0.1,0,0.1,0.1l-0.4,2.1  c-0.1,0.4,0,0.6,0.1,0.8c0.1,0.2,0.4,0.3,0.7,0.3s0.6-0.1,0.8-0.3c0.2-0.2,0.3-0.5,0.4-0.8l0.3-1.8c0-0.2,0.1-0.3,0.2-0.3  c0.1-0.1,0.2-0.1,0.4-0.1c0.1,0,0.2,0,0.3,0s0.1,0,0.1,0.1l-0.4,2.3c-0.1,0.3-0.1,0.5-0.3,0.7c-0.1,0.2-0.3,0.4-0.5,0.6  s-0.4,0.3-0.7,0.3c-0.3,0.1-0.5,0.1-0.8,0.1s-0.5,0-0.8-0.1c-0.2-0.1-0.4-0.2-0.5-0.3s-0.2-0.3-0.3-0.6c-0.1-0.2-0.1-0.5,0-0.7  L25.9,73.1z"/>
<path class="st1" d="M30.3,75.7c0,0,0.1,0.1,0.2,0.1c0.1,0,0.2,0.1,0.3,0.1s0.3,0.1,0.5,0.1s0.4,0,0.6,0c0.3,0,0.5,0,0.7-0.1  s0.3-0.2,0.3-0.4c0-0.2,0-0.3-0.1-0.3c-0.1-0.1-0.3-0.1-0.6-0.2l-0.6-0.1c-0.2,0-0.4-0.1-0.6-0.1c-0.2-0.1-0.3-0.1-0.4-0.2  s-0.2-0.2-0.2-0.4c0-0.1,0-0.3,0-0.5s0.1-0.3,0.2-0.5c0.1-0.2,0.2-0.3,0.4-0.4s0.4-0.2,0.6-0.3c0.2-0.1,0.5-0.1,0.9-0.1  c0.5,0,1,0.1,1.2,0.2c0.3,0.1,0.4,0.3,0.4,0.5c0,0.1,0,0.1-0.1,0.2l-0.1,0.1l-0.1,0.1h-0.1l-0.1-0.1c-0.1,0-0.2-0.1-0.3-0.1  s-0.3-0.1-0.4-0.1c-0.2,0-0.4-0.1-0.6-0.1c-0.6,0-1,0.2-1,0.5c0,0.1,0,0.2,0.1,0.3c0.1,0.1,0.3,0.1,0.5,0.2l0.8,0.1  c0.4,0.1,0.7,0.2,1,0.4c0.2,0.2,0.3,0.5,0.2,0.8c-0.1,0.4-0.3,0.7-0.7,1c-0.4,0.2-0.8,0.4-1.4,0.4c-0.3,0-0.5,0-0.8-0.1  c-0.2,0-0.4-0.1-0.6-0.2c-0.2-0.1-0.3-0.1-0.4-0.2c-0.1,0.1-0.2,0.1-0.2,0.1L30.3,75.7z"/>
<path class="st1" d="M39.6,76.2c-0.2,0.2-0.4,0.3-0.6,0.4c-0.3,0.1-0.5,0.2-0.8,0.2s-0.5-0.1-0.8-0.2c-0.2-0.1-0.4-0.3-0.6-0.4  c-0.1-0.2-0.2-0.4-0.3-0.7c-0.1-0.3,0-0.6,0-0.9c0.1-0.3,0.2-0.6,0.3-0.9c0.2-0.3,0.4-0.5,0.6-0.7c0.2-0.2,0.5-0.3,0.8-0.4  s0.6-0.2,0.9-0.2c0.3,0,0.6,0,0.9,0.1c0.2,0.1,0.4,0.2,0.6,0.4c0.1,0.2,0.2,0.4,0.3,0.7c0,0.3,0,0.6,0,1l-0.8,3.8h-0.9L39.6,76.2z   M39.9,74.7c0-0.2,0-0.4,0-0.5c0-0.2-0.1-0.3-0.2-0.4c-0.1-0.1-0.2-0.2-0.3-0.3c-0.1-0.1-0.2-0.1-0.4-0.1s-0.4,0-0.5,0.1  c-0.2,0.1-0.3,0.2-0.4,0.3c-0.1,0.1-0.2,0.3-0.3,0.4c-0.1,0.2-0.2,0.3-0.2,0.5s0,0.4,0,0.5c0,0.2,0.1,0.3,0.2,0.4  c0.1,0.1,0.2,0.2,0.3,0.3c0.1,0.1,0.3,0.1,0.5,0.1s0.4,0,0.5-0.1c0.2-0.1,0.3-0.2,0.4-0.3c0.1-0.1,0.2-0.3,0.3-0.4  C39.8,75.1,39.9,74.9,39.9,74.7"/>
<path class="st1" d="M42,73.1c0-0.2,0.1-0.3,0.2-0.3c0.1-0.1,0.2-0.1,0.4-0.1c0.1,0,0.2,0,0.3,0s0.1,0,0.1,0.1l-0.4,2.1  c-0.1,0.4,0,0.6,0.1,0.8c0.1,0.2,0.4,0.3,0.7,0.3s0.6-0.1,0.8-0.3c0.2-0.2,0.3-0.5,0.4-0.8l0.3-1.8c0-0.2,0.1-0.3,0.2-0.3  c0.1-0.1,0.2-0.1,0.4-0.1c0.1,0,0.2,0,0.3,0s0.1,0,0.1,0.1l-0.4,2.3c-0.1,0.3-0.1,0.5-0.3,0.7c-0.1,0.2-0.3,0.4-0.5,0.6  s-0.4,0.3-0.7,0.3c-0.3,0.1-0.5,0.1-0.8,0.1s-0.5,0-0.8-0.1c-0.2-0.1-0.4-0.2-0.5-0.3c-0.1-0.2-0.2-0.3-0.3-0.6  c-0.1-0.2-0.1-0.5,0-0.7L42,73.1z"/>
<path class="st1" d="M49.7,76.5c0,0-0.1,0.1-0.2,0.1c-0.1,0-0.2,0.1-0.4,0.1c-0.1,0-0.3,0.1-0.5,0.1s-0.4,0-0.6,0  c-0.3,0-0.6,0-0.8-0.1s-0.4-0.2-0.6-0.4c-0.2-0.2-0.3-0.4-0.3-0.7c-0.1-0.3-0.1-0.6,0-0.9s0.2-0.6,0.3-0.9c0.2-0.3,0.4-0.5,0.6-0.7  c0.2-0.2,0.5-0.3,0.8-0.4s0.6-0.2,0.9-0.2c0.3,0,0.5,0,0.7,0.1s0.4,0.2,0.5,0.3c0.1,0.1,0.2,0.3,0.2,0.4c0,0.2,0,0.3,0,0.5  s-0.1,0.4-0.2,0.5c-0.1,0.2-0.2,0.3-0.4,0.4s-0.4,0.2-0.8,0.3c-0.3,0.1-0.7,0.1-1.1,0.1c-0.1,0-0.2,0-0.3,0s-0.2,0-0.3,0  c0,0.3,0.1,0.5,0.3,0.7s0.5,0.3,0.9,0.3c0.1,0,0.3,0,0.4,0c0.1,0,0.2,0,0.3-0.1c0.1,0,0.2-0.1,0.3-0.1s0.1-0.1,0.2-0.1L49.7,76.5z   M47.3,74.5c0.1,0,0.2,0,0.3,0h0.3c0.3,0,0.5,0,0.7-0.1c0.2,0,0.3-0.1,0.4-0.1c0.1-0.1,0.2-0.1,0.2-0.2s0.1-0.2,0.1-0.2  c0-0.2,0-0.4-0.2-0.5c-0.1-0.1-0.3-0.2-0.6-0.2c-0.2,0-0.4,0-0.5,0.1c-0.2,0.1-0.3,0.2-0.4,0.3c-0.1,0.1-0.2,0.3-0.3,0.4  C47.4,74.2,47.3,74.4,47.3,74.5"/>
<path class="st1" d="M53.5,71.2c0-0.1,0.1-0.3,0.2-0.3c0.1-0.1,0.2-0.1,0.4-0.1c0.1,0,0.2,0,0.3,0s0.1,0,0.1,0.1l-1.1,5.9h-0.9  L53.5,71.2z"/>
<path class="st1" d="M57.9,76.5c0,0-0.1,0.1-0.2,0.1s-0.2,0.1-0.4,0.1c-0.1,0-0.3,0.1-0.5,0.1s-0.4,0-0.6,0c-0.3,0-0.6,0-0.8-0.1  c-0.2-0.1-0.4-0.2-0.6-0.4c-0.2-0.2-0.3-0.4-0.3-0.7s-0.1-0.6,0-0.9s0.2-0.6,0.3-0.9c0.2-0.3,0.4-0.5,0.6-0.7s0.5-0.3,0.8-0.4  s0.6-0.2,0.9-0.2s0.5,0,0.7,0.1s0.4,0.2,0.5,0.3c0.1,0.1,0.2,0.3,0.2,0.4c0,0.2,0,0.3,0,0.5s-0.1,0.4-0.2,0.5  c-0.1,0.2-0.2,0.3-0.4,0.4c-0.2,0.1-0.4,0.2-0.8,0.3c-0.3,0.1-0.7,0.1-1.1,0.1c-0.1,0-0.2,0-0.3,0c-0.1,0-0.2,0-0.3,0  c0,0.3,0.1,0.5,0.3,0.7c0.2,0.2,0.5,0.3,0.9,0.3c0.1,0,0.3,0,0.4,0s0.2,0,0.3-0.1c0.1,0,0.2-0.1,0.3-0.1c0.1,0,0.1-0.1,0.2-0.1  L57.9,76.5z M55.5,74.5c0.1,0,0.2,0,0.3,0h0.3c0.3,0,0.5,0,0.7-0.1c0.2,0,0.3-0.1,0.4-0.1c0.1-0.1,0.2-0.1,0.2-0.2s0.1-0.2,0.1-0.2  c0-0.2,0-0.4-0.2-0.5c-0.1-0.1-0.3-0.2-0.6-0.2c-0.2,0-0.4,0-0.5,0.1c-0.2,0.1-0.3,0.2-0.4,0.3c-0.1,0.1-0.2,0.3-0.3,0.4  C55.6,74.2,55.6,74.4,55.5,74.5"/>
<path class="st1" d="M61.7,71.2c0-0.1,0.1-0.3,0.2-0.3c0.1-0.1,0.2-0.1,0.4-0.1c0.1,0,0.2,0,0.3,0c0.1,0,0.1,0,0.1,0.1l-0.4,2.3  c0.2-0.2,0.4-0.3,0.6-0.4c0.3-0.1,0.5-0.2,0.8-0.2s0.5,0.1,0.8,0.2c0.2,0.1,0.4,0.3,0.6,0.4c0.1,0.2,0.2,0.4,0.3,0.7  c0.1,0.3,0,0.6,0,0.9c-0.1,0.3-0.2,0.6-0.3,0.9c-0.2,0.3-0.3,0.5-0.6,0.7c-0.2,0.2-0.5,0.3-0.8,0.4S63.1,77,62.8,77s-0.6,0-0.8-0.1  c-0.2-0.1-0.4-0.2-0.6-0.4c-0.2-0.2-0.3-0.4-0.3-0.7c0-0.3,0-0.6,0-1L61.7,71.2z M62.9,76c0.2,0,0.4,0,0.5-0.1  c0.2-0.1,0.3-0.2,0.4-0.3c0.1-0.1,0.2-0.3,0.3-0.4c0.1-0.2,0.2-0.3,0.2-0.5s0-0.4,0-0.5c0-0.2-0.1-0.3-0.2-0.4s-0.2-0.2-0.3-0.3  c-0.1-0.1-0.2-0.1-0.4-0.1s-0.4,0-0.5,0.1c-0.2,0.1-0.3,0.2-0.4,0.3c-0.1,0.1-0.2,0.3-0.3,0.4c-0.1,0.2-0.2,0.3-0.2,0.5s0,0.4,0,0.5  c0,0.2,0.1,0.3,0.2,0.4s0.2,0.2,0.3,0.3C62.5,76,62.7,76,62.9,76"/>
<path class="st1" d="M66.4,73.1c0-0.2,0.1-0.3,0.2-0.3c0.1-0.1,0.2-0.1,0.4-0.1c0.1,0,0.2,0,0.3,0c0.1,0,0.1,0,0.1,0.1L67,74.9  c-0.1,0.4,0,0.6,0.1,0.8c0.1,0.2,0.4,0.3,0.7,0.3c0.3,0,0.6-0.1,0.8-0.3c0.2-0.2,0.3-0.5,0.4-0.8l0.3-1.8c0-0.2,0.1-0.3,0.2-0.3  c0.1-0.1,0.2-0.1,0.4-0.1c0.1,0,0.2,0,0.3,0c0.1,0,0.1,0,0.1,0.1l-0.4,2.3c-0.1,0.3-0.1,0.5-0.3,0.7c-0.1,0.2-0.3,0.4-0.5,0.6  s-0.4,0.3-0.7,0.3c-0.3,0.1-0.5,0.1-0.8,0.1s-0.5,0-0.8-0.1c-0.2-0.1-0.4-0.2-0.5-0.3c-0.1-0.2-0.2-0.3-0.3-0.6  c-0.1-0.2-0.1-0.5,0-0.7L66.4,73.1z"/>
<path class="st1" d="M70.7,75.7c0,0,0.1,0.1,0.2,0.1s0.2,0.1,0.3,0.1c0.1,0,0.3,0.1,0.5,0.1s0.4,0,0.6,0c0.3,0,0.5,0,0.7-0.1  s0.3-0.2,0.3-0.4c0-0.2,0-0.3-0.1-0.3c-0.1-0.1-0.3-0.1-0.6-0.2L72,75.1c-0.2,0-0.4-0.1-0.6-0.1c-0.2-0.1-0.3-0.1-0.4-0.2  s-0.2-0.2-0.2-0.4c0-0.1,0-0.3,0-0.5s0.1-0.3,0.2-0.5s0.2-0.3,0.4-0.4c0.2-0.1,0.4-0.2,0.6-0.3c0.2-0.1,0.5-0.1,0.9-0.1  c0.5,0,1,0.1,1.2,0.2c0.3,0.1,0.4,0.3,0.4,0.5c0,0.1,0,0.1-0.1,0.2l-0.1,0.1l-0.1,0.1h-0.1L74,73.6c-0.1,0-0.2-0.1-0.3-0.1  c-0.1,0-0.3-0.1-0.4-0.1c-0.2,0-0.4-0.1-0.6-0.1c-0.6,0-1,0.2-1,0.5c0,0.1,0,0.2,0.1,0.3c0.1,0.1,0.3,0.1,0.5,0.2l0.8,0.1  c0.4,0.1,0.7,0.2,1,0.4c0.2,0.2,0.3,0.5,0.2,0.8c-0.1,0.4-0.3,0.7-0.7,1c-0.4,0.2-0.8,0.4-1.4,0.4c-0.3,0-0.5,0-0.8-0.1  c-0.2,0-0.4-0.1-0.6-0.2s-0.3-0.1-0.4-0.2c0-0.1-0.1-0.1-0.1-0.1L70.7,75.7z"/>
<path class="st1" d="M77.5,75.7c0.2,0,0.3,0.1,0.4,0.2s0.1,0.3,0.1,0.4c0,0.2-0.1,0.3-0.3,0.4c-0.1,0.1-0.3,0.2-0.5,0.2  s-0.3-0.1-0.4-0.2s-0.1-0.3-0.1-0.4c0-0.2,0.1-0.3,0.3-0.4C77.2,75.7,77.3,75.7,77.5,75.7 M77.8,71.6c0-0.1,0.1-0.3,0.2-0.3  c0.1-0.1,0.2-0.1,0.4-0.1c0.1,0,0.2,0,0.3,0c0.1,0,0.1,0,0.2,0.1L78.2,75h-0.9L77.8,71.6z"/>
<path class="st0" d="M91.2,12.1C67.8,2,45.5,0.2,44.1,0l-1.5,7.7C40.5,7.8,39,7.9,36.9,8l-1.4,7.6c-2.1,0.4-3.6,0.7-5.7,1.2  l-1.4,7.6c-2,0.7-3.7,1.3-5.7,2.1l-6.1,31.9c0.9-0.1,5.4-0.5,11.6-0.5c29.9,0,51.2,10.8,52.2,11.1L91.2,12.1z"/>
<path class="st0" d="M23.9,25.9c1.9-0.7,3.8-1.4,5.7-2.1c1.2-6.4,1.1-5.9,1.4-7.5l0,0l0,0c1.9-0.4,3.8-0.8,5.7-1.2  c1.2-6.4,1.2-6.3,1.4-7.5c1.9-0.1,3.8-0.2,5.7-0.2C45,1.2,45,1.2,45.3,0.1l0,0C61.5,2,76.6,5.9,90.2,11.6l-0.9,5L23.7,27.3  L23.9,25.9z"/>
<path class="st2" d="M18,57c21.2-1.6,42.3,1.8,61.5,10.2c0.4-2.1,7.1-37.3,9.6-50.6c-20.6-1.4-43,2.1-65.5,10.7  C23.2,29.9,21.8,37.5,18,57"/>
<path class="st3" d="M29.6,23.9c20.2-7,40.2-9.9,58.8-8.7c-17.9-2.7-37.4-1.9-57.6,2.5C30.7,18.4,29.6,23.9,29.6,23.9"/>
<path class="st4" d="M37.9,9l-1.2,6.3c18.2-3.4,35.8-3.8,52-1.4C73.2,9.7,56,8,37.9,9"/>
<path class="st1" d="M45,1.2l-1.2,6.3c16-0.4,31.2,1.3,45.1,5C75.7,7,60.9,3.1,45,1.2"/>
<path class="st0" d="M72.7,42.6c-0.5,2.5-2.9,4.5-5.3,4.5s-4.1-2-3.6-4.5s2.9-4.5,5.3-4.5C71.6,38.1,73.2,40.1,72.7,42.6 M33.4,44.7  l1.2-6.3H40c0.6-0.8,0.6-1.5,0.7-1.5c0.3-1.6-1-1.5-1.4-1.5h-4l0.7-3.7c-0.4-0.1-2.9-1.1-3.4,1.2l-0.5,2.5c-0.8,0.1-2.5-0.4-2.8,1.5  c0,0-0.2,0.7,0.1,1.5h2.2l-1.4,7c-0.1,0.5-1,4.7,4,4.7c2,0,4.8-0.6,7.5-3.1c0.8,2.4,3.2,3.1,5.4,3.1c2.3,0,4-0.7,5.2-1.6  c0.7,0.9,1.9,1.6,4.1,1.6c2.6,0,4.3-0.9,5.4-2.3c3.7,5,12.8,1.6,14.2-5.2c0.8-4.2-1.9-7.6-6.1-7.6c-1.7,0-3.3,0.5-4.7,1.4l1.4-7.3  c-0.4-0.1-2.9-1.1-3.4,1.2L61,41.8c-0.6,2.8-1.4,5.4-3.9,5.4c-2.2,0-2.1-1.7-1.9-3.1l1.6-8.3c-1.3-0.5-2.3-0.3-2.8,0.1  c-0.7,0.6-0.5,1.3-1.8,7.4c-0.3,1.6-1.2,4-4.4,4s-3.1-2.4-2.8-4l1.5-7.5c-1.3-0.5-2.3-0.3-2.8,0.1c-0.7,0.6-0.5,1.3-1.8,7.5  c-1.4,1.9-3.7,3.9-6.2,3.9C33.8,47.2,33.1,46.5,33.4,44.7"/>
</svg>