<?xml version="1.0" encoding="UTF-8" standalone="no"?>
<svg
   xmlns:dc="http://purl.org/dc/elements/1.1/"
   xmlns:cc="http://creativecommons.org/ns#"
   xmlns:rdf="http://www.w3.org/1999/02/22-rdf-syntax-ns#"
   xmlns:svg="http://www.w3.org/2000/svg"
   xmlns="http://www.w3.org/2000/svg"
   xmlns:sodipodi="http://sodipodi.sourceforge.net/DTD/sodipodi-0.dtd"
   xmlns:inkscape="http://www.inkscape.org/namespaces/inkscape"
   width="500mm"
   height="500mm"
   viewBox="0 0 500 500"
   version="1.1"
   id="svg4539"
   inkscape:version="1.0.1 (3bc2e813f5, 2020-09-07)"
   sodipodi:docname="logo.svg">
  <defs
     id="defs4533" />
  <sodipodi:namedview
     id="base"
     pagecolor="#ffffff"
     bordercolor="#666666"
     borderopacity="1.0"
     inkscape:pageopacity="0.0"
     inkscape:pageshadow="2"
     inkscape:zoom="0.35355339"
     inkscape:cx="1362.1579"
     inkscape:cy="762.25659"
     inkscape:document-units="mm"
     inkscape:current-layer="g4606"
     showgrid="false"
     inkscape:window-width="1848"
     inkscape:window-height="1136"
     inkscape:window-x="72"
     inkscape:window-y="27"
     inkscape:window-maximized="1"
     inkscape:document-rotation="0" />
  <metadata
     id="metadata4536">
    <rdf:RDF>
      <cc:Work
         rdf:about="">
        <dc:format>image/svg+xml</dc:format>
        <dc:type
           rdf:resource="http://purl.org/dc/dcmitype/StillImage" />
        <dc:title />
      </cc:Work>
    </rdf:RDF>
  </metadata>
  <g
     inkscape:label="Calque 1"
     inkscape:groupmode="layer"
     id="layer1"
     transform="translate(0,203)">
    <g
       id="g4606">
      <path
         style="fill:#57bff5;fill-opacity:1;stroke-width:1.16255"
         d="M 46.909767,111.16118 27.570897,90.985211 59.4504,57.677636 91.329881,24.370063 120.76122,55.53782 l 29.84099,30.767697 -7.63217,1.920103 c -23.12488,5.817765 -52.035886,20.128 -69.207709,36.69271 -3.659751,3.53035 -6.847491,6.41883 -7.083884,6.41883 -0.236382,0 -9.132288,-9.07919 -19.76868,-20.17598 z"
         id="path4549"
         inkscape:connector-curvature="0"
         sodipodi:nodetypes="scccccssss" />
      <path
         style="fill:#57bff5;fill-opacity:1;stroke-width:1.15184"
         d="m 276.10317,122.54732 c -20.77225,-13.47793 -43.75211,-28.638544 -68.94751,-34.43276 -4.02228,-0.925013 -8.04595,-1.790568 -8.30287,-2.047714 -0.25695,-0.257145 47.2637,-49.004769 104.96284,-108.203812 57.69916,-59.199044 105.59344,-108.357964 106.43176,-109.242044 1.28621,-1.35645 6.66459,3.29475 34.44484,29.78768 l 32.92064,31.395095 -60.88789,61.8194816 C 383.23665,25.623951 339.31386,70.211515 319.11882,90.706709 l -35.24983,36.879411 z"
         id="path4608"
         inkscape:connector-curvature="0"
         sodipodi:nodetypes="sccscscsscs" />
      <path
         style="fill:#2988e6;fill-opacity:1;stroke-width:1.13891"
         d="m 81.905131,146.60109 -16.291466,-16.32058 7.011324,-6.49125 C 90.458965,107.27815 116.17386,94.11457 142.0673,88.241408 l 8.53491,-1.935891 11.54031,12.113064 c 6.34718,6.662189 11.98792,12.133299 12.53499,12.158029 0.54708,0.0247 6.21031,-5.47984 12.58498,-12.232388 l 11.5903,-12.277376 10.03902,2.066434 c 25.0183,5.149757 48.78997,17.29525 71.56044,36.56185 l 3.41674,2.89099 -16.86762,16.89613 -16.86763,16.89615 -6.78768,-3.23294 c -16.85815,-8.02948 -33.56509,-12.5506 -53.93129,-14.59456 -26.25177,-2.63463 -55.28574,2.66518 -81.24578,14.83045 -5.32883,2.49718 -9.752595,4.54033 -9.830587,4.54033 -0.07802,0 -7.472971,-7.34427 -16.433272,-16.32059 z"
         id="path4610"
         inkscape:connector-curvature="0" />
      <path
         style="fill:#185abd;fill-opacity:1;stroke-width:1.13891"
         d="M 119.60029,183.89523 C 97.021955,160.84932 97.730143,163.15227 99.186985,162.56344 l 9.765885,-4.57644 c 33.30269,-15.60617 68.78523,-19.43659 104.02553,-11.22978 14.94544,3.48052 37.0147,12.21419 37.0147,14.64819 0,0.67141 -17.041,18.38174 -37.86888,39.35627 l -37.86888,38.13554 z"
         id="path4612"
         inkscape:connector-curvature="0"
         sodipodi:nodetypes="ccsssscc" />
    </g>
  </g>
</svg>
