<?xml version="1.0" encoding="UTF-8" standalone="no"?>
<!-- Created with Inkscape (http://www.inkscape.org/) -->

<svg
   width="600mm"
   height="800mm"
   viewBox="0 0 600 800"
   version="1.1"
   id="svg5"
   xml:space="preserve"
   sodipodi:docname="mega-express-four.svg"
   inkscape:version="1.2 (56b05e47e7, 2022-06-09, custom)"
   xmlns:inkscape="http://www.inkscape.org/namespaces/inkscape"
   xmlns:sodipodi="http://sodipodi.sourceforge.net/DTD/sodipodi-0.dtd"
   xmlns:xlink="http://www.w3.org/1999/xlink"
   xmlns="http://www.w3.org/2000/svg"
   xmlns:svg="http://www.w3.org/2000/svg"><sodipodi:namedview
     id="namedview7"
     pagecolor="#ffffff"
     bordercolor="#666666"
     borderopacity="1.0"
     inkscape:showpageshadow="2"
     inkscape:pageopacity="0.0"
     inkscape:pagecheckerboard="0"
     inkscape:deskcolor="#d1d1d1"
     inkscape:document-units="mm"
     showgrid="false"
     inkscape:zoom="1.7408004"
     inkscape:cx="857.65148"
     inkscape:cy="1378.9634"
     inkscape:window-width="1920"
     inkscape:window-height="1175"
     inkscape:window-x="0"
     inkscape:window-y="0"
     inkscape:window-maximized="1"
     inkscape:current-layer="layer1" /><defs
     id="defs2" /><g
     inkscape:label="Calque 1"
     inkscape:groupmode="layer"
     id="layer1"><image
       width="558.79999"
       height="745.06665"
       preserveAspectRatio="none"
       xlink:href="../1ccc23d5/megaexpressfour.png"
       id="image11915"
       x="19.757189"
       y="32.595314" /><path
       style="fill:none;stroke:#fff800;stroke-width:0.72;stroke-linecap:butt;stroke-linejoin:miter;stroke-dasharray:none;stroke-opacity:1"
       d="m 153.79615,324.27763 0.64845,47.4355 50.29278,-0.87518 37.92695,-0.1079 3.43862,-4.67086 -0.0155,-11.67515 -4.87057,-0.7791 -0.10138,-3.90706 -11.50213,0.32106 0.1708,-4.60156 24.35037,-0.72883 0.0565,-5.06625 -8.89331,-0.0242 0.17579,-11.3389 -2.98907,-4.78994 z"
       id="6-loisirs"
       sodipodi:nodetypes="cccccccccccccccc" /><path
       style="fill:none;stroke:#ffffff;stroke-width:0.72;stroke-linecap:butt;stroke-linejoin:miter;stroke-dasharray:none;stroke-opacity:1"
       d="m 153.52428,324.30487 0.65773,46.92212 295.2137,-2.56465 -0.53463,-47.52076 z"
       id="6-total"
       sodipodi:nodetypes="ccccc"
       inkscape:label="étiquette" /><text
       x="153.06989"
       y="388.54238"
       id="text18380"
       style="stroke-width:0.36000004;stroke-dasharray:none"><tspan
         sodipodi:role="line"
         style="fill:#000000;fill-opacity:1;font-size:3.175;font-style:normal;font-weight:normal;stroke:none;text-align:center;text-anchor:start;vertical-align:bottom;stroke-width:0.36000004;stroke-dasharray:none"
         dy="12.0"
         id="tspan18378">123891.78 px<tspan
   style="font-size:65%;baseline-shift:super;stroke-width:0.36000004;stroke-dasharray:none"
   id="tspan18376">2</tspan></tspan></text><path
       style="fill:none;stroke:#ffffff;stroke-width:0.72;stroke-linecap:butt;stroke-linejoin:miter;stroke-dasharray:none;stroke-opacity:1"
       d="m 153.06315,388.64409 0.89231,46.03861 296.46315,-1.47001 0.13512,-46.9829 z"
       id="7-total"
       sodipodi:nodetypes="ccccc" /><path
       style="fill:none;stroke:#fff800;stroke-width:0.72;stroke-linecap:butt;stroke-linejoin:miter;stroke-dasharray:none;stroke-opacity:1"
       d="m 153.06989,388.54238 0.89231,46.56778 134.85576,-0.71035 0.37873,-9.34502 81.56036,-0.34737 v -28.42524 l -48.0038,0.082 0.59988,10.03906 -11.70462,-0.86538 -1.54433,3.00321 -14.65,0.36114 0.0892,4.41344 -6.08629,0.0472 -0.04,4.3579 -5.91567,0.3778 -0.39267,-4.68647 -54.73018,0.42445 -0.0753,-4.63823 52.8392,-0.94951 -0.1455,-3.63039 -8.93527,-8.80544 11.68177,-0.58509 5.77779,0.24354 -0.40054,-8.31809 z"
       id="7-loisirs"
       sodipodi:nodetypes="ccccccccccccccccccccccccc" /><path
       style="fill:none;stroke:#ff00c5;stroke-width:0.264583px;stroke-linecap:butt;stroke-linejoin:miter;stroke-opacity:1"
       d="m 371.53775,387.30679 v 45.99731 h 78.72333 v -47.18315 z"
       id="7-cabines" /><path
       style="fill:none;stroke:#ff00b3;stroke-width:0.264583px;stroke-linecap:butt;stroke-linejoin:miter;stroke-opacity:1"
       d="m 245.74637,328.15482 h 42.13281 v 3.63844 l 83.55817,-0.79041 -0.25059,-8.70183 77.24126,-1.1148 1.09064,47.8145 -78.03279,0.41346 0.25635,-8.95236 -83.3601,0.225 -0.35197,4.57719 -42.04427,0.84288 0.009,-11.68183 10.52193,-0.58423 -2.12825,-9.13862 v -5.45005 l -8.99666,0.41666 z"
       id="6-cabines" /></g></svg>
