<?xml version="1.0" encoding="UTF-8" standalone="no"?>
<svg
   viewBox="0 0 300.00001 299.99999"
   version="1.1"
   id="svg4"
   sodipodi:docname="blablacar.svg"
   width="300"
   height="300"
   inkscape:version="1.3.1 (9b9bdc1480, 2023-11-25, custom)"
   xmlns:inkscape="http://www.inkscape.org/namespaces/inkscape"
   xmlns:sodipodi="http://sodipodi.sourceforge.net/DTD/sodipodi-0.dtd"
   xmlns="http://www.w3.org/2000/svg"
   xmlns:svg="http://www.w3.org/2000/svg">
  <defs
     id="defs4" />
  <sodipodi:namedview
     id="namedview4"
     pagecolor="#ffffff"
     bordercolor="#000000"
     borderopacity="0.25"
     inkscape:showpageshadow="2"
     inkscape:pageopacity="0.0"
     inkscape:pagecheckerboard="0"
     inkscape:deskcolor="#d1d1d1"
     showgrid="false"
     inkscape:zoom="1.9160582"
     inkscape:cx="205.36955"
     inkscape:cy="212.41526"
     inkscape:window-width="1920"
     inkscape:window-height="1055"
     inkscape:window-x="0"
     inkscape:window-y="0"
     inkscape:window-maximized="1"
     inkscape:current-layer="svg4" />
  <g
     id="g5"
     transform="translate(702.68183,5.3057433)">
    <path
       fill="#054752"
       d="m -458.15532,120.75058 c -4.60447,-27.751279 -30.86241,-46.418056 -58.48924,-41.689139 l 8.08894,-46.480277 -29.68018,-5.28892 c -2.4889,5.600033 -13.68897,31.111296 -19.10233,59.733688 11.0134,7.466711 19.10233,19.289008 21.52901,33.600198 2.48891,15.12009 -1.86667,29.86685 -10.95117,40.81802 2.24001,2.7378 4.79114,5.2267 7.65338,7.46671 11.51118,9.0845 25.51126,12.63119 39.20023,10.32895 27.8135,-4.60447 46.48028,-30.8624 41.68914,-58.48923 z"
       id="path1"
       style="stroke-width:0.622226" />
    <path
       fill="#2dbeff"
       d="m -557.83591,90.261507 0.62222,-3.111129 c -10.57784,-7.217821 -23.64458,-10.453396 -37.20911,-8.213383 l 8.08894,-46.418053 -29.61795,-5.226698 c -2.61335,5.786701 -14.56009,32.977974 -19.66234,62.844818 -4.1067,24.142368 -3.92003,50.026968 8.71116,68.258188 2.80002,3.92002 6.09781,7.46671 10.08006,10.57784 11.5734,9.08449 25.63571,12.63118 39.32468,10.32895 12.56896,-2.05335 23.20902,-8.71117 30.73796,-17.73344 l -2.36446,-3.11113 c -12.69341,-18.169 -12.88008,-44.0536 -8.71116,-68.13374 z"
       id="path2"
       style="stroke-width:0.622226" />
    <path
       fill="#9ef769"
       d="m -535.74689,120.75058 c -2.48891,-14.3112 -10.57784,-26.133491 -21.52902,-33.600202 l -0.62223,3.111129 c -4.04447,24.142363 -3.8578,50.026963 8.83561,68.258183 l 2.30224,3.11113 c 9.0845,-11.20007 13.56452,-25.8846 10.95117,-41.06691 z"
       id="path3"
       style="stroke-width:0.622226" />
  </g>
  <g
     id="g4"
     transform="matrix(0.25122596,0,0,0.25122596,-79.999065,196.03529)">
    <path
       fill="#054752"
       d="m 1249,228 h -28.4 c -1,0 -1.7,0.5 -2,1.3 -4,10.6 -9.6,19.4 -17.6,25.6 -8,6 -18.3,9.6 -31.7,9.6 -18.3,0 -33,-8 -43,-21.4 -10,-13.5 -15.6,-32.2 -15.6,-53.6 0,-21.6 5.5,-40.3 15.6,-53.6 10,-13.3 24.8,-21.3 43,-21.3 13.3,0 23.5,3.5 31.5,9.6 8,6.2 13.5,15 17.6,25.3 0.3,0.8 1,1.4 2,1.4 h 28.5 c 0.4,0 1,-0.2 1.3,-0.6 0.4,-0.3 0.6,-0.8 0.6,-1.4 v -0.5 c -4.5,-19.2 -13.8,-35 -27.6,-46 -13.8,-11 -31.8,-17.4 -54.2,-17.4 -26,0 -49,10.7 -65.5,29 -16.5,18.4 -26.5,44.5 -26.5,75.8 0,31.3 10,57.5 26.5,75.8 16.5,18.5 39.5,29 65.6,29 22.4,0 40.6,-6.2 54.5,-17.3 13.8,-11 23.2,-27 27.5,-46.5 v -0.5 c 0,-0.6 -0.2,-1 -0.6,-1.5 -0.2,-0.3 -0.8,-0.5 -1.4,-0.5 z m 249.3,-84.2 c -2,-0.4 -4.8,-0.8 -8.7,-0.8 -3.4,0 -7.6,0.3 -12.4,1.2 -4,0.8 -8.3,2.4 -12.3,4.6 -4,2.2 -8,5.2 -11.6,8.8 -2,2 -4,4.5 -5.8,7.3 l -1.3,2 v -19.4 c 0,-1.2 -1,-2.2 -2,-2.2 H 1417 c -1,0 -2,1 -2,2.2 v 142 c 0,1 1,2 2,2 h 27.4 c 1.2,0 2.2,-1 2.2,-2 v -69 c 0,-8 1,-14.8 2.7,-20.4 1.8,-5.6 4.5,-10 8,-13.4 3.7,-3.4 7.8,-6 12.6,-7.7 5.6,-2 11.7,-2.6 17,-2.6 4,0 8,0.4 10.3,0.8 h 0.3 c 1.2,0 2,-0.8 2,-2 V 146 c 0.3,-1 -0.4,-2 -1.5,-2.2 z M 909,84.8 h -0.5 L 881,89.6 c -1,0.2 -2,1 -2,2 v 197.8 c 0,1.2 1,2.2 2.3,2.2 H 909 c 1,0 2,-1 2,-2.2 V 87 c 0,-1.2 -1,-2.2 -2.3,-2.2 z m -56.7,117.4 c -4,-8.2 -9.6,-15.2 -16.5,-21 l -2,-1.5 c -3,-2.3 -6.3,-4.4 -9.8,-6 l -1,-0.5 0.7,-0.7 c 3.2,-3.7 6,-8 8,-12.6 3,-6.7 4.5,-13.6 4.5,-20.8 0,-7.8 -1.6,-15 -4.6,-22 -3,-7 -7.3,-12.8 -12.7,-17.8 -5,-4.6 -11,-8.2 -17.8,-10.8 -6.8,-2.6 -15.3,-4 -25.3,-4 h -60.6 c -1.2,0 -2.2,1 -2.2,2.3 v 202.5 c 0,1.2 1,2.2 2.2,2.2 H 790 c 10.7,0 19.6,-1.2 26.8,-3.6 7,-2.4 13.5,-6 19,-10.5 6.8,-5.7 12.4,-12.8 16.5,-21 1,-2 1.7,-3.7 2.4,-5.5 l 0.3,-0.8 0.5,-1.4 c 2,-6.2 3.2,-12.7 3.2,-19.5 -0.2,-9.8 -2.3,-19 -6.5,-27.2 z m -107,-87 h 25.4 c 8,0 14,0.7 18,2 3.8,1.5 6.8,3.5 9,6 4.3,4.8 6.5,10.4 6.5,17 0,6.4 -2,12 -6.5,16.8 -2.2,2.5 -5,4.5 -9,6 -2.8,1 -7,1.6 -12,2 H 745 v -49.8 z m 78,125.6 c -1.6,4 -3.8,7.4 -6.6,10.4 -3.2,3 -7,5.6 -11.7,7.4 -4.7,1.7 -11.6,2.7 -20.8,2.7 h -39 v -65.7 h 39 c 9.2,0 16,1 20.7,2.7 4.5,1.8 8.4,4.3 11.5,7.4 2.8,3 5,6.4 6.7,10.2 1.7,3.7 2.5,8 2.5,12.3 0,4.5 -0.8,8.7 -2.5,12.6 z m 218,-83.6 c -10.6,-9.7 -25.2,-14.5 -43.4,-14.5 -16.4,0 -29.8,4 -40,12 -9,6.7 -15.5,15.3 -19,25.5 -0.4,1 0.3,2.3 1.5,2.5 l 25.8,4.5 c 1,0.2 1.7,-0.3 2,-1 5.3,-11.7 15.2,-17.4 29.8,-17.4 10,0 17.6,2.7 23,8.2 5.4,5.5 8,12.8 8,22 v 5.2 c -13.5,-4 -26.4,-6 -38.4,-6 -17,0 -31.2,4.2 -42.5,12.8 -11.2,8.6 -17,20.7 -17,36.2 0,14.8 5.3,26.4 15.6,34.8 10.3,8.4 22.7,12.6 37.3,12.6 18.6,0 34,-5.4 45.2,-16.6 v 11.2 c 0,1.4 1.2,2.5 2.5,2.5 h 23.8 c 1.3,0 2.4,-1 2.4,-2.4 V 197 c -0.3,-17 -5.7,-30.2 -16.5,-39.8 z m -24.2,100 c -8,6.7 -17.7,10 -29.3,10 -8.5,0 -15,-2 -19.6,-5.8 -4.4,-3.8 -6.7,-9 -6.7,-15.6 0,-7.2 3,-12.6 8.6,-16.2 5.6,-3.6 13,-5.5 22,-5.5 11.3,0 23.7,2 37,6 0,11.7 -4,20.6 -12,27 z M 538,84.8 h -0.4 L 510,89.6 c -1,0.2 -2,1 -2,2 v 197.8 c 0,1.2 1,2.2 2.3,2.2 H 538 c 1,0 2,-1 2,-2.2 V 87 c 0,-1.2 -1,-2.2 -2.2,-2.2 z m -57,117.4 c -4,-8.2 -9.4,-15.2 -16.3,-21 l -2,-1.5 c -3,-2.3 -6.3,-4.4 -9.8,-6 l -1,-0.5 0.7,-0.7 c 3.2,-3.7 6,-8 8,-12.6 3,-6.7 4.5,-13.6 4.5,-20.8 0,-7.8 -1.5,-15 -4.5,-22 -3,-7 -7.3,-12.8 -12.7,-17.8 -5,-4.6 -11,-8.2 -17.6,-10.8 -6.8,-2.6 -15.3,-4 -25.3,-4 h -60.5 c -1.2,0 -2.2,1 -2.2,2.3 v 202.5 c 0,1.2 1,2.2 2.2,2.2 H 419 c 10.7,0 19.6,-1.2 26.8,-3.6 7,-2.4 13.5,-6 19,-10.5 6.8,-5.7 12.4,-12.8 16.5,-21 1,-2 1.7,-3.7 2.4,-5.5 l 0.3,-0.8 c 0,-0.4 0.2,-1 0.4,-1.4 2,-6.2 3.2,-12.7 3.2,-19.5 -0.2,-9.8 -2.3,-19 -6.5,-27.2 z m -107,-87 h 25.6 c 8,0 14,0.7 18,2 3.8,1.5 6.8,3.5 9,6 4.3,4.8 6.5,10.4 6.5,17 0,6.4 -2,12 -6.5,16.8 -2.2,2.5 -5,4.5 -9,6 -2.8,1 -7,1.6 -12,2 H 374 Z m 78.3,125.6 c -1.7,4 -4,7.4 -6.7,10.4 -3.2,3 -7,5.6 -11.7,7.4 -4.7,1.7 -11.6,2.7 -20.8,2.7 h -39 v -65.7 h 39 c 9.3,0 16.2,1 20.8,2.7 4.7,1.8 8.6,4.3 11.7,7.4 2.8,3 5,6.4 6.7,10.2 1.7,3.7 2.5,8 2.5,12.3 0,4.5 -1,8.7 -2.6,12.6 z m 218,-83.6 c -10.7,-9.7 -25.3,-14.5 -43.5,-14.5 -16.3,0 -29.7,4 -40,12 -9,6.7 -15.4,15.3 -19,25.5 -0.3,1 0.4,2.3 1.6,2.5 l 25.7,4.5 c 1,0.2 2,-0.3 2.3,-1 5.2,-11.7 15,-17.4 29.7,-17.4 9.7,0 17.4,2.7 22.8,8.2 5.4,5.5 8.2,12.8 8.2,22 v 5.2 c -13.7,-4 -26.6,-6 -38.6,-6 -17,0 -31.2,4.2 -42.5,12.8 -11.5,8.6 -17,20.7 -17,36.2 0,14.8 5,26.4 15.3,34.8 10.3,8.4 22.7,12.6 37.3,12.6 18.7,0 34,-5.4 45.3,-16.6 v 11.2 c 0,1.4 1,2.5 2.3,2.5 H 684 c 1.4,0 2.5,-1 2.5,-2.4 V 197 c -0.3,-17 -5.6,-30.2 -16.4,-39.8 z m -24.4,100 c -8,6.7 -18,10 -29.5,10 -8.5,0 -15,-2 -19.6,-5.8 -4.6,-3.8 -7,-9 -7,-15.6 0,-7.2 3,-12.6 8.7,-16.2 5.7,-3.6 13,-5.5 22,-5.5 11.4,0 23.8,2 37,6 0.2,11.7 -3.8,20.6 -11.8,27 z m 730.6,-100 c -10.7,-9.7 -25.3,-14.5 -43.5,-14.5 -16.2,0 -29.6,4 -40,12 -9,6.7 -15.3,15.3 -19,25.5 -0.2,1 0.5,2.3 1.7,2.5 l 25.8,4.5 c 1,0.2 1.7,-0.3 2,-1 5.3,-11.7 15.2,-17.4 29.8,-17.4 9.8,0 17.5,2.7 23,8.2 5.3,5.5 8,12.8 8,22 v 5.2 c -13.6,-4 -26.5,-6 -38.5,-6 -17,0 -31.2,4.2 -42.5,12.8 -11.3,8.6 -17,20.7 -17,36.2 0,14.8 5.2,26.4 15.5,34.8 10.3,8.4 22.7,12.6 37.3,12.6 18.8,0 34,-5.4 45.4,-16.6 v 11.2 c 0,1.4 1,2.5 2.4,2.5 h 23.8 c 1.3,0 2.4,-1 2.4,-2.4 V 197 c -0.4,-17 -5.8,-30.2 -16.5,-39.8 z m -24.5,100 c -8,6.7 -17.6,10 -29.2,10 -8.5,0 -15,-2 -19.6,-5.8 -4.4,-3.8 -6.7,-9 -6.7,-15.6 0,-7.2 3,-12.6 8.6,-16.2 5.7,-3.6 13,-5.5 22,-5.5 11.4,0 24,2 37,6 0,11.7 -4,20.6 -12,27 z"
       id="path4" />
  </g>
</svg>
