<?xml version="1.0" encoding="UTF-8" standalone="no"?>
<svg
   id="Ebene_1"
   data-name="Ebene 1"
   viewBox="0 0 132.62233 27"
   version="1.1"
   sodipodi:docname="flixbus.svg"
   width="132.62233"
   height="27"
   inkscape:version="1.2.2 (b0a8486541, 2022-12-01)"
   xmlns:inkscape="http://www.inkscape.org/namespaces/inkscape"
   xmlns:sodipodi="http://sodipodi.sourceforge.net/DTD/sodipodi-0.dtd"
   xmlns="http://www.w3.org/2000/svg"
   xmlns:svg="http://www.w3.org/2000/svg"
   xmlns:rdf="http://www.w3.org/1999/02/22-rdf-syntax-ns#"
   xmlns:cc="http://creativecommons.org/ns#"
   xmlns:dc="http://purl.org/dc/elements/1.1/">
  <defs
     id="defs157" />
  <sodipodi:namedview
     id="namedview155"
     pagecolor="#ffffff"
     bordercolor="#666666"
     borderopacity="1.0"
     inkscape:showpageshadow="2"
     inkscape:pageopacity="0.0"
     inkscape:pagecheckerboard="0"
     inkscape:deskcolor="#d1d1d1"
     showgrid="false"
     inkscape:zoom="4.9166667"
     inkscape:cx="66.813559"
     inkscape:cy="13.627119"
     inkscape:window-width="1920"
     inkscape:window-height="1080"
     inkscape:window-x="0"
     inkscape:window-y="0"
     inkscape:window-maximized="0"
     inkscape:current-layer="Ebene_1" />
  <title
     id="title132">fb_white</title>
  <g
     id="g444"
     transform="translate(3.2861648,1.495)"
     style="fill:#73d700;fill-opacity:1">
    <path
       d="M 3.4,1.29 A 2.06,2.06 0 0 0 1.34,3.34 V 22.72 H 6.82 V 14.3 h 7.77 a 2.06,2.06 0 0 0 2.06,-2.06 V 9.92 H 6.82 V 6.7 a 1,1 0 0 1 1,-1 h 9.31 A 2.06,2.06 0 0 0 19.19,3.64 V 1.29 Z"
       style="fill:#73d700;fill-opacity:1"
       id="path134" />
    <path
       d="m 28.09,18.31 a 1,1 0 0 1 -1,-1 V 3.36 A 2.07,2.07 0 0 0 25,1.29 h -3.45 v 19.36 a 2.07,2.07 0 0 0 2.07,2.07 h 11.26 a 2.07,2.07 0 0 0 2.07,-2.07 v -2.34 z"
       style="fill:#73d700;fill-opacity:1"
       id="path136" />
    <path
       d="M 44.85,22.72 H 39.36 V 11.53 a 2.07,2.07 0 0 1 2.06,-2.06 h 3.43 z"
       style="fill:#73d700;fill-opacity:1"
       id="path138" />
    <path
       d="M 42.79,7.47 H 39.36 V 3.35 a 2.07,2.07 0 0 1 2.06,-2.06 h 1.37 a 2.07,2.07 0 0 1 2.06,2.06 v 2.06 a 2.07,2.07 0 0 1 -2.06,2.06"
       style="fill:#73d700;fill-opacity:1"
       id="path140" />
    <path
       d="m 80,19.24 h -3.79 a 2,2 0 0 1 -2,-2 v -3.6 H 80 a 2.79,2.79 0 0 1 0,5.58 M 74.23,4.77 h 5.15 a 2.5,2.5 0 0 1 0,5 H 76 A 1.78,1.78 0 0 1 74.23,8 Z m 11.64,7.39 c -0.12,-0.11 -0.45,-0.37 -0.54,-0.44 a 5.7,5.7 0 0 0 1.46,-4.2 C 86.79,3.61 84.26,1.3 80.35,1.3 H 71.9 a 2.06,2.06 0 0 0 -2.05,2.05 v 17.31 a 2.06,2.06 0 0 0 2.05,2.05 h 9.41 c 3.91,0 6.27,-2.28 6.27,-6.19 a 5.92,5.92 0 0 0 -1.72,-4.36"
       style="fill:#73d700;fill-opacity:1"
       id="path142" />
    <path
       d="m 106.82,1.28 h -2.42 a 2,2 0 0 0 -2,2 V 16 c 0,1.83 -1.26,3 -3.43,3 h -1 C 95.8,19 94.54,17.78 94.54,16 V 1.28 H 92.1 a 2,2 0 0 0 -2,2 v 13.44 c 0,3.77 2.59,6.28 7.07,6.28 h 2.59 c 4.48,0 7.07,-2.51 7.07,-6.28 z"
       style="fill:#73d700;fill-opacity:1"
       id="path144" />
    <path
       d="m 115.44,5.64 h 6.93 a 2.06,2.06 0 0 0 2.05,-2.05 V 1.26 h -9 a 6.55,6.55 0 0 0 -6.42,6.55 6.37,6.37 0 0 0 6.39,6.34 h 2.83 a 2.08,2.08 0 0 1 0,4.15 h -9 v 2.33 a 2.06,2.06 0 0 0 2.05,2.05 h 7 a 6.55,6.55 0 0 0 6.44,-6.55 6.36,6.36 0 0 0 -6.34,-6.34 h -2.88 a 2.08,2.08 0 0 1 0,-4.15"
       style="fill:#73d700;fill-opacity:1"
       id="path146" />
    <path
       d="M 65.67,18.9 62,13.78 l -3.21,4.41 2.73,3.76 a 2.56,2.56 0 0 0 3.57,0.57 h 0.06 a 2.56,2.56 0 0 0 0.57,-3.57"
       style="fill:#73d700;fill-opacity:1"
       id="path148" />
    <path
       d="m 60.66,12 -3.2,-4.41 -4,-5.53 A 2.56,2.56 0 0 0 49.89,1.49 h -0.06 a 2.56,2.56 0 0 0 -0.57,3.57 l 5,6.89 -5,6.9 a 2.57,2.57 0 0 0 0.56,3.58 h 0.06 a 2.56,2.56 0 0 0 3.57,-0.57 l 3,-4.06 z"
       style="fill:#73d700;fill-opacity:1"
       id="path150" />
    <path
       d="M 65.11,1.53 H 65.05 A 2.56,2.56 0 0 0 61.48,2.1 L 58.75,5.81 62,10.22 65.67,5.1 A 2.56,2.56 0 0 0 65.1,1.53"
       style="fill:#73d700;fill-opacity:1"
       id="path152" />
  </g>
  <metadata
     id="metadata547">
    <rdf:RDF>
      <cc:Work
         rdf:about="">
        <dc:title>fb_white</dc:title>
      </cc:Work>
    </rdf:RDF>
  </metadata>
</svg>
