<?xml version="1.0" encoding="UTF-8"?>
<svg id="Calque_1" data-name="Calque 1" xmlns="http://www.w3.org/2000/svg" viewBox="0 0 46.5 20.8"><link xmlns="" type="text/css" rel="stylesheet" id="dark-mode-custom-link"/><link xmlns="" type="text/css" rel="stylesheet" id="dark-mode-general-link"/><style xmlns="" lang="en" type="text/css" id="dark-mode-custom-style"/><style xmlns="" lang="en" type="text/css" id="dark-mode-native-style"/><style xmlns="" lang="en" type="text/css" id="dark-mode-native-sheet"/>
  <defs>
    <style>
      .cls-1 {
        fill: #9b2743;
      }
    </style>
  </defs>
  <path class="cls-1" d="m.6.1v.6h1.5v4h.6V.7h1.5V.1H.6Zm6.5,2v.6h1v1.3c-.1.1-.3.1-.5.2s-.4.1-.6.1c-.3,0-.5,0-.7-.1-.3-.2-.5-.3-.6-.5s-.3-.4-.4-.6c-.1-.2-.2-.4-.2-.7,0-.2,0-.5.1-.7s.2-.4.3-.6.3-.3.5-.4.4-.1.7-.1c.2,0,.5,0,.7.1s.4.2.6.4l.4-.5c-.2-.2-.4-.3-.7-.4-.1-.1-.4-.2-.8-.2-.3,0-.7.1-1,.2-.3.1-.5.3-.7.5-.2.2-.4.4-.5.7-.1.3-.2.7-.2,1s.1.6.2.9.3.5.5.8c.2.2.5.4.8.5s.6.2,1,.2h.4c.2,0,.3,0,.5-.1.2,0,.3-.1.4-.1.1-.1.3-.1.4-.2v-2.3h-1.6Zm3.8,2.6h.6L13.3.1h-.7l-1.4,3.7h0L9.9.1h-.7l1.7,4.6Zm-4.5,6.2c0-1.2,1-2.2,2.2-2.2s2.2,1,2.2,2.2v6.5h2.6v-6.5c0-2.6-2.1-4.7-4.7-4.7s-4.8,2.1-4.8,4.7v6.5h2.6v-6.5h-.1ZM.7,6.6c-.4,1.7-.6,3.5-.6,5.3v3.6q.1-.1.2-.2c.4-.2.7-.3,1.1-.3.5,0,.9.2,1.3.4V6.6s-2,0-2,0Z"/>
  <path class="cls-1" d="m45.1,8c-.8,0-1.4-.6-1.4-1.4s.6-1.4,1.4-1.4,1.4.6,1.4,1.4-.6,1.4-1.4,1.4ZM1.4,16c-.8,0-1.4.6-1.4,1.4s.6,1.4,1.4,1.4,1.4-.6,1.4-1.4c.1-.8-.6-1.4-1.4-1.4Zm21.9,4.8c-4.8,0-8.8-3.9-8.8-8.8s3.9-8.8,8.8-8.8,8.8,3.9,8.8,8.8-4,8.8-8.8,8.8Zm0-14.7c-3.3,0-5.9,2.7-5.9,5.9s2.7,5.9,5.9,5.9,5.9-2.7,5.9-5.9-2.7-5.9-5.9-5.9Zm16.8,7c0,1.2-1,2.2-2.2,2.2s-2.2-1-2.2-2.2v-6.5h-2.5v6.5c0,2.6,2.1,4.7,4.7,4.7s4.8-2.1,4.8-4.7v-6.5h-2.6v6.5Zm5.7,4.3c.4-1.7.6-3.5.6-5.3v-3.6q-.1.1-.2.2c-.3.2-.7.3-1.1.3-.5,0-.9-.2-1.3-.4v8.8h2Z"/>
</svg>